<svg viewBox="0 0 64 60" xmlns="http://www.w3.org/2000/svg"><rect fill="#376cfb" height="8" rx="1" width="18" x="40" y="52"/><path d="m53 15a3 3 0 0 0 -3 3v12a1 1 0 0 0 1 1h4a1 1 0 0 0 1-1v-12a3 3 0 0 0 -3-3z" fill="#efcece"/><path d="m60 4a4 4 0 0 0 -4 4v17.31a3.83 3.83 0 0 0 -3.71 1l-11 11a1 1 0 0 0 -.29.69v9a1 1 0 0 0 1 1h14a1 1 0 0 0 1-1v-4.59l6.71-6.7a1 1 0 0 0 .29-.71v-27a4 4 0 0 0 -4-4z" fill="#ffe3e3"/><path d="m60.83 29a5.79 5.79 0 0 1 -1.71 4.12l-8 8a1 1 0 0 1 -1.41-1.41l8-8a3.84 3.84 0 0 0 0-5.42 3.68 3.68 0 0 0 -1.71-1v-2a5.82 5.82 0 0 1 4.83 5.71z" fill="#efcece"/><rect fill="#4294ff" height="8" rx="1" width="22" x="38" y="46"/><circle cx="32" cy="15" fill="#4294ff" r="15"/><circle cx="32" cy="15" fill="#376cfb" r="11"/><path d="m25.64 8.64a1.05 1.05 0 0 1 -.71.29 1 1 0 0 1 -.71-.29l-3.5-3.5a11.9 11.9 0 0 1 1.42-1.42l3.5 3.5a1 1 0 0 1 0 1.42z" fill="#fb8800"/><path d="m32 39a1 1 0 0 1 -1-1v-5a1 1 0 0 1 2 0v5a1 1 0 0 1 -1 1z" fill="#4294ff"/><path d="m37 42a1 1 0 0 1 -1-1v-8a1 1 0 0 1 2 0v8a1 1 0 0 1 -1 1z" fill="#4294ff"/><path d="m27 42a1 1 0 0 1 -1-1v-8a1 1 0 0 1 2 0v8a1 1 0 0 1 -1 1z" fill="#4294ff"/><g fill="#376cfb"><path d="m33 0v5a1 1 0 0 1 -2 0v-5h1s.67 0 1 0z"/><path d="m43.28 5.13-3.5 3.51a1 1 0 0 1 -.71.29 1.05 1.05 0 0 1 -.71-.29 1 1 0 0 1 0-1.42l3.51-3.5a15.64 15.64 0 0 1 1.41 1.41z"/><path d="m47 15v1h-5a1 1 0 0 1 0-2h5z"/><path d="m43.28 24.86a11.9 11.9 0 0 1 -1.42 1.42l-3.5-3.5a1 1 0 0 1 1.42-1.42z"/><path d="m33 25v5c-.33 0-.66 0-1 0s-.67 0-1 0v-5a1 1 0 0 1 2 0z"/><path d="m25.64 22.78-3.5 3.5a11.9 11.9 0 0 1 -1.42-1.42l3.5-3.5a1 1 0 0 1 1.42 1.42z"/><path d="m23 15a1 1 0 0 1 -1 1h-5c0-.33 0-.66 0-1s0-.67 0-1h5a1 1 0 0 1 1 1z"/><path d="m25.64 8.64a1.05 1.05 0 0 1 -.71.29 1 1 0 0 1 -.71-.29l-3.5-3.5a11.9 11.9 0 0 1 1.42-1.42l3.5 3.5a1 1 0 0 1 0 1.42z"/></g><path d="m56 23.27v2a3.83 3.83 0 0 0 -3.71 1l-2.29 2.31v-2.82l.88-.88a5.81 5.81 0 0 1 5.12-1.61z" fill="#dbb6b6"/><rect fill="#376cfb" height="8" rx="1" width="18" x="6" y="52"/><path d="m11 15a3 3 0 0 1 3 3v12a1 1 0 0 1 -1 1h-4a1 1 0 0 1 -1-1v-12a3 3 0 0 1 3-3z" fill="#efcece"/><path d="m4 4a4 4 0 0 1 4 4v17.31a3.83 3.83 0 0 1 3.71 1l11 11a1 1 0 0 1 .29.69v9a1 1 0 0 1 -1 1h-14a1 1 0 0 1 -1-1v-4.59l-6.71-6.7a1 1 0 0 1 -.29-.71v-27a4 4 0 0 1 4-4z" fill="#ffe3e3"/><path d="m3.17 29a5.79 5.79 0 0 0 1.71 4.12l8 8a1 1 0 1 0 1.41-1.41l-8-8a3.84 3.84 0 0 1 0-5.42 3.68 3.68 0 0 1 1.71-1v-2a5.82 5.82 0 0 0 -4.83 5.71z" fill="#efcece"/><rect fill="#4294ff" height="8" rx="1" width="22" x="4" y="46"/><path d="m8 23.27v2a3.83 3.83 0 0 1 3.71 1l2.29 2.31v-2.82l-.88-.88a5.81 5.81 0 0 0 -5.12-1.61z" fill="#dbb6b6"/></svg>