<svg xmlns="http://www.w3.org/2000/svg" viewBox="0 0 210.68 210.66"><title>chat_active</title><g id="Layer_2" data-name="Layer 2"><g id="Layer_1-2" data-name="Layer 1"><path id="chat_active" d="M189.6,0H21.07A22.11,22.11,0,0,0,0,22.57V146.72a22.11,22.11,0,0,0,21.06,22.57H49.16V206.9a3.77,3.77,0,0,0,2.25,3.51,3.22,3.22,0,0,0,1.26.25,3.36,3.36,0,0,0,2.6-1.23l34.07-40.15H189.6a22.12,22.12,0,0,0,21.07-22.57V22.57A22.12,22.12,0,0,0,189.6,0ZM56.17,52.92a4.25,4.25,0,0,1,4.25-4.26h63.86a4.26,4.26,0,0,1,0,8.51H60.42A4.25,4.25,0,0,1,56.17,52.92ZM151.74,117H89.05c-1,0-1.84-1.9-1.84-4.21s.79-4.21,1.84-4.21h62.69c1,0,1.84,1.9,1.84,4.21S152.79,117,151.74,117Zm0-29.95H89.05c-1,0-1.84-1.91-1.84-4.22s.79-4.21,1.84-4.21h62.69c1,0,1.84,1.91,1.84,4.21S152.79,87,151.74,87Z"/></g></g></svg>