<svg xmlns="http://www.w3.org/2000/svg" viewBox="0 0 208 208.01"><title>user_active</title><g id="Layer_2" data-name="Layer 2"><g id="Layer_1-2" data-name="Layer 1"><g id="user_active"><path d="M104,29.78a29.72,29.72,0,1,0,0,59.43h0a29.72,29.72,0,1,0,0-59.43Z"/><path d="M130,111.51H78a40.92,40.92,0,0,0-40.86,40.86v31.3l.55.5c2,1.68,4.13,3.31,6.27,4.82l1,.69q3.27,2.26,6.69,4.26l1,.55c2.34,1.31,4.67,2.58,7.08,3.69l1,.4c2.46,1.14,4.94,2.17,7.48,3.11l.81.29c2.59.93,5.22,1.76,7.87,2.48l.66.17q4.08,1.1,8.25,1.83l.48.08c2.85.49,5.76.88,8.6,1.14H95l0,0c3,.26,6,.37,9,.37s6-.13,8.95-.39h.27c2.92-.25,5.77-.64,8.61-1.14l.48-.07c2.78-.5,5.53-1.12,8.26-1.84l.63-.16c2.68-.72,5.31-1.55,7.91-2.5l.74-.26c2.6-.94,5.11-2,7.59-3.13l.84-.37c2.43-1.14,4.82-2.4,7.17-3.74l.88-.49c2.32-1.36,4.58-2.8,6.79-4.34l.87-.6c2.19-1.54,4.32-3.19,6.39-4.92l.5-.41v-31.3A40.92,40.92,0,0,0,130,111.51Z"/><path d="M178.29,176.79a104,104,0,1,0-148.57,0V152.35A48.36,48.36,0,0,1,78,104.07h52a48.37,48.37,0,0,1,48.29,48.28v24.44ZM104,96.64A37.14,37.14,0,1,1,141.14,59.5,37.14,37.14,0,0,1,104,96.64Z"/></g></g></g></svg>