<svg xmlns="http://www.w3.org/2000/svg" xmlns:xlink="http://www.w3.org/1999/xlink" viewBox="0 0 638.22 124.4"><defs><style>.cls-1{fill:url(#linear-gradient);}.cls-2{fill:url(#linear-gradient-2);}.cls-3{fill:url(#linear-gradient-3);}.cls-4{fill:url(#linear-gradient-4);}.cls-5{fill:url(#linear-gradient-5);}.cls-6{fill:url(#linear-gradient-6);}.cls-7{fill:url(#linear-gradient-7);}.cls-8{fill:url(#linear-gradient-8);}</style><linearGradient id="linear-gradient" x1="-14.96" y1="97.79" x2="390.52" y2="12.77" gradientUnits="userSpaceOnUse"><stop offset="0.35" stop-color="#4a5378"/><stop offset="1" stop-color="#5f86ad"/></linearGradient><linearGradient id="linear-gradient-2" x1="-20.2" y1="72.79" x2="385.3" y2="-12.23" xlink:href="#linear-gradient"/><linearGradient id="linear-gradient-3" x1="-3.05" y1="154.57" x2="402.44" y2="69.55" xlink:href="#linear-gradient"/><linearGradient id="linear-gradient-4" x1="-5.2" y1="144.3" x2="400.29" y2="59.27" xlink:href="#linear-gradient"/><linearGradient id="linear-gradient-5" x1="-12.03" y1="111.74" x2="393.46" y2="26.72" xlink:href="#linear-gradient"/><linearGradient id="linear-gradient-6" x1="-15.01" y1="97.52" x2="390.48" y2="12.49" xlink:href="#linear-gradient"/><linearGradient id="linear-gradient-7" x1="-9.29" y1="124.79" x2="396.2" y2="39.77" xlink:href="#linear-gradient"/><linearGradient id="linear-gradient-8" x1="2.24" y1="179.81" x2="407.73" y2="94.78" xlink:href="#linear-gradient"/></defs><title>logo_color</title><g id="Layer_2" data-name="Layer 2"><g id="Layer_1-2" data-name="Layer 1"><path class="cls-1" d="M20.22,90.06A5.41,5.41,0,0,0,26,95.88c4.73,0,7.88-3,11.63-9.57-2.79-2.54-5.33-4.48-8.24-4.48C23.49,81.82,20.22,86.42,20.22,90.06Z"/><path class="cls-2" d="M68.93,15.3c-18.17,0-30,9.09-30,17.57,0,4.48,2.54,7.51,11.51,7.51h7.15l8.72-20.72h7.63L65.17,40.38h19L82,45.71H63L51.48,73.1A98.08,98.08,0,0,1,44.33,87c4.6,4.12,9.45,8.36,15.75,8.36,20.36,0,35.38-27.87,35.38-49.92C95.46,28.63,87.34,15.3,68.93,15.3Z"/><path class="cls-3" d="M638.18,35.68c0-4.71-1.45-6.11-6.23-6.11H542.38c-8.73,0-18.78.17-27.5-.06-2.18-.06-5.2-2.53-7.77-5.7S498.71,13.09,492.5,6.14s-10-7.29-15.18-4.5C470.4,5.4,456.46,42,456.46,42c-4.19,8.14-6.48,14.5-20.9,32.46L425,87.58c-1.7,2.18-4.24,4.36-5.94,4.36a1.59,1.59,0,0,1-1.7-1.7,10.92,10.92,0,0,1,.73-2.67l18.3-43.26h16.6l1.21-2.42H437.31L442,30.75h-7.15l-4.6,11.15H415.74l-1.09,2.42h14.42c-3.63,7.26-6.81,13.95-20.23,30.66h0c-4.36,5.45-7.15,7.51-10.06,8.12,3.15-5.33,5.09-11.27,5.09-16.24,0-7.63-4.24-9.81-7.15-9.81-5.33,0-12,8-12,16.48,0,4.36,1.45,8.6,5.33,10.66-4.36,6.3-9.21,11.27-12.72,11.27-2.67,0-4-2.79-4-5.69,0-9.33,5.33-23.51,17.45-34l-.49-.85c-10.24,3.83-18,11.73-21.47,20.74-4.07,5-6.76,6.91-9.55,7.49,3.15-5.33,5.09-11.27,5.09-16.24,0-7.63-4.24-9.81-7.15-9.81-5.33,0-12,8-12,16.48,0,4.36,1.45,8.6,5.33,10.66-4.36,6.3-9.21,11.27-12.72,11.27-2.67,0-4-2.79-4-5.69,0-9.33,5.33-23.51,17.45-34l-.49-.85c-10.32,3.86-18.17,11.85-21.55,20.95a54.74,54.74,0,0,1-25.7,17.59c11.87-6.91,22.9-20.84,22.9-31.5,0-5.57-3-7.15-5-7.15-2.91,0-5.57,2.54-9.45,6.3-4.36,4.36-16,21.32-17.21,23.14-.48.61-.85.85-1.21.85-.12,0-.36-.12-.36-.61a3.75,3.75,0,0,1,.24-1L318,25.54h-7.15l-7.39,17.69c-4.48,8.72-5.82,13.33-22.29,33.56l.05,0c-2.61,3.12-7.72,8-7.72,8l-3-2.44s3.56-9.18,3.56-14c0-7-2.42-11.63-2.42-12.84s2.67-4.12,2.67-5.21c0-1.7-1.45-2.06-2.42-2.06-3.64,0-8.12,4.48-8.12,8.12a4.68,4.68,0,0,0,.73,2.42,92.39,92.39,0,0,1-6.66,9l1.08,1.7c6.66-8.48,3.88-5,6.54-8.84A18.77,18.77,0,0,1,267.65,70a81.15,81.15,0,0,1-1.1,8.86L274.88,86a134,134,0,0,0,9.37-9.92l0,0a182.54,182.54,0,0,0,12.19-16.32l-13.93,33.2a9.2,9.2,0,0,0-.73,3.15,1.92,1.92,0,0,0,2.18,2.18c3,0,4.85-2.54,11.87-12,6.79-9.21,17.69-24,20.36-24,.85,0,1.33,1.21,1.33,2.79,0,7.88-9.94,25.69-25.81,31.5v1.09C300.33,96.41,314.29,94.57,328,80a27.25,27.25,0,0,0-.62,5.65c0,8.24,5.69,12.12,11.51,12.12,7.27,0,14.18-5.45,18.9-12.48C361,85,364,83.55,367.54,80a27.26,27.26,0,0,0-.63,5.68c0,8.24,5.69,12.12,11.51,12.12,7.27,0,14.18-5.45,18.9-12.48,3.7-.33,7.22-2.23,11.5-7.28h0a218.16,218.16,0,0,0,14.3-19L412,85.64c-1.7,3.88-2.54,5.94-2.54,7.88,0,2.79,2.54,4.12,5,4.12,3,0,6.54-2.06,10.3-6.79l12.6-15.39-.07-.06c6.28-7.81,9.77-12.8,12.07-16.3L437.68,86.85c-1.58,3.76-2.54,6.42-2.54,8.24s.85,2.54,2.79,2.54c2.18,0,4.36-1.7,7.39-6.3l19.51-29c.85-1.21,1.58-1.45,2.18-1.45a1.15,1.15,0,0,1,1.21,1.21A3.08,3.08,0,0,1,468,63L453.2,100.89c-1.7,3.88-2.67,6.42-2.67,8.36a3.5,3.5,0,0,0,.29,1.39l-2.07,1.68a13.82,13.82,0,0,1-9.13,3.25c-30.48-.06-315.38,8.83-307.86,8.83q113.47-.1,226.94,0,40.63,0,81.26,0a32.37,32.37,0,0,0,6.33-.74c3.79-.77,6.65-3.2,9.57-5.56,15.81-12.75,31.7-25.41,47.45-38.22a27.33,27.33,0,0,1,18.25-6.56c15.95.16,31.9-.07,47.85-.07,13.44,0,26.87.1,40.31.14,7.83,0,15.66,0,23.48,0a5.12,5.12,0,0,0,3.39-1,6.4,6.4,0,0,0,1.51-3.81C638.3,64.6,638.19,38.45,638.18,35.68ZM351.64,82.49c-2.91-1.7-4.24-5-4.24-9.21,0-7.15,5.94-13.81,8.84-13.81a2.73,2.73,0,0,1,2.91,3C359.16,67.58,355.89,75.58,351.64,82.49Zm39.5,0c-2.91-1.7-4.24-5-4.24-9.21,0-7.15,5.94-13.81,8.84-13.81a2.73,2.73,0,0,1,2.91,3C398.66,67.58,395.39,75.58,391.15,82.49Zm235.74-18q-31.8-.08-63.59,0h-8.64c-12.68,0-25.36-.19-38,.06-6.79.14-12.58,3.24-17.82,7.48-11.81,9.57-23.7,19-35.55,28.56l-3.82,3.07c.1-.29.21-.59.3-.87l15.5-40.45a10.78,10.78,0,0,0,1-4c0-2.3-1.7-3.51-4.73-3.51-3.39,0-6.18,2.91-11.27,10.42L447.85,83.7c-.48.85-1.09,1.21-1.45,1.21s-.36-.24-.36-.61a9,9,0,0,1,.24-1.33s26.55-65.14,28.92-68.48c3.41-4.8,2.62-6.76,8-6.89s22.94,29,28.31,30.19a33.63,33.63,0,0,0,7.42.63q44.16.06,88.32,0c6.51,0,13,.05,19.53,0,2,0,2.68.72,2.66,2.69-.07,7-.08,14,0,21C629.44,64,628.74,64.53,626.89,64.53Z"/><path class="cls-4" d="M273.46,84.85q-1.53-1.23-3-2.45a36.22,36.22,0,0,1-7.09,9.65A55.34,55.34,0,0,0,273.46,84.85Z"/><path class="cls-5" d="M241.41,26c-23.45,56-24.05,57.29-24.05,57.29a2.21,2.21,0,0,0-.24,1.09c0,.48.12.85.48.85s.85-.36,1.45-1.21L233,62.43c2.79-4.24,5.94-7.27,9.21-7.27,2.54,0,5.45,1.33,5.45,6.42,0,11.63-18.42,13-18.42,25.32,0,3.76,2.06,5.69,5,5.69s5.82-2.54,7.51-4.73l16.12-20.05c-9-14-14-18.87-14-32.61A20.84,20.84,0,0,0,241.41,26Z"/><path class="cls-6" d="M288.36,95.77c-1.72,1.82-2.93,2.46-4.45,2.46a1.92,1.92,0,0,1-2.18-2.18,9.2,9.2,0,0,1,.73-3.15l.4-1c-2.76-2-5.45-4-8-6-6.9,6-13.94,9.75-20.07,11.41a16,16,0,0,1-4,.61c-1.82,0-4-.36-4-2.54,0-2.42,4.36-7.27,6.91-7.27,3.15,0,0,4.73,2.3,4.73,4.72,0,10.53-14,10.53-14s-5-5.19-6.45-7.47l-1.18-1.87L241,91.88c-3.88,4.73-6.79,6.06-10.3,6.06s-7-3.27-7-8c0-6.42,5.82-11.75,10.9-16.24S241,65.46,241,62.07a2,2,0,0,0-1.7-2.18c-1.33,0-2.79,1.58-3.51,2.79L216.51,91.51c-3.15,4.48-5.09,6.42-7.88,6.42-1.82,0-2.42-1-2.42-2.54,0-1.82,1-4.6,2.54-8.24L220.27,59.4a219.92,219.92,0,0,1-14.18,18.9h0l-11,13.57c-3.88,4.73-6.42,6.06-9.45,6.06-2.42,0-4.12-1.45-4.12-3.64,0-1.94,1-4.48,2.67-8.36l9.57-22.66a2.36,2.36,0,0,0,.12-.85,1.12,1.12,0,0,0-1.09-1.21,2.51,2.51,0,0,0-2.18,1.45l-19.51,29c-3.15,4.6-5.33,6.3-7.51,6.3-1.82,0-2.67-.85-2.67-2.54s1-4.48,2.54-8.24L173.25,64a1.32,1.32,0,0,0,.12-.61.68.68,0,0,0-.61-.73c-.48,0-.73.24-1.09.73l-10,12.29.08.06L148.66,91.88c-3.88,4.73-6.42,6.06-9.45,6.06-2.42,0-4.12-1.45-4.12-3.64,0-1.94,1-4.48,2.67-8.36L147.2,64a1.32,1.32,0,0,0,.12-.61.68.68,0,0,0-.61-.73c-.48,0-.73.24-1.09.73L133.87,77.82l-.06,0-11.45,14.1c-3.88,4.73-6.18,6.06-9.21,6.06-2.42,0-4-1.45-4-3.64,0-1.94,1-4.48,2.67-8.36l8.24-19.75a20.27,20.27,0,0,0,1.7-5.09c0-.49-.36-.61-.73-.61a18,18,0,0,1-3.39-.36C115,64,110.85,69.46,103.82,78.31l-1.45-1.21c5.94-7.51,10.18-13.09,13.33-17.57a4.48,4.48,0,0,1-3.15-4.36c0-1.82,2.06-6.91,5.94-6.91,1.58,0,3.27.85,3.27,2.79,0,1.33-.73,3.51-3.27,6.42a8.25,8.25,0,0,0,3.39.48c1.45,0,2.67-.12,3.76-.12,2.18,0,3,1.33,3,2.67a19,19,0,0,1-1.45,5.57L118,87.88a8.51,8.51,0,0,0-.61,2.18c0,.85.48,1.09,1.21,1.09,1.09,0,2.79-1.09,4.48-3.27L134,74.55l.11.09,11.64-14.39c2.06-2.54,4.24-4.85,6.66-4.85a3,3,0,0,1,3.27,3,15.94,15.94,0,0,1-1.45,5.45l-9.94,24a8.5,8.5,0,0,0-.61,2.18c0,.85.48,1.09,1.21,1.09,1.09,0,2.79-1.09,4.48-3.27l10.78-13.33,0,0L171.8,60.25c2.06-2.54,4.24-4.85,6.66-4.85a3,3,0,0,1,3.27,3,15.94,15.94,0,0,1-1.45,5.45L172,83.27a3.16,3.16,0,0,0-.36,1.33.55.55,0,0,0,.48.61c.36,0,.85-.36,1.45-1.21L186,65.58c5-7.51,7.75-10.42,11.27-10.42,3,0,4.6,1.21,4.6,3.51a13.77,13.77,0,0,1-.85,4l-10.3,25.2a8.5,8.5,0,0,0-.61,2.18c0,.85.49,1.09,1.21,1.09,1.09,0,2.79-1.09,4.48-3.27l10.78-13.33.07.05C220.73,57,223.24,50.68,227.17,42.68l7.15-16.84h7c-5.65-11.15-18.86-20.37-18.86-20.37H11.35A11.16,11.16,0,0,0,0,16.44v88.72a9.42,9.42,0,0,0,9.58,9.25H318.27S303.32,106,288.36,95.77ZM186,71.14l-2,2.15ZM161.26,32c2.3,0,3.76,1.94,3.76,4.24,0,2.54-1.82,5.45-4.73,5.45-2.3,0-3.88-2.18-3.88-4.36A5.14,5.14,0,0,1,161.26,32ZM60.32,99c-8.24,0-13.81-4.36-18.42-8.6-4.6,5.69-9.57,8.36-15.39,8.36-4.24,0-9.21-2.54-9.21-8.48,0-6.3,5.57-11.75,13.09-11.75,3.27,0,6.18,1.7,9.09,4.24,2.42-4.85,5-11,8.24-18.78l7.63-18.3h-7c-7.88,0-16-3.27-16-10.78,0-10.78,14.66-21.81,37.56-21.81,17.21,0,33.93,12.6,33.93,34.53C103.82,70.55,84.68,99,60.32,99Z"/><path class="cls-7" d="M257.84,67.81h0l1.09,1.7h0Z"/><path class="cls-8" d="M625.44,44.25c0-1.46-.55-2.12-2-2.12-6.33,0-12.67,0-19,0-2.36,0-3.58,1.32-3.59,3.69q0,5.7,0,11.4c0,2.47,1.22,3.68,3.73,3.71,3.05,0,6.1,0,9.16,0,3.22,0,6.45,0,9.67,0,1.42,0,2.09-.51,2.07-2C625.39,54,625.4,49.14,625.44,44.25Z"/></g></g></svg>