<svg xmlns="http://www.w3.org/2000/svg" viewBox="0 0 185.42 99.73"><defs><style>.cls-1{isolation:isolate;}.cls-13,.cls-2,.cls-3,.cls-4,.cls-5{fill:#5F86AD;}.cls-3{font-size:17.95px;}.cls-13,.cls-3,.cls-4,.cls-5{font-family:OpenSans, Open Sans;}.cls-4{font-size:17.95px;}.cls-5{font-size:17.95px;}.cls-11,.cls-6,.cls-8,.cls-9{fill:none;}.cls-11,.cls-6,.cls-7,.cls-8,.cls-9{stroke:#5F86AD;}.cls-6,.cls-9{stroke-miterlimit:10;}.cls-6{stroke-width:0.75px;}.cls-10,.cls-7{fill:#fff;}.cls-11,.cls-7,.cls-8{stroke-linecap:round;stroke-linejoin:round;}.cls-8{stroke-width:3px;}.cls-11{stroke-dasharray:1.93 2.9;}.cls-12{mix-blend-mode:multiply;}.cls-13{font-size:11.98px;}</style></defs><title>Empty shopping cart</title><g class="cls-1"><g id="Layer_1" data-name="Layer 1"><path class="cls-2" d="M36.06,76.41H23.41c-1.4,0-3,0-2.86-2,.13-1.73,1.73-1.42,2.89-1.43q13.06,0,26.12,0c1.18,0,2.74-.24,2.85,1.49.13,2-1.51,1.9-2.88,1.9C45,76.42,40.55,76.42,36.06,76.41Z"/><path class="cls-2" d="M53.91,87.12c-2,0-4.08,0-6.11,0-1,0-1.91-.44-1.82-1.68A1.52,1.52,0,0,1,47.68,84q6.52-.05,13,0c1,0,2,.45,1.83,1.67s-1.1,1.42-2.12,1.42H53.91Z"/><path class="cls-2" d="M33.74,99.33c-2,0-4.06,0-6.09,0-.88,0-1.66-.36-1.76-1.3s.7-1.46,1.55-1.47q6.29-.06,12.58,0c.78,0,1.71.22,1.76,1.27.05,1.32-1,1.46-2,1.48C37.8,99.36,35.77,99.33,33.74,99.33Z"/><path class="cls-2" d="M39.2,87.15c-1.19-.06-2.71.08-2.66-1.6S38.1,84,39.29,84s2.7-.11,2.65,1.6S40.38,87.09,39.2,87.15Z"/><path class="cls-2" d="M2.54,73.56c1.36.23,3.11-.23,3,1.59s-1.83,1.22-3,1.24S.05,76.71,0,75.14C-.06,73.17,1.76,74,2.54,73.56Z"/><path class="cls-2" d="M16.8,96.48c1,.11,2.35-.09,2.32,1.47,0,1.18-1.06,1.39-2.05,1.38s-2.32,0-2.34-1.48C14.72,96.55,15.85,96.59,16.8,96.48Z"/><path class="cls-2" d="M12.92,76.44c-1.23-.11-2-.68-2-1.73,0-1.33.93-1.86,2.13-1.78a1.62,1.62,0,0,1,1.63,1.87A1.71,1.71,0,0,1,12.92,76.44Z"/><path class="cls-2" d="M149.36,76.8H162c1.4,0,3,0,2.86-2-.13-1.73-1.73-1.42-2.89-1.43q-13.06,0-26.12,0c-1.18,0-2.74-.24-2.85,1.49-.13,2,1.51,1.9,2.88,1.9C140.38,76.81,144.87,76.8,149.36,76.8Z"/><path class="cls-2" d="M131.51,87.5c2,0,4.08,0,6.11,0,1,0,1.91-.44,1.82-1.68a1.52,1.52,0,0,0-1.71-1.38q-6.52-.05-13,0c-1,0-2,.45-1.83,1.67s1.1,1.42,2.12,1.42h6.52Z"/><path class="cls-2" d="M151.68,99.71c2,0,4.06,0,6.09,0,.88,0,1.66-.36,1.76-1.3s-.7-1.46-1.55-1.47q-6.29-.06-12.58,0c-.78,0-1.71.22-1.76,1.27-.05,1.32,1,1.46,2,1.48C147.62,99.75,149.65,99.72,151.68,99.71Z"/><path class="cls-2" d="M146.22,87.54c1.19-.06,2.71.08,2.66-1.6s-1.56-1.54-2.75-1.53-2.7-.11-2.65,1.6S145,87.48,146.22,87.54Z"/><path class="cls-2" d="M182.88,74c-1.36.23-3.11-.23-3,1.59s1.83,1.22,3,1.24,2.49.32,2.54-1.26C185.48,73.56,183.66,74.39,182.88,74Z"/><path class="cls-2" d="M168.62,96.87c-1,.11-2.35-.09-2.32,1.47,0,1.18,1.06,1.39,2.05,1.38s2.32,0,2.34-1.48C170.7,96.94,169.57,97,168.62,96.87Z"/><path class="cls-2" d="M172.5,76.83c1.23-.11,2-.68,2-1.73,0-1.33-.93-1.86-2.13-1.78a1.62,1.62,0,0,0-1.63,1.87A1.71,1.71,0,0,0,172.5,76.83Z"/><text class="cls-3" transform="matrix(0.95, 0.31, -0.31, 0.95, 134.5, 48.15)">+</text><text class="cls-4" transform="translate(60.6 17.05) rotate(-10.94)">+</text><text class="cls-5" transform="translate(32.21 40.9)">+</text><polygon class="cls-6" points="57.99 37.43 54.68 44.38 50.55 37.66 57.99 37.43"/><polygon class="cls-6" points="105.31 20.91 105.41 13.21 111.97 17.58 105.31 20.91"/><circle class="cls-7" cx="29.13" cy="53.5" r="3.41"/><circle class="cls-7" cx="21.55" cy="86.1" r="3.41"/><circle class="cls-7" cx="80.65" cy="20.64" r="2.09" transform="translate(-2.56 23.33) rotate(-16.21)"/><circle class="cls-7" cx="119.31" cy="16.85" r="2.09" transform="translate(0.04 33.98) rotate(-16.21)"/><path class="cls-8" d="M90.08,79.93a8.5,8.5,0,0,1,9.12.94"/><circle class="cls-2" cx="84.8" cy="71.38" r="1.58" transform="translate(-16.55 26.51) rotate(-16.21)"/><circle class="cls-2" cx="102.52" cy="71.38" r="1.58" transform="translate(-15.85 31.46) rotate(-16.21)"/><path class="cls-9" d="M64.12,91.08,68,47.3A1.92,1.92,0,0,1,70,45.55h4.26a1.17,1.17,0,0,0,1.16-1.13A17.12,17.12,0,0,1,92.25,28a17.13,17.13,0,0,1,17.27,16.24,1.38,1.38,0,0,0,1.39,1.28h4.51a1.41,1.41,0,0,1,1.4,1.28l4,44.23a1,1,0,0,1-1,1.06H65.06A.94.94,0,0,1,64.12,91.08Zm40.35-45.56a1.43,1.43,0,0,0,1.33-1.95,14.24,14.24,0,0,0-26.71.08,1.41,1.41,0,0,0,1.34,1.87Z"/><circle class="cls-10" cx="67.35" cy="69.52" r="9.23"/><circle class="cls-11" cx="67.35" cy="69.52" r="9.23"/><g class="cls-12"><text class="cls-13" transform="translate(64.03 73.98)">0</text></g></g></g></svg>