<svg xmlns="http://www.w3.org/2000/svg" viewBox="0 0 3427.59 581.64"><title>Asset 2</title><path d="M879.29,146.87c10.77-9.11,22-17.79,30.17-29.64a242.1,242.1,0,0,1-9.58,44.12c-2,6.37-4,12.86-7,18.77C887.72,190.2,882.5,200.32,875,209c-2.6,3-5.83,5.18-8.84,7.67a2.24,2.24,0,0,0-1.63,1.37c-.34.17-1.14.06-.82.67.21.42.85.19,1.12-.32l1.33-.42c9.22-3.05,17.82-7.49,27.3-12.23-4.08,10-8.22,19.07-13.55,27.57-7.91,12.6-18.22,23.15-29.33,32.78a226.39,226.39,0,0,1-44.42,29.76c-26,13.48-53.41,23.3-81.72,30.61a630.27,630.27,0,0,1-96.34,16.78c-3.28.32-6.56.63-9.83,1-2,.21-4.09.31-4.93,2.57-.93,2.5.46,4.42,2.06,6,5.17,5.11,9.39,11.07,14.4,16.27,6,6.17,10.78,13.18,16.17,19.76,2.39,2.91,4.66,5.92,7,8.85-1.54.51-2.82-.68-4.22-1.26-7.15-2.95-14.34-5.84-21.41-9a6.83,6.83,0,0,0-6.36.44c-2.35,1.19-2.64,2.82-.67,4.63,3.1,2.85,6,6,9.44,8.4,5.17,3.68,9.59,8.18,14.34,12.3,9.83,8.53,19.35,17.43,29.48,25.58,10.85,8.73,20.37,19,31.78,26.8-.73,1.72-1.8,1.1-2.58,1.06-18-.95-36.1-.93-54.06-2.94-1.82-.21-3.91-.41-5,1.4s.33,3.64,1.44,4.95c10.18,12.06,18.89,25.22,28.56,37.65,7,9,13.18,18.61,20.19,27.6,3.18,4.08,6.62,7.94,9.5,12.84-3.45-1-6.49-1.73-9.47-2.69q-29.79-9.66-59.55-19.38c-4.49-1.46-9-2.85-13.57-4.09-1.6-.44-3.59-.88-4.84.62s-.31,3.29.45,4.81c4.59,9.32,8.76,18.89,14,27.84,4,6.79,6.85,14,11.13,21.77-5-2.23-9.12-4-13.16-5.9-19.9-9.51-39.72-19.21-59.7-28.55-8.55-4-17.09-7.91-25.15-12.84-1.22-.75-2.65-2.43-4.16-.89-1.3,1.33-.18,3.09.36,4.47,4.29,10.94,9,21.72,12.23,33,1.39,4.89,3,9.73,4.72,15.33-5.39-2.87-10.11-5.26-14.71-7.86-11.77-6.67-23.45-13.49-35.23-20.16-11.42-6.46-23.41-12.07-34.21-19.45-7.76-5.3-13.63-3.86-20.86.23-18.76,10.6-37.67,21-56.82,30.83-8.83,4.56-17.2,10.06-27.26,13.93,1.27-3.37,2.07-6.38,3.48-9.08,5.69-11,9-22.85,13.59-34.22.84-2.06,1.1-4.32-.61-5.92s-3.76-.12-5.43.74c-8.62,4.46-16.69,9.87-25.62,13.82-22,9.72-43.77,19.79-65.65,29.69-2,.9-4.05,1.59-6.4,2.49,1.13-4.4,4.15-7.22,6-10.7q8.55-16.23,17-32.49a9,9,0,0,1,1.54-2.73c1.86-1.6,2.56-3.72,1.2-5.46s-3.77-1.32-5.89-.73q-27.56,7.62-55.12,15.16c-7.44,2-14.93,3.93-23.44,6.16,7.24-9.18,12.63-18.44,19.73-26.54,3.72-4.24,6.62-9.18,10-13.75q11.88-16.17,23.85-32.28a20.07,20.07,0,0,0,1.37-1.93c1.25-2,3.38-4.09,1.85-6.39s-4.41-1.09-6.63-.66c-17.67,3.41-35.59,3-54,3.87,10.33-9.12,20.11-17.89,30.15-26.39,11.55-9.76,22.59-20.12,34.22-29.78,6.47-5.38,12.56-11.16,19-16.5,2.44-2,2.26-4,.87-6.15s-3.44-1.34-5.2-.32c-7.77,4.5-16.37,7.13-24.51,10.81l-.12-1.55c10.66-12.65,21.2-25.41,32.06-37.9,2.81-3.24,6.28-5.94,8.05-10s.82-5.67-3.79-6A565.7,565.7,0,0,1,201,326.86a420.71,420.71,0,0,1-65-22.65,286.19,286.19,0,0,1-42.1-23.08A196.67,196.67,0,0,1,47.9,239a144,144,0,0,1-17.35-29.31A17.23,17.23,0,0,1,30,207.8c1.57-.39,2.43.58,3.36,1.1,10.08,5.68,20.58,10.52,31.1,15.28a41.49,41.49,0,0,0,4.86,1.53l1.27.36h.69c-.14.67.18.63.62.4l-.61-.41a.64.64,0,0,0-.72-.72.77.77,0,0,0-.66-.3C35,196.43,15.47,160.06,14.4,114.4a233.19,233.19,0,0,0,15.51,19c5.32,6,10.47,12.19,17.79,15.89-3.56-3.3-5.65-7.58-8.09-11.56-5-8.08-8.64-16.82-12.61-25.42C14.32,84.82,9.19,55.38,3.85,25.92,2.36,17.71,1.25,9.51,0,.56,8.33,7.45,14.56,15.46,21.85,22.4,36.39,36.27,50.8,50.31,66.29,63.1,77,71.93,87.62,81,99.92,87.72c3.57,2,7,4.19,10.87,5.53a.8.8,0,0,0,1,.58l.17-.07a.73.73,0,0,0,.3-.59c0-.87-.76-.75-1.33-.81a101.31,101.31,0,0,1-15.31-35c.84-.62,1.13-.06,1.44.27,9,9.62,20,16.68,31.54,22.72C145.27,89.1,163.29,93.74,182,95.62c21.22,2.12,42.47,4,63.66,6.36a136.64,136.64,0,0,1,40.71,10.48,52.61,52.61,0,0,1,18.09,13.12c2,2.2,6.82,2.38,8.89.29,2.38-2.39.25-4.24-.92-6.23-2.9-5-7.87-8.37-10.31-13.69a2.56,2.56,0,0,0,.46-.62C314,112.51,321,123.19,327,135.05c4.26,8.49,5.71,17.28,6,26.48a4.79,4.79,0,0,0,4.12,5c2.74.52,3.47-2.08,3.85-4.09,1.15-5.93,3.19-10.84,9.35-13.56,3.79-1.67,3.3-6.12-.56-8A4.67,4.67,0,0,1,347,137.8a74.65,74.65,0,0,0-3.52-12.8c3.39,2.7,7,4.73,10.49,7,2.89,1.93,4.19,1.26,4.56-2.2a7.66,7.66,0,0,0-1.8-5.88c-2.49-3-5.24-5.84-7.42-9.06a20.12,20.12,0,0,1-3.2-12.42c.36-8.11,4.11-14.7,9.52-20.48,1-1.08,2.3-2,3.86-1.49s1.37,2.09,1.58,3.33a27.08,27.08,0,0,0,2.14,8,15.72,15.72,0,0,0,14.08,9.2c10.13.38,20.3.06,30.3,2.14a2.69,2.69,0,0,0,2.95-1.48c2-3,5-3.5,8.22-3.74a56.67,56.67,0,0,1,12.62.37,5.68,5.68,0,0,0,2.32.18c9.27-2.81,17.88-1.92,25.63,4.3,2.91,2.33,5.5,1.53,8.14-.68,3.83-3.2,8.2-5.61,13.33-5,7.08.89,14.19-.22,21.22.72a18.35,18.35,0,0,1,9.08,3.57,6.62,6.62,0,0,0,6,1.07,75.18,75.18,0,0,1,24.3-1.45c6.43.58,12-1.57,16-6.83,2.73-3.62,6.15-6.85,6.81-11.8.29-2.15,2.28-1.81,3.81-1.16a8.43,8.43,0,0,1,4.57,5.7c4.11,13.65,4.54,27-4.33,39.22a3.81,3.81,0,0,0-1.11,2.46c.09,1.64-.77,3.83,1.07,4.66,1.67.75,2.71-1.19,3.75-2.29,1.9-2,3.67-4.12,5.5-6.2l1.39.09c-1.29,6.69-2,13.53-6.46,19.22-1.53,2-.28,3.71,1.74,4.8,5.41,2.9,8.53,7.25,8.78,13.53.09,2.42,2,3.38,4,3.5,2.48.14,2.34-1.93,2.56-3.62a96.75,96.75,0,0,1,13.82-39.13,48.83,48.83,0,0,1,16.14-15.73,2.37,2.37,0,0,0,.59.45c-2.36,4.11-5.06,8-6.63,12.54-.49,1.39-1.42,3.41.38,4.27,1.55.76,3.85,1,5.21-.5,11.06-12.28,26.45-14.36,41.29-17.46,17.45-3.64,35.22-4.7,53-5.53,22.89-1.07,45.22-5,66.77-12.89,14.79-5.42,28.8-12.19,39.68-24.07,1.87-2,3.56-4.23,5.33-6.35l.09,2.87a218.44,218.44,0,0,1-9.73,31.43l-.77,1c-.44.22-.57.59-.1.78a.9.9,0,0,0,1.16-.68,1.87,1.87,0,0,0,.38-.46Q829.68,83.18,843,73c15.67-11.93,31.18-24,46.16-36.82,7.51-6.42,14.39-13.41,21.61-20.08A76.76,76.76,0,0,0,923.85,0c-1.11,12.55-2.83,24.13-4.92,35.66-1.34,7.37-2.46,14.83-4.58,22-6.44,21.7-11.9,43.77-22,64.17-4.11,8.28-9.06,16.14-13.63,24.19a1.23,1.23,0,0,0-.68,1.35l-.24.1c-.55.09-.69.47-.68,1-.37.18-.73.36-.18.76.13-.2.26-.4.4-.59l.94-.64.71-.73a.52.52,0,0,0,.3-.4ZM318.8,403.27l.58-.22-.35-.32c-.07.2-.13.39-.2.58l-1.15.44L233,460.81h3.74c12.48-.67,25-1.7,37.44-1.88,5.19-.07,8.06-2,9.81-6.45,1.75-.13,2.22-1.68,3-2.81,7-9.62,13.13-19.83,20.62-29.13,3.31-4.1,6.83-8.27,8.71-13.39v.07c1.23-.32,1.59-1.28,1.72-2.4a.81.81,0,0,0,.07-.59.78.78,0,0,0,.71-.85.52.52,0,0,0,0-.11Zm-8.66-109.16a2,2,0,0,0-.22-.29h-.21l.48.24a.89.89,0,0,0,.43,1.17h0l.45.89c7.82,12.35,19.44,19.51,32.92,24.14a24.15,24.15,0,0,0,8.06,1.61c2.61,1.37,5.43.58,8.15.74a23.91,23.91,0,0,0,5.07.23c13-.58,26-4.06,39.14,1-1.66-5.6-3.28-10.56-6.38-14.94-1.81-2.55-.75-4.87,2.36-5.35a8.83,8.83,0,0,1,6.39,1.47,53.88,53.88,0,0,0,7.4,4.53A28.9,28.9,0,0,1,429.79,326c2.43,6.08,3.28,12.41,3.71,18.86.54,8.18-.86,16.29-.75,24.44l-.37.32c.08,0,.18,0,.22-.05a1.15,1.15,0,0,0,.11-.31c1.82-2.33,4.11-4.43,5.36-7,4.12-8.55,6.2-17.53,4.31-27.1a40.86,40.86,0,0,1-.8-5.83c-.07-1.21-.68-2.92,1-3.43,1.33-.4,2,1,2.66,2a26.64,26.64,0,0,1,4.13,9.28c1.69,7.07.53,14.09-.05,21.13v-.07c-.82.38-.72,1.13-.76,1.84l.45,1,.41-1.08c5.52-6.52,7.24-14.75,9.2-22.6s1.75-16.14,1.66-24.29c.05-.52.13-1.05.13-1.57,0-4.21.77-9.16-2.13-12.18-5.55-5.75-11.91-10.8-20.61-11.21a36.68,36.68,0,0,1-7.8-1.11c-9.43-2.58-20.09-2.68-25.95-12.73-1.13-1.93-3.28-2.09-5.15-.51s-1.85,3.67-.32,5.54,3.82,3.24,5,5.5c.76,1.39,1,2.66-.24,3.94s-2.44.48-3.52-.25c-6.63-4.48-13.5-8.6-19.5-14-8.93-8-17.92-15.9-22-27.74-.31-1.14-.62-2.28-1.08-3.93-.62,1.72-.77,2.81.07,3.82,1,8.7,3,17.16,7,25l-.62.61c-2.83-1.35-4.82-3.68-6.64-6.07-6.7-8.84-11.83-18.5-14.47-29.36-1.12-4.58-2.3-9.15-3.45-13.72a108.61,108.61,0,0,0,3.73,38.76c3.56,12.86,11.2,23.33,19.38,33.61-1.32.51-2.08-.22-2.9-.53-13.58-5.09-24.7-13.93-34.65-24.07s-17.36-22.3-23.64-35.06c-1.27-2.59-2.29-5.3-3.43-7.95,0-.71.14-1.47-.75-2.12a3.2,3.2,0,0,0-.05,2.54c1,6.88,1.89,13.78,3.05,20.63,1.3,7.63,2.65,15.39,5.82,22.41,4.16,9.19,7.43,19,15.64,26.43-4,.37-6.68-1-9.45-2.19l-.93-.64ZM539.46,516.43c0,.55.37.72.85.72q14.51,7.5,29,15c12.69,6.64,25.33,13.39,38,20,3.35,1.75,6.87,3.16,10.32,4.72.15.16.3.32.46.46l.26-.23-.52-.41c-2.57-6.18-6.55-11.54-10-17.23-6.37-10.6-12.31-21.46-18.21-32.33-1-1.9-3.58-3-3.49-5.61a5.54,5.54,0,0,1,3.71.5c7.64,2.81,15.31,5.56,23,8.37q29.6,10.88,59.17,21.8a10.1,10.1,0,0,0,4.19.95c.18.16.46.47.51.43.52-.35.17-.57-.17-.77-.24-2.21-2.4-3-3.5-4.53-7.54-10.87-14.71-22-22.46-32.71-13.35-18.49-25.69-37.71-38.89-56.32-3.68-5.19-7.21-10.54-11.28-15.47v.08l-.85-1.26c-.16-1.69-1.35-2.74-2.43-3.86-1-.68-1-2.34-2.68-2.66.43,8.65.8,17,1.26,25.38.51,9.31,1,18.61,1.69,27.9.36,4.88.56,4.81-3.89,3.18l-38.44-14c-.81-.3-1.68-1.15-2.51-.3-.66.67,0,1.49.25,2.2,1.69,6.2,3.54,12.36,5.1,18.59,1.26,5.06,3.61,9.87,3.67,15.22-11.93-11.26-24.36-22-35.87-33.69-2.38-2.42-5.19-4.41-8.71-7.36.75,2.46,1.16,3.68,1.49,4.92,2.66,10,7.28,19.3,10.2,29.24,2.46,8.41,4.82,16.91,8.3,25a5.26,5.26,0,0,0,1,3.33c.23.76.83.81,1.48.76ZM607.61,408a1.16,1.16,0,0,0,.57,1.54l.26.08v-.05c.17,2.53,2.64,3.4,3.84,5.22,8.78,13.39,18.19,26.34,27.83,39.12,1.74,3,3.12,6.08,7.63,6.21,13,.36,26,1.16,39,1.73.9,0,2.07.69,2.84-.68-1.09-.79-2.13-1.59-3.21-2.32-13.37-9.05-26.76-18.05-40.1-27.14-11.4-7.76-22.73-15.62-34.08-23.45a8.79,8.79,0,0,0-4.59-1.87v.08c.22-.76-.35-1-.84-1.23-.79-1.09-1.63-2.11-3.19-1.91l-.29-.23.33.19a11.12,11.12,0,0,0,2.77,4Zm-280.88,9.57v-.07a8.05,8.05,0,0,0-2.44,3.63L247.65,531.72l.5.64,89.78-32.68c-10.63,19.09-21.5,37.74-32,56.88,8.25-4.23,16.31-8.3,24.33-12.47q25-13,50-26.09c1.23-.65,2.75-1,3.5-2.35h-.07a2.08,2.08,0,0,0,2-.84,5.42,5.42,0,0,0,1.16-3.59c4-11.2,8.46-22.24,12-33.62,2.55-8.25,5.25-16.45,7.88-24.67l-.57-.34-44.81,41.8c1.32-4.75,2.34-8.52,3.42-12.28,2.2-7.7,4.4-15.4,6.69-23.07.23-.76,1.61-1.28.77-2.28s-1.7-.06-2.51.23l-33.28,12.27c-2.71,1-5.45,1.92-8.16,2.94-1.83.69-2.38.07-2.1-1.77,1.47-9.81.8-19.76,2.6-29.63,1.57-8.66,1.14-17.69,1.58-26.32l-2.9,2.27ZM550.6,193.64l-.87.75c-4,6.2-8.55,11.62-16.23,13.3-3.84.83-7.65,1.86-11.52,2.54-3.5.61-5.65,2.23-6.47,5.84a90.66,90.66,0,0,0-2.14,11.2c-.5,5.35-.91,10.72-1.64,16-1.19,8.74-6.47,14-14.66,16.75-.73,0-1.51,0-1.86.86-1.67,0-3.3-.2-1.23-2.21s3.85-4.19,6.23-5.4c7.51-3.83,8.79-10.73,9.12-17.91A125.14,125.14,0,0,1,512,215.52c1.16-5.54,4.85-9,10.09-10.61a42.21,42.21,0,0,1,9.63-1.88A11.74,11.74,0,0,0,542,196.67c-2.89.46-4.81,1.64-7,1.88-7.56.8-15.11,1.62-22.26,4.64-4.76,2-7.85,5.11-8.63,10.3a56.21,56.21,0,0,0,.22,19.19c.41,2.14,1.91,5-1.06,6.26s-4.74-1.16-6.17-3.48a3.89,3.89,0,0,0-.82-.75c-.59,2,.06,3.87.62,5.53,2.15,6.36-.47,10.84-5,15C487,259.79,481.39,263,475.49,266c-6.85,3.47-12.16,12.5-11.44,19.63,2.53-4.24,5.95-6.82,9.64-9.11,4.76-3,10.27-4,15.31-6.19,4-.83,7.91-1.78,11.91-2.45,6.44-1.1,13.08-1.42,19.35-3.13,11.42-3.11,20.35-10.72,29-18.32,7.08-6.22,12.53-14,17.64-21.87,1.57-.81,1.86-2.48,2.44-3.88a68,68,0,0,0,4.84-35.7c-.86-6.56-2-13.17-5.31-19.1-.36-1.06-.71-2.13-1.07-3.19a2.27,2.27,0,0,0-.52,1.89c2,10.31-1.15,19.86-4.35,29.39a18,18,0,0,1-4.6,7.25c-1.19,1.14-2.5,2.12-4,.27.2-1.42.32-2.86.63-4.26a67.08,67.08,0,0,0,1.5-21.74c-1.17,6.32-4.42,11.93-6,18.12Zm-176.43,0c.05-3.94-3.65-6.23-4.34-9.9-.52-2.75-1.54-5.41-2.49-8.63-1.26,9.39.82,17.87,2.17,26.41-1.23,2.28-2.47,1.18-3.7,0-3.56-3.38-5.42-7.75-6.58-12.36-2.18-8.67-3.31-17.47-2.19-26.56l-1.19,2.75c-4.35,9.45-5.59,19.61-7,29.76-.38,2.88,1.36,5.16,1.67,7.9.88,7.68,2.78,15.16,7,21.82,1,1.72,1.81,3.5,2.9,5.13,6.18,9.28,14.4,16.63,22.95,23.6,6.57,5.37,13.89,10.23,22.1,11.63,9.8,1.67,19.69,2.87,29.4,5.14,9.91,2.67,18.84,7.09,26.54,15.69-1.21-8.7-5.07-14.57-11.11-18.86-4.58-3.26-9.59-5.92-14.49-8.72-7.24-4.15-10.07-10.08-8.74-18.33.27-1.74,1.21-3.45.36-5.8-.33.56-.51.9-.71,1.22-1.27,2-2.6,4.49-5.45,3.34-3.24-1.32-1.3-4.08-.94-6.2a54.69,54.69,0,0,0-.4-21.48c-.74-3.17-2.71-5-5.6-6.63-10.11-5.55-21.68-4.63-32.32-7.75l-.23-1-.32.17.58.84c2.31,5.06,6.82,6.08,11.72,6.31,9,.44,16,4.56,17.63,11.27,1.72,7.17,3.47,14.37,3.89,21.81.38,6.74,2.1,12.9,8.29,17A37.83,37.83,0,0,1,430,259c1.74,1.84.1,1.94-1.31,2-.36-.88-1.15-.83-1.89-.85a47.24,47.24,0,0,1-5.21-2.77c-5.22-3.68-8.84-8.41-9.54-15-.75-7-1.43-14.09-2.47-21.08-1.36-9.16-1.91-10-11.36-11.69-10.06-1.78-18.63-5.29-23.3-15.12Zm-246-25.29-.33-.19.34.18c2.08,5.75,7.18,8,12.16,10.23,7,3.12,14.52,1,21.88,1.34-11.81-2.6-22.73-7.68-34.05-11.56ZM475.43,356.59a50.46,50.46,0,0,0-.46-7.47,31.4,31.4,0,0,1,3.13-17.62c1.13-2.22,3.27-5.89,5.1-5.21,2.35.87.61,4.63.77,7.14a2.63,2.63,0,0,1-.06.39c-2.22,12.25.37,23.52,7,34,.41.64.5,1.89,1.78,1.53a39.82,39.82,0,0,0,0-4.37,111,111,0,0,1,.21-29.13c1-6.72,3-13.27,7.83-18.22,5.29-5.37,12.11-8.76,18.44-12.76a9.68,9.68,0,0,1,5.69-1.3,4.79,4.79,0,0,1,4.09,2.69c.93,1.57-.73,2.28-1.25,3.39-2.25,4.79-6.07,8.9-6.32,14.56l-.22.25.18-.3c9.54-3.88,19.44-2.37,29.26-2,4.59.18,9.09,1.61,13.73.95a45.7,45.7,0,0,0,9.9-1c19-2.31,38.58-19.63,40.85-27.29a16.43,16.43,0,0,1-10.86,3c4.43-5.14,8.78-9.65,11.26-15.55a145.46,145.46,0,0,0,6.32-17.81A173.87,173.87,0,0,0,625.89,246c1-6.08,2.17-12.13,2-18.35-5.62,13.11-12,25.53-21.27,36.57a116.25,116.25,0,0,1-34.88,28.44,25.69,25.69,0,0,1-7.33,2.76l-.6-.78c1-2.55,3.72-3.53,5.27-5.67,13.82-19.09,18.15-40.74,17.61-63.76,0-.53-.14-1-1-1.09-2.48,11.68-5.68,23.16-11.33,33.81-3,5.75-6.75,10.88-12.56,14.16l-.75-.55c5.49-12.17,7.88-20.62,7.22-26.68-.52,2.72-2.08,4-2.91,5.71-8.55,17.36-24.2,27.35-39.22,38-1.55,1.09-3.34,1.46-4.54-.28s-.43-3.26,1-4.53a54.67,54.67,0,0,0,4.69-4.18c1.57-1.73,2-3.8.12-5.64s-3.83-1.51-5.74-.17a5.91,5.91,0,0,0-1.83,2.05c-2.36,4.64-6.65,6.57-11.24,8a120.42,120.42,0,0,1-22.38,4.64c-12.57,1.43-20.32,9.76-20.57,22.31v1.58c-1.55,18.41,3.56,41.26,11.17,49.3-.24-.95-.43-1.68-.61-2.41,0-.89.36-2-.78-2.64Zm-46.68-242c-1.9-.87-3.85-1.64-5.69-2.61a50.48,50.48,0,0,0-33.22-5.15c-13.64,2.37-25.26-3.58-31.81-15.71-.4-.75-.42-1.87-1.67-2.12-1.13,2.66-1.27,5.53-1.65,8.32-2.7,20.07,7.94,33.12,28.18,34.63,1.8.16,3.54,1,5.42.5,12.34-2.37,22.44,1.44,30.7,10.83a41.86,41.86,0,0,0,13.58,10c2.54,1.21,5.28,2.32,8,1.43,5.22-1.71,7.68-.82,6,6.53-2.23,9.67-4.88,19.13-14.58,24.71,2.59,1.24,4.72-1.15,7.1.49-4.42,5.25-9.26,9.61-15.88,11.67,13.15-.75,24.72-4.56,32.55-16.09,3.06-4.5,7.72-4.64,11.05-.33,6.25,8.09,14.76,12.44,24.31,15.12a31.57,31.57,0,0,0,9.8,1.29c-6.15-4.1-12.43-6.46-16.84-11.51l.19-.18c2.62-.4,5.12,1.76,7.64.63-1.2-1.32-2.42-2.53-3.47-3.86-5.52-7-11.68-13.63-11.53-23.42.07-5.35,1.89-6.63,6.81-4.73,3.9,1.5,7.44,1.34,10.26-2.29,3.56-4.59,8.1-8.18,12.53-11.85,6.67-5.52,14.08-9.36,23-8.58,4,.34,7.86.55,11.73-.52,14.63,1.33,34.86-17.19,28.12-36.77-.66-1.91-.57-4.86-2.79-5.24-1.64-.29-2.24,2.52-3.41,3.87-1,1.18-2,2.46-3,3.71-4.85,6.27-10.88,9.49-19.15,8.57a110.76,110.76,0,0,0-20.92,0,51.76,51.76,0,0,0-24.35,8.69c.52-6.16,5-8.36,9.86-11.25-9.25-2-16.94-.33-24.47,2.73l-.78-.74c1.58-4.25-1.36-3.51-3.46-2.86-6.51,2-11.32,6.23-14.94,12.62-1.89-3.56-5.14-5.22-7.39-8a15.49,15.49,0,0,0-6.13-4.83c-2.87-1.12-4.27.06-3.91,3,.08.63,1.18,1.33,0,2a71.46,71.46,0,0,0-22.86-3.94c2.88,3.93,6.72,6.3,7.25,10.85ZM691.39,242.72l-.31-.2.33.17c11.23,8.48,24,12.5,38.05,13.14-28.53,10.58-57.07,20.88-87.85,23,18.72,5.37,37.37,10.79,57.12,11.06-26.17,15.28-53.28,27.65-84,30.16,27.49,3.11,55,4.8,82.14-2.39-7.65-1.72-15.36-2.81-23.55-6.14,9-3.4,16.5-7.78,24.34-11.38,7.56-3.47,14.14-8.55,21.28-12.7,1.17-.68,2.92-1.84,2.69-3.16-.29-1.73-2.51-1.47-3.92-2a54.91,54.91,0,0,1-12.51-5.68,3.38,3.38,0,0,1-1.58-2.1c0-1.24,1.38-.83,2.17-1.13,3.33-1.22,6.65-2.47,10-3.63,12-4.13,23-10.24,33.79-16.77,2.42-1.47,1.69-2.29-.21-3.53-3-1.94-5.82-4.14-9.17-6.56,8.46-3.53,16-7.31,24-10.09-12.2,1.94-24.2,4.52-36.33,6.21s-23.93,6.4-36.48,3.72ZM438.53,419.88c.12-1.29.83-2.59.05-4.05-1.82,3.18-3.72,6.12-4.13,9.69-12.06,41.31-26.78,81.78-38.94,123.74,8.75-5.25,16.95-10.13,25.12-15.06q19.74-11.91,39.43-23.91a3.67,3.67,0,0,1,4.6,0q8.35,5.58,16.92,10.84c12.85,8,25.43,16.37,38.16,24.53,2.42,1.55,5,2.8,8.31,4.62-2-7.23-4.27-13.31-6.31-19.47-7.62-23-13.26-46.68-21.38-69.58-4.52-12.75-7.76-25.94-11.58-38.94-.57-2.51-.91-5.11-3-7.63.11,4-.3,7.38.43,10.73-.7,1.65-.41,3.38-.41,5.08v53.68c-9.4-26.77-16.45-53-24.52-79-9.1,25.57-14.34,52.08-22.09,77.91-.23-19.26-.22-38.48-.25-57.71.06-1.82.34-3.69-.41-5.47ZM139.2,294.94c.19.89,1,.87,1.63,1.21a7,7,0,0,0,5.55,2c.1.63.58.76,1.1.84,3.18,2.25,7,3,10.53,4.31a147.88,147.88,0,0,0,66.68,8.13c3.18-.33,6.59-.25,10-2a321.79,321.79,0,0,1-37-21.72c-3.63-2.5-7.42-5-9.4-9.27l.13-.13,5.87.6c7.33.75,14.16-.44,20.85-5-23.85-4.4-44.5-13.53-61.43-31.23,8.82,1.2,17.22,3,25.83-1-24.54-6.17-47-14.94-65.32-33.73,18.33,2.45,35.62,5.57,53.22,2.43a99.36,99.36,0,0,0-11.12-4.67c-17.74-6.59-33.4-16.37-46.35-30.29,1.91-.37,3.62.43,5.39.89,3.75,1,7.5,2,11.55,1.26-.51-1.65-1.92-2-2.92-2.74-9-6.88-18.37-13.26-25.8-21.88-4-4.67-8.09-9.3-11.13-14.7-1-1.88-1.89-4.28-.12-5.84,1.59-1.41,3.75-.31,5.47.77,11.94,7.49,25.14,12,38.45,16.16a248,248,0,0,0,55.24,10.55c14.23,1.07,38.24.42,50-2.48-2.31-.36-4.11-.67-5.92-.91-10.41-1.42-20.86-2.64-30.81-6.35-1.14-.43-2.41-.6-2.49-2.09-.1-1.84,1.48-2,2.71-2.25a19.39,19.39,0,0,1,4.3-.38c8,.14,16,0,24.09.6,11.37.83,22.76,1.18,33.09,8a13.54,13.54,0,0,0-.27-2c-3.16-9.4-10.83-13-19.59-15.24-2.4-.6-5-.57-6.87-2.55-.94-1-2.84-1.73-2.23-3.38s2.47-1.21,3.88-1.15c11.24.47,22.36,2.05,32.63,6.73,9.74,4.43,18.25,10.59,21.32,21.78,1,3.66,1.12,7.53,2.55,11.1,1.46,10.7,4.69,20.94,8.27,31.07,1.87,5.26,3.48,10.72,7.63,14.83a29.82,29.82,0,0,0,10.42,13c-1.2-4.66-2.13-8.47-3.18-12.24-5.92-21.34-7.13-43.48-11-65.16-2.18-12.09-5.85-23.44-17.11-30.26a57.65,57.65,0,0,0-22.7-7.48c-29.22-3.79-58.65-6.06-87.59-11.95-21.81-4.44-43.54-9.12-62.39-22-.11-.08-.42.11-.81.23,1.79,10.8,6,20.1,15.52,26.35,1.27.83,3.53,1.5,2.48,3.33-1.15,2-3.06.31-4.41-.38-4.91-2.54-9.63-5.46-14.61-7.84A384.17,384.17,0,0,1,56.5,68C40.16,56.38,24.87,43.6,12.91,27.28L9.5,22.61c.15,1.45.17,2.1.29,2.72a418.36,418.36,0,0,0,21.32,75.25c4.49,11.39,8.51,23,14.61,33.63,6.34,11,12.51,22.16,20.15,32.37l-.58.62c-12.93-8.66-26.41-16.58-38-27.14a7.34,7.34,0,0,0-3.31-2c-.19-.32-.2-1.06-.72-.76s-.16.83.36,1.06c-.15,2.87,2.22,4.6,3.15,7a240,240,0,0,0,27,50.13,174.5,174.5,0,0,0,33.46,35.93c5.14,4.14,11,7.34,16.61,11a199.43,199.43,0,0,1-47.58-17.2l-.74-.36.26.83a25.36,25.36,0,0,0,1.5,2.31,272.48,272.48,0,0,0,34.21,35.64,254.24,254.24,0,0,0,38.14,27c3,1.76,6.38,2.91,9.59,4.35ZM617.8,215c1.25-.73,1.52-2.1,2.06-3.25a127.2,127.2,0,0,0,9.06-25.56c1.38-5.94,4.88-11.31,4.74-17.64a3.61,3.61,0,0,0,.84-2.56c1.7-16.42,11.42-25.85,26.47-31a94.26,94.26,0,0,1,25.86-4.94c2.19-.11,5.23-1.28,5.92,1.17s-2.48,3.56-4.49,4.69a5.15,5.15,0,0,1-1.87.61c-4.55.46-8.72,2.32-12.59,4.42-5,2.75-9.27,6.6-9.26,13.16l-.37.25h.19a.84.84,0,0,0,.13-.27c5.11-3.84,11.13-5.24,17.25-6.26,12.63-2.11,25.42-1.89,38.17-2.3,2-.06,4-.29,5.88.39,1.24.44,2.72.63,2.72,2.36,0,1.49-1.38,1.89-2.44,2.23-3.13,1-6.27,2-9.47,2.71-8.83,1.92-17.78,3.13-27.42,4.31a11.83,11.83,0,0,0,1.43.57,205.19,205.19,0,0,0,63.69.51c28.14-4.06,55.26-11.7,80.25-25.79,1.26-.71,2.69-1.5,4-.19,1.15,1.16,1,2.67.4,4.07a40.31,40.31,0,0,1-5.06,8.92,133.87,133.87,0,0,1-30.63,28.12c-1.64,1.11-3.69,1.85-4.77,4,6,.9,11.26-.87,16.74-1.92-16,17.44-36.12,27.84-58.29,34.93,18,3.31,35.72-.08,53.55-1.68-17.78,17.5-39.55,27.12-63.33,33.06,7.78,3.75,15.74,1.81,24.67,1.38-17.57,17.29-38,26.59-61.64,30.88,8.81,5.85,17.77,5.24,27,4.45-12.57,14.28-29.79,21.66-45.59,31.37a99.11,99.11,0,0,0,14.86,2.06c11.58.55,23.19.53,34.64-1.58,12.55-2.32,25-5.2,36.48-11l.92-.8h0a13.4,13.4,0,0,0,6.34-2.06l1.64-1.12v.06c7.56-2.8,14.29-7.24,21-11.53A205.85,205.85,0,0,0,839,259.7c2.84-2.74,5.53-5.65,8.49-8.25,8.75-7.7,15.68-16.94,22.62-26.18.55.19.72,0,.45-.5l-.4.55a2.86,2.86,0,0,0-2.24.44c-12.21,7.27-25.69,11.38-39.13,15.55a18.83,18.83,0,0,1-6.8,1.29c40.92-24.25,62.73-62.53,79.85-104.36A324.65,324.65,0,0,1,859,167.32c16.73-20.53,26.92-44.46,36.31-68.64C906,71.3,916.48,30.49,915.65,23.77c-2.12,2.5-4.13,4.86-6.12,7.23a185.78,185.78,0,0,1-20.42,21.28C874.42,65,858.39,75.66,841.72,85.5c-11.69,6.9-23.9,12.77-35.91,19-3.36,1.75-6.56,3.88-10.15,5.18-.92.33-2.18.79-2.73-.54a1.88,1.88,0,0,1,1.07-2.33c4-2.15,7-5.45,10.11-8.71,5.06-5.32,6.54-11.87,7.9-19.34a122.31,122.31,0,0,1-28,13.49c-26.28,8.51-53.47,12.55-80.78,16-16.7,2.11-33.6,2.89-50.08,6.56-14.65,3.26-25.69,11-30.26,26.16a88.32,88.32,0,0,0-3.51,18.58,354.18,354.18,0,0,1-7.67,50.7c-1.32,5.82-4.48,11.11-4.87,17.46,5.25-2.21,7.91-6.45,10.19-11.06a1.57,1.57,0,0,0,.77-1.65ZM581.34,393.45c2.67-3.34,5.82-6.41,7.92-10.07a38.66,38.66,0,0,0,4.23-29.69c-3.37-13.24-15.1-17.76-25.73-9.34-4.44,3.52-8.11,3.45-12.63.75-6.25-3.72-11.83-2.15-15.63,4-1.76,2.86-5.24,3.95-6.82,1.83-4.24-5.66-9.87-4.68-15.39-3.33-4.22,1-5.55,3.72-5,8.09,1.07,8.87,5.07,16.63,9.93,23.82,3.83,5.67,6.53,11.53,7.45,18.28.2,1.43-.26,3.69,1.71,4s2.33-1.89,3-3.26c4-8.71,5.85-18,6.85-27.43.14-1.37-.17-3.08,1.81-3.48,1.72-.34,3.59-.56,4.74,1,5.45,7.61,11,15.21,11.48,25.09.06,1.16-.3,2.57,1.25,2.94,1.36.32,2.17-.77,2.86-1.73,4.08-5.73,7.15-11.84,7.11-19.13,0-4.08.16-8.17.07-12.25-.06-2.68,1-2.61,2.75-1.4,4.56,3.14,6.36,7.83,7.44,13,1.2,6,.26,12,.6,18.31ZM251.65,310.91a37.1,37.1,0,0,1-11.27,3.73c-3.76.77-7.55,1.36-11.33,2l.06,1c26.52,6.3,53.31,4.45,80.22,2-30.3-3.35-57.36-15.21-83-30.77,20.71.8,39.9-5.67,60.08-11.08-32.85-.89-62.2-12.2-91.73-22.94a60.59,60.59,0,0,0,37.78-11.38c-23-1.26-44.81-7.42-67.19-10a14.41,14.41,0,0,0,3.67,2.06c4.38,1.78,8.8,3.47,13.16,5.3,1,.42,2.58.55,2.7,1.94.11,1.23-1.33,1.49-2.16,2-2.39,1.62-4.79,3.24-7.29,4.68-1.76,1-2.24,1.68-.11,2.84,10.37,5.67,20.43,12,31.68,15.89,5.26,1.84,10.5,3.76,16.2,5.8a16.24,16.24,0,0,1-3,2.42,139.94,139.94,0,0,1-13,5.61c-3.55,1.22-3,2.47-.73,4.35.51.41,1,.87,1.53,1.24a205.35,205.35,0,0,0,33.79,18.54c3.16,1.47,6.29,3,9.94,4.72Zm103.61,50.73c0,4.67-.08,9,0,13.35a39.55,39.55,0,0,0,6.3,20.09c.68,1.11,1.57,2.26,3.15,1.89s1.34-1.72,1.33-2.89c-.13-10.49,7-17.43,12.41-25.19a3.31,3.31,0,0,1,3.62-1c1.74.41,1.62,1.8,1.8,3.09.44,3.12.85,6.26,1.4,9.36A75.71,75.71,0,0,0,391,399.18c.75,1.59,1.74,3.39,3.6,3.1s1.73-2.39,1.76-3.91a24.82,24.82,0,0,1,1.95-8c2.05-5.59,5.2-10.61,8.06-15.79,3.38-6.12,6.39-12.39,6.75-19.58a6,6,0,0,0-3.3-6.19,13.83,13.83,0,0,0-16,2c-2.6,2.4-5.72,2.18-7.79-.54-5.79-7.62-8.74-8.25-17.48-3.93-3.71,1.83-6.84,2.29-10.46-1.36-8.44-8.51-21.94-4.57-25.32,7-4.6,15.75-.24,29.28,10.39,41.2.35.4.72,1.06,1.48.62C342.26,377.72,344.2,365.27,355.26,361.64ZM662,202.66a55.81,55.81,0,0,0,13.5,9.28c14.31,7.06,29.55,10.19,45.33,12,15.25,1.76,30.41,1.28,45.59.33,3.86-.25,8.12.27,12.16-2-11.75-.32-29.46-7.26-34.83-12.82,14.47-4.49,27.4-11.7,40.58-20.76C744.09,201.62,703.33,200.72,662,202.66ZM147.26,222.4c12.92,2.27,25.93,2.12,38.94,2.19a160.38,160.38,0,0,0,21.24-1.13c11.32-1.45,22.53-3.52,33.26-7.66,8.46-3.27,16.3-7.46,23.11-14.11-40.24-.17-79.91-1.25-118.9-11.12,11.69,7.72,23.52,15.09,38.33,18.7C171.57,216.45,160,220.93,147.26,222.4Zm314.26-31.92a10,10,0,0,0-5.72,2.6c-3.61,3.47-7.18,7-11.05,10.15-2.94,2.39-3.85,4.84-2.71,8.51,1.35,4.38,2.13,8.94,3.26,13.39,2.51,10,8.63,18.12,13.87,26.67,1.76,2.88,5.08,2.38,6.08-.67,1.22-3.75,3.92-6.48,5.78-9.76,5.73-10.13,11.31-20.34,13.44-32,.36-2,0-3.27-1.56-4.38-5.41-3.74-10.28-8.14-15.3-12.36a9.39,9.39,0,0,0-6.09-2.15Zm-85.64-31.69c0,11.19,4.43,20.33,11.46,25.21,10.77,7.49,38.18.62,43.77-10.5,1.25-2.49,2.58-4.94,2.05-7.85-.4-2.12-1-4.29-3.64-4.5s-5,.42-5.92,3.41c-3,9.81-9.9,14.09-19.8,14.23-1.79,0-4.48,1-5.11-.68-.85-2.22,2.33-2.18,3.54-3.37s3.09-2.13,2.66-4.43c-.38-2.12-1.79-2.87-3.72-3.52-6-2-7.46-8.14-3.31-13,.68-.8,1.57-1.41,2.24-2.22,2.47-2.93,1.95-5.28-1.46-6.89-11.53-5.46-22.74,1.51-22.76,14.11Zm173.37,1.54c-.14-5.79.36-10.85-4.13-13.74a19.47,19.47,0,0,0-15.46-2.93c-2.34.57-4.89,1-5.73,3.57s1.3,4.05,2.84,5.64c5.34,5.52,3.53,12-3.94,13.89a3.63,3.63,0,0,0-3,2.75,3.46,3.46,0,0,0,1.58,4.11c1.2.77,2.55,1.3,3.8,2,.77.44,1.86.78,1.63,1.95s-1.39,1.07-2.26,1.05c-12.19-.29-17.07-1.78-22-12.32a22,22,0,0,0-1.39-2.28c-1.67-2.77-4.05-4.06-6.93-2.82s-3.07,4.33-2.58,7.16a15.71,15.71,0,0,0,3.22,6.7c2.37,3.14,5.58,5.06,9.08,6.71,7.14,3.35,14.61,5.41,22.49,5.09,12.53-.52,23.29-11.86,22.78-26.53ZM387.12,434.89a51.56,51.56,0,0,0,7.21-.95c3.5-.87,6.95-2.27,7.5-6.56.75-5.84-3.3-10.7-9.19-11.63a25.64,25.64,0,0,0-12.84,1.32c-4.84,1.76-9,.71-13.1-1.8a56.64,56.64,0,0,1-9.53-7.66c-.54-.53-1.12-1.33-2-.9s-.5,1.33-.38,2.09C357.3,424.42,369.64,434.83,387.12,434.89Zm150.82-19.71c-8.89-.14-12.66,2.85-13.53,9.57-.63,4.87,1.92,8,8.12,9.14,19.72,3.71,34.21-7.47,38.41-25,.19-.81.72-1.9-.37-2.44-.81-.4-1.4.38-2,.86-3.55,2.67-7,5.42-10.72,7.92a12.08,12.08,0,0,1-11.62,1.52A27.91,27.91,0,0,0,537.94,415.18ZM797.36,167.94c-10.79,5.72-21.73,8.31-32.29,11.95C784.58,181,792.27,178.27,797.36,167.94ZM163,232.62c-.08.06-.2.09-.24.17s.09.15.14.23l.38-.28Zm298.76,54.54.05-.34-.4.09a1.75,1.75,0,0,0,.12.32l.21-.07Zm1.6,0,.06-.35-.4.1.1.32Zm-319.9-98c-.1,0-.22-.13-.3-.1-.35.09-.37.26,0,.42a.42.42,0,0,0,.31-.06.4.4,0,0,1,0-.21Z" fill="#332b26"/><path d="M825.08,60.73,825,57.86c0-1.18.8-1.21,1.68-1A3.18,3.18,0,0,1,825.08,60.73Z" fill="#77795f"/><path d="M578.77,124.83l-1.39-.09c.29-.66.48-1.47,1.47-1.23a7.31,7.31,0,0,1-.08,1.32Z" fill="#77795f"/><path d="M110.89,92.36c.57.06,1.28-.06,1.33.81a.73.73,0,0,1-.3.59.78.78,0,0,1-1.06-.34.51.51,0,0,1-.07-.17C110.82,93,110.85,92.66,110.89,92.36Z" fill="#77795f"/><path d="M866.14,218l-1.33.42a3.27,3.27,0,0,0-.3-.35,2.24,2.24,0,0,1,1.63-1.37Z" fill="#deb497"/><path d="M272.78,398.39l.12,1.55c-.42.33-1.14.6-1.31.13C271.29,399.2,272.13,398.78,272.78,398.39Z" fill="#77795f"/><path d="M619.38,107.4l.76-.45-.18.9A2.51,2.51,0,0,1,619.38,107.4Z" fill="#332b26"/><path d="M302.15,105.9c-.41-.12-.69-.37-.44-.77.05-.1.58.09.9.15A2.56,2.56,0,0,1,302.15,105.9Z" fill="#332b26"/><path d="M826.67,56.83l.15-.25c-.07.07-.13.14-.2.2Z" fill="#77795f"/><path d="M777.52,299.65c-11.51,5.82-23.93,8.7-36.48,11-11.45,2.11-23.06,2.13-34.64,1.58a99.11,99.11,0,0,1-14.86-2.06c15.8-9.71,33-17.09,45.59-31.37-9.2.79-18.16,1.4-27-4.45,23.67-4.29,44.07-13.59,61.64-30.88-8.93.43-16.89,2.37-24.67-1.38,23.78-5.94,45.55-15.56,63.33-33.06-17.83,1.6-35.52,5-53.55,1.68,22.17-7.09,42.28-17.49,58.29-34.93-5.48,1-10.79,2.82-16.74,1.92,1.08-2.14,3.13-2.88,4.77-4a133.87,133.87,0,0,0,30.63-28.12,40.31,40.31,0,0,0,5.06-8.92c.6-1.4.75-2.91-.4-4.07-1.29-1.31-2.72-.52-4,.19-25,14.09-52.11,21.73-80.25,25.79a205.19,205.19,0,0,1-63.69-.51,11.83,11.83,0,0,1-1.43-.57c9.64-1.18,18.59-2.39,27.42-4.31,3.2-.7,6.34-1.71,9.47-2.71,1.06-.34,2.43-.74,2.44-2.23,0-1.73-1.48-1.92-2.72-2.36-1.93-.68-3.92-.45-5.88-.39-12.75.41-25.54.19-38.17,2.3-6.12,1-12.14,2.42-17.25,6.26v.06c0-6.56,4.21-10.41,9.26-13.16,3.87-2.1,8-4,12.59-4.42a5.15,5.15,0,0,0,1.87-.61c2-1.13,5.21-2.12,4.49-4.69s-3.73-1.28-5.92-1.17A94,94,0,0,0,661,135c-15,5.11-24.77,14.54-26.47,31a3.54,3.54,0,0,1-.84,2.55A85.68,85.68,0,0,1,632,152.9a12.85,12.85,0,0,1,3.16-9.12c8-9,16.92-16.19,29.75-17.47C678,125,691,123.67,704.19,123c16.71-.81,33.41-1.54,50.14-1.27.15,0,.29.31.44.48-2.78,4.31-2.21,6.32,2.45,8.59a25.09,25.09,0,0,0,2.56,1c8.35,3.25,16.79,2.18,25.2.43,17.17-3.57,33.66-9.42,50-15.6,9.53-3.59,18.92-7.55,28.77-11.51-.25.9-.34,1.38-.52,1.83-5,12.59-10.26,25-17.09,36.74-7.32,12.6-13.36,25.9-20.88,38.45-4.33,7.23-3.35,10.06,5.43,12.2.25.06.53,0,.79.08,5.86,1.34,11.65-.33,18-.64-8.36,9.05-16.3,17.69-25.05,25.65-9,8.23-18,16.59-26.91,24.94q-6.93,6.48-13.79,13c-1.25,1.19-3.85,1.56-3.28,3.9s3,2.37,4.82,2.89c7,2,14.11,1.35,21.2,1.5,1.12,0,2.65-.64,3.26.57s-.62,2.19-1.39,3c-5.14,5.43-10.23,10.92-15.54,16.17-4.65,4.6-9.58,8.93-14.39,13.38h.05Z" fill="#20997d"/><path d="M110,175.47c13,13.92,28.61,23.7,46.35,30.29a99.36,99.36,0,0,1,11.12,4.67c-17.6,3.14-34.89,0-53.22-2.43,18.34,18.79,40.81,27.56,65.26,33.68-8.61,4-17,2.15-25.83.95,16.93,17.7,37.58,26.83,61.43,31.23-6.69,4.52-13.52,5.71-20.85,5l-5.87-.59-.45-.32.32.44c2,4.25,5.77,6.77,9.4,9.27a321.79,321.79,0,0,0,37,21.72c-3.37,1.76-6.78,1.68-10,2A147.94,147.94,0,0,1,158,303.22c-3.57-1.3-7.35-2.06-10.53-4.31l-1.1-.84c-5.25-6.47-12.41-10.93-18-17-4.38-4.79-9.24-9.23-12.9-15.49h7.58a94.27,94.27,0,0,0,17.26-1.6c1.8-.34,3.78-.89,4.33-2.94.5-1.86-1.23-2.78-2.31-3.84-3.47-3.41-7.23-6.51-10.76-9.82-12.66-11.89-26-23.07-38-35.64-1.17-1.22-2.56-2.24-3.82-3.35a78.12,78.12,0,0,1-13.3-14.88,68.35,68.35,0,0,0,16.84.89c8-.51,10.28-4.17,7.27-11.44a35.29,35.29,0,0,0-2-4.27c-3.18-5.56-6.51-11.07-9.63-16.64-6.55-11.7-12.16-23.94-18.16-36-.92-1.86-1.85-3.7-2.89-5.51A59.21,59.21,0,0,1,61.63,105c10.72,4.2,20.83,8.21,31,12.14,16,6.18,32.13,11.64,48.94,15,7.91,1.6,15.86,2.63,23.69-.45,2.42-1,5-1.69,6.6-4s-.75-4-1.17-6.22c12.72.37,25.09.15,37.47.72,16.17.74,32.32,1.43,48.4,3.41,9.75,1.2,19.38,2.63,26.27,10.82a7.13,7.13,0,0,0,2,1.24c6.47,3.79,10.22,11,9.36,17.85-.58,4.57-1.08,9.14-1.62,13.71-1.43-3.57-1.55-7.44-2.55-11.1C287,147,278.44,140.79,268.7,136.36c-10.27-4.68-21.39-6.26-32.63-6.73-1.41-.06-3.28-.44-3.88,1.15s1.29,2.37,2.23,3.38c1.85,2,4.47,2,6.87,2.55,8.76,2.19,16.43,5.84,19.59,15.24a13.54,13.54,0,0,1,.27,2c-10.33-6.78-21.72-7.13-33.09-8-8-.59-16.06-.46-24.09-.6a19.39,19.39,0,0,0-4.3.38c-1.23.25-2.81.41-2.71,2.25.08,1.49,1.35,1.66,2.49,2.09,10,3.71,20.4,4.93,30.81,6.35,1.81.24,3.61.55,5.92.91-11.77,2.9-35.78,3.55-50,2.48a248,248,0,0,1-55.24-10.55c-13.31-4.13-26.51-8.67-38.45-16.16-1.72-1.08-3.88-2.18-5.47-.77-1.77,1.56-.93,4,.12,5.84,3,5.4,7.13,10,11.13,14.7,7.35,8.75,16.73,15.13,25.73,22,1,.75,2.41,1.09,2.92,2.74-4,.77-7.8-.29-11.55-1.26-1.77-.46-3.48-1.26-5.39-.89l-.39-.38v.26a1,1,0,0,0,.41.14Z" fill="#20997d"/><path d="M65.87,166.58c-7.64-10.21-13.81-21.37-20.15-32.37-6.1-10.6-10.12-22.24-14.61-33.63A418.36,418.36,0,0,1,9.79,25.33c-.12-.62-.14-1.27-.29-2.72l3.41,4.67C24.87,43.6,40.16,56.38,56.5,68A384.24,384.24,0,0,0,113,100.81c5,2.38,9.7,5.3,14.61,7.84,1.35.69,3.26,2.41,4.41.38,1-1.83-1.21-2.5-2.48-3.33C120,99.45,115.8,90.15,114,79.35c.39-.12.7-.31.81-.23,18.85,12.88,40.58,17.56,62.39,22,28.94,5.89,58.37,8.16,87.59,11.95a57.65,57.65,0,0,1,22.7,7.48c11.26,6.82,14.93,18.17,17.11,30.26,3.9,21.68,5.11,43.82,11,65.16,1,3.77,2,7.58,3.18,12.24a29.82,29.82,0,0,1-10.42-13c-.28-4.58-2.19-8.79-3-13.21-3.39-17.42-4.79-35.1-6.22-52.76A22.24,22.24,0,0,0,293.08,135c-5.73-6-13.33-8.89-20.84-11.56-15.06-5.36-30.87-7.41-46.7-8.82A356.23,356.23,0,0,0,179,113.05a47.06,47.06,0,0,1-22.47-4.94c-1.38-.65-2.8-1.21-4.56-2a9.47,9.47,0,0,0,2.22,5.72c2.79,3.3,5.9,6.32,8.83,9.5,1,1.09,3.47,1.46,2.79,3.35s-3,2.26-5,2.49a25.44,25.44,0,0,1-2.76.07c-25.45.46-49.06-6.88-71.69-17.59a170.67,170.67,0,0,1-33-19.93c-1.48-1.18-2.81-2.64-5.23-3.28.87,3.1,1.65,5.86,2.6,8.56,6,16.87,13.76,32.92,22.2,48.7,7.5,14,14.15,28.45,22.41,42.06,2,3.36,1.46,4-2.45,4-7.16.13-13.63-2.57-20.2-4.84-3.78-1.31-7.56-2.59-12-4.1a38,38,0,0,0,6.7,9.67c10.64,11.63,21.47,23.08,33.08,33.77,7,6.42,13.54,13.26,20.7,19.44,4.55,3.93,8.17,9,13.68,11.79,1,.5,2.17,1.48,1.81,2.81-.41,1.54-2,1-3,1.05-10.28.51-20-2.5-29.83-4.85-5.86-1.41-11.35-4.2-17.44-4.77l-.47-.33.33.46a10.31,10.31,0,0,0,1.45,1.84c8.48,6.82,16,14.72,24.81,21.2s16.92,14.11,26,20.45a1.63,1.63,0,0,1,.82,1.66c-3.21-1.44-6.58-2.59-9.59-4.35a254.24,254.24,0,0,1-38.14-27A272.47,272.47,0,0,1,57.28,228a26.84,26.84,0,0,1-1.47-2.33c.17-.15.33-.31.48-.47a199.43,199.43,0,0,0,47.58,17.2c-5.56-3.63-11.47-6.83-16.61-11A174.15,174.15,0,0,1,53.8,195.49a240,240,0,0,1-27-50.13c-.93-2.38-3.3-4.11-3.15-7l.36-.3a7.34,7.34,0,0,1,3.31,2c11.57,10.56,25,18.48,38,27.14l1,.23Z" fill="#deb397"/><path d="M617.08,216.65c-2.28,4.61-4.94,8.85-10.19,11.06.39-6.35,3.55-11.64,4.87-17.46a354.18,354.18,0,0,0,7.67-50.7A88,88,0,0,1,622.94,141c4.57-15.13,15.61-22.9,30.26-26.16,16.48-3.67,33.38-4.45,50.08-6.56,27.31-3.44,54.5-7.48,80.78-16a122.31,122.31,0,0,0,28-13.49c-1.36,7.47-2.84,14-7.9,19.34-3.1,3.26-6.08,6.56-10.11,8.71a1.88,1.88,0,0,0-1.07,2.33c.55,1.33,1.81.87,2.73.54,3.59-1.3,6.79-3.43,10.15-5.18,12-6.24,24.22-12.11,35.91-19,16.67-9.84,32.7-20.48,47.39-33.22A186.48,186.48,0,0,0,909.53,31l6.12-7.23c.83,6.72-9.66,47.53-20.3,74.91C886,122.86,875.77,146.79,859,167.32a324.55,324.55,0,0,0,42.83-29.08C884.75,180.07,862.94,218.35,822,242.6a18.83,18.83,0,0,0,6.8-1.29c13.44-4.17,26.92-8.28,39.13-15.55a2.86,2.86,0,0,1,2.24-.44l0-.06c-6.94,9.25-13.87,18.49-22.62,26.19-3,2.6-5.65,5.51-8.49,8.25a206.11,206.11,0,0,1-31.74,24.55c-6.67,4.29-13.4,8.73-21,11.53-.15-1.16.78-1.56,1.49-2.11,7.21-5.68,14.48-11.28,21.6-17.06,5.21-4.22,9.93-9.09,15.4-12.93s9.58-8.79,14.14-13.52c-5.79,1.31-11.43,2.84-17,4.53A116.36,116.36,0,0,1,793.38,260c-1.38.06-3.17.45-3.74-1.33s1.1-2.54,2.14-3.44c16.91-14.63,33.1-30,48.83-45.89,2.5-2.51,4.81-5.2,7.37-7.65,6.18-5.93,11.8-12.28,16-19.82l.29-.52-.55.27c-2.37.75-4.8,1.36-7.11,2.28A111.07,111.07,0,0,1,835.46,190c-1.77.32-3.86,1.19-5.17-.52s.16-3.52,1.05-5.06c6.22-10.82,11.38-22.2,17.79-32.94,4.57-7.66,8.19-15.93,11.77-24.12,5.19-11.89,12-23.11,15.48-35.71.4-1.44,1.53-2.86.31-5-3,2.67-6.42,4.45-9.56,6.71a200.42,200.42,0,0,1-31.47,18A163,163,0,0,1,781,126.86c-6.31.59-12.79,1.78-19.13-.33-1-.34-2.15-.47-2.31-1.79s.8-1.75,1.76-2.31c4.92-2.92,8.16-7.35,10.74-12.33.46-.88,1.42-2,.57-2.88s-1.92.23-2.76.65c-5.57,2.8-11.31,5-17.64,5.14-10.52.22-21,.06-31.58.52-17.49.78-34.88,2.26-52,5.89-10.78,2.29-21.66,4.91-30.74,11.67-4.89,3.64-10.31,7.23-11.25,14-.77,5.58-1.06,11.24-1.67,16.85-1.15,10.57-2.24,21.14-3.63,31.68-.94,7.14-2.33,14.22-3.52,21.33a1.44,1.44,0,0,0-.72,1.7Zm203.69,26.21-.29.22c.08.09.17.23.26.24s.2-.13.3-.21Z" fill="#deb497"/><path d="M541.27,131.79c-3.87,1.07-7.75.86-11.73.52-8.95-.78-16.36,3.06-23,8.58-4.43,3.67-9,7.26-12.53,11.85-2.82,3.63-6.36,3.79-10.26,2.29-4.92-1.9-6.74-.62-6.81,4.73-.15,9.79,6,16.45,11.53,23.42,1,1.33,2.27,2.54,3.47,3.86-2.52,1.13-5-1-7.64-.63-.14-.33-.29-.61-.67-.21l.48.39c4.41,5,10.69,7.41,16.84,11.51a31.57,31.57,0,0,1-9.8-1.29c-9.55-2.68-18.06-7-24.31-15.12-3.33-4.31-8-4.17-11,.33-7.83,11.53-19.4,15.34-32.55,16.09,6.62-2.06,11.46-6.42,15.88-11.67-2.38-1.64-4.51.75-7.1-.49,9.7-5.58,12.35-15,14.58-24.71,1.69-7.35-.77-8.24-6-6.53-2.71.89-5.45-.22-8-1.43a41.86,41.86,0,0,1-13.58-10c-8.26-9.39-18.36-13.2-30.7-10.83-1.19-1.23-2.4-2.43-3.56-3.69-3.63-3.91-7.73-7.47-9.76-12.62,5.21.53,10.42,1.37,15.64,1.52a114.8,114.8,0,0,1,25.66,4c6.16,1.61,11.92,4.11,16.06,9.42,1.45,1.86,3.73,2.84,6,3.56,4.58,1.43,6.37-.23,5.88-5-.33-3.29-2.29-6.19-2-9.57,3,1.07,5.75,4.08,9.12,2.73,2-.8,2.85-.24,4.4.61,7.57,4.11,9.66,4.21,13.88-1.33,4,2.71,4.6,2.71,8.28,0,.6-.44,1.13-1.41,1.95-.72a1.58,1.58,0,0,1,0,2.18c-1.81,1.89-1.27,4.21-1.25,6.37.05,3.81,3,5.78,6.68,4.72,3.25-.93,5.78-3.09,8.55-4.83,8.75-5.5,18-9.7,28.34-11.26,9.35-1.42,18.77-.28,28.32-1.1a23.71,23.71,0,0,1-7.74,13l-.79.78Z" fill="#20997d"/><path d="M864,181.89c-4.18,7.54-9.8,13.89-16,19.82-2.56,2.45-4.87,5.14-7.37,7.65-15.73,15.87-31.92,31.26-48.83,45.89-1,.9-2.69,1.73-2.14,3.44s2.36,1.39,3.74,1.33a116,116,0,0,0,28.6-5.33c5.58-1.69,11.22-3.22,17-4.53-4.56,4.73-8.7,9.69-14.14,13.52s-10.19,8.71-15.4,12.93c-7.12,5.78-14.39,11.38-21.6,17.06-.71.55-1.64.95-1.49,2.11v-.06a1.4,1.4,0,0,0-1.64,1.11h0a13.4,13.4,0,0,1-6.34,2.06c4.81-4.45,9.74-8.78,14.39-13.38,5.31-5.25,10.4-10.74,15.54-16.17.77-.82,2-1.83,1.39-3s-2.14-.54-3.26-.57c-7.09-.15-14.24.46-21.2-1.5-1.84-.52-4.27-.64-4.82-2.89s2-2.71,3.28-3.9q6.87-6.54,13.79-13c8.93-8.35,17.87-16.71,26.91-24.94,8.75-8,16.69-16.6,25.05-25.65-6.35.31-12.14,2-18,.64-.26-.06-.54,0-.79-.08-8.78-2.14-9.76-5-5.43-12.2,7.52-12.55,13.56-25.85,20.88-38.45C853,132,858.26,119.61,863.21,107c.18-.45.27-.93.52-1.83-9.85,4-19.24,7.92-28.77,11.51-16.36,6.18-32.85,12-50,15.6-8.41,1.75-16.85,2.82-25.2-.43-.85-.34-1.73-.64-2.56-1-4.66-2.27-5.23-4.28-2.45-8.59-.15-.17-.29-.48-.44-.48-16.73-.27-33.43.46-50.14,1.27-13.15.63-26.21,2-39.3,3.27-12.83,1.28-21.76,8.44-29.75,17.47a12.85,12.85,0,0,0-3.16,9.12,85.68,85.68,0,0,0,1.71,15.65c.14,6.34-3.36,11.71-4.74,17.65a127.2,127.2,0,0,1-9.06,25.56c-.54,1.15-.81,2.52-2.06,3.25,1.19-7.11,2.58-14.19,3.52-21.33,1.39-10.54,2.48-21.11,3.63-31.68.61-5.61.9-11.27,1.67-16.85.94-6.81,6.36-10.4,11.25-14,9.08-6.76,20-9.38,30.74-11.67,17.11-3.63,34.5-5.11,52-5.89,10.54-.46,21.06-.3,31.58-.52,6.33-.14,12.07-2.34,17.64-5.14.84-.42,1.82-1.63,2.76-.65s-.11,2-.57,2.88c-2.58,5-5.82,9.41-10.74,12.33-1,.56-1.91,1-1.76,2.31s1.3,1.45,2.31,1.79c6.34,2.11,12.82.92,19.13.33a163,163,0,0,0,54.7-15.47,200.42,200.42,0,0,0,31.47-18c3.14-2.26,6.61-4,9.56-6.71,1.22,2.12.09,3.54-.31,5-3.52,12.6-10.29,23.82-15.48,35.71-3.58,8.19-7.2,16.46-11.77,24.12-6.41,10.74-11.57,22.12-17.79,32.94-.89,1.54-2.43,3.28-1.05,5.06s3.4.84,5.17.52A111.07,111.07,0,0,0,856.62,184c2.31-.92,4.74-1.53,7.11-2.28Z" fill="#aa6750"/><path d="M86.33,249.74c6.09.57,11.58,3.36,17.44,4.77,9.83,2.35,19.55,5.36,29.83,4.85,1.1-.06,2.64.49,3.05-1.05.36-1.33-.85-2.31-1.81-2.81-5.51-2.84-9.13-7.86-13.68-11.79-7.16-6.18-13.74-13-20.7-19.44C88.85,213.58,78,202.13,67.38,190.5a38,38,0,0,1-6.7-9.67c4.45,1.51,8.23,2.79,12,4.1,6.57,2.27,13,5,20.2,4.84,3.91-.07,4.49-.66,2.45-4-8.26-13.61-14.91-28.05-22.41-42.06-8.44-15.78-16.18-31.83-22.2-48.7-.95-2.69-1.69-5.45-2.63-8.52,2.42.64,3.75,2.1,5.23,3.28a170.67,170.67,0,0,0,33,19.93c22.63,10.71,46.24,18,71.69,17.59a25.44,25.44,0,0,0,2.76-.07c2-.23,4.29-.49,5-2.49s-1.78-2.26-2.79-3.35c-2.93-3.18-6-6.2-8.83-9.5a9.47,9.47,0,0,1-2.22-5.72c1.76.76,3.18,1.32,4.56,2A47.05,47.05,0,0,0,179,113.05a355.89,355.89,0,0,1,46.52,1.61c15.83,1.41,31.64,3.46,46.7,8.82,7.51,2.67,15.11,5.52,20.84,11.56a22.2,22.2,0,0,1,6.05,14.16c1.43,17.66,2.83,35.34,6.22,52.76.86,4.42,2.77,8.63,3,13.21-4.15-4.11-5.76-9.57-7.63-14.83-3.58-10.13-6.81-20.37-8.27-31.07.54-4.57,1-9.14,1.62-13.71.86-6.86-2.89-14.06-9.36-17.85a7.13,7.13,0,0,1-2-1.24c-6.89-8.19-16.52-9.62-26.27-10.82-16.08-2-32.23-2.67-48.4-3.41-12.38-.57-24.75-.35-37.47-.72.42,2.23,2.78,3.89,1.17,6.22s-4.18,3.09-6.6,4c-7.83,3.08-15.78,2-23.69.45-16.81-3.4-33-8.86-48.94-15-10.15-3.93-20.26-7.94-31-12.14a59.21,59.21,0,0,0,6.25,15.52c1,1.81,2,3.65,2.89,5.51,6,12,11.61,24.26,18.16,36,3.12,5.57,6.45,11.08,9.63,16.64a35.29,35.29,0,0,1,2,4.27c3,7.27.73,10.93-7.27,11.44a68.35,68.35,0,0,1-16.84-.89,78.12,78.12,0,0,0,13.3,14.88c1.26,1.11,2.65,2.13,3.82,3.35,12,12.57,25.34,23.75,38,35.64,3.53,3.31,7.29,6.41,10.76,9.82,1.08,1.06,2.81,2,2.31,3.84-.55,2-2.53,2.6-4.33,2.94a94.27,94.27,0,0,1-17.26,1.6h-7.58c3.66,6.26,8.52,10.7,12.9,15.49,5.58,6.1,12.74,10.56,18,17a7,7,0,0,1-5.55-2,1.34,1.34,0,0,0-1.43-1.24l-.2,0V295a1.65,1.65,0,0,0-.82-1.66c-9-6.34-17.08-14-25.95-20.45S96,258.48,87.47,251.66A10.31,10.31,0,0,1,86,249.82Z" fill="#aa664f"/><path d="M488.78,422.32c3.82,13,7.06,26.19,11.58,38.94,8.12,22.9,13.76,46.55,21.38,69.58,2,6.16,4.29,12.24,6.31,19.47-3.29-1.82-5.89-3.07-8.31-4.62-12.73-8.16-25.31-16.57-38.16-24.53q-8.55-5.28-16.92-10.84a3.67,3.67,0,0,0-4.6,0q-19.67,12-39.43,23.91c-8.17,4.93-16.37,9.81-25.12,15.06,12.16-42,26.88-82.43,38.94-123.73,1.28,1.4.56,3,.32,4.48-.64,4.14-1.36,8.28-2,12.43q-4.68,30.54-9.33,61.1c-.7,4.59-1.29,9.2-2.05,14.7l5.07-3.21,33.25-21.18c1.83-1.18,3.33-1.45,5.39-.17q15.24,9.46,30.7,18.59c2.73,1.63,5.29,3.73,8.76,4.37-1-6.25-2.54-12.16-3.67-18.12-4.28-22.43-8-45-11.73-67.49-.45-2.82-2.25-5.76-.38-8.74Z" fill="#deb397"/><path d="M327.43,416.77l2.9-2.27c-.44,8.63,0,17.66-1.58,26.32-1.8,9.87-1.13,19.82-2.6,29.63-.28,1.84.27,2.46,2.1,1.77,2.71-1,5.45-1.94,8.16-2.94q16.65-6.12,33.28-12.27c.81-.29,1.73-1.16,2.51-.23s-.54,1.52-.77,2.28c-2.29,7.67-4.49,15.37-6.69,23.07-1.08,3.76-2.1,7.53-3.42,12.28l44.81-41.8.57.34c-2.63,8.22-5.33,16.42-7.88,24.67-3.51,11.38-8,22.42-12,33.62L340.22,522c3.9-13,7.68-25.46,12.79-38-1.37.16-1.88.17-2.37.29Q326.31,490,302,495.8c-1.08.26-2.35,1.38-3.32.37s.22-2.2.59-3.24c2.73-7.63,5.73-15.16,8.84-22.65,4.42-10.68,8.15-21.66,11.93-32.6,1.57-4.56,4-8.87,4.38-13.82a9,9,0,0,0,2.4-6.37v.07Z" fill="#20997d"/><path d="M561.65,494.28c-.06-5.35-2.41-10.16-3.67-15.22-1.56-6.23-3.41-12.39-5.1-18.59-.2-.71-.91-1.53-.25-2.2.83-.85,1.7,0,2.51.3l38.44,14c4.45,1.63,4.25,1.7,3.89-3.18-.68-9.29-1.18-18.59-1.69-27.9-.46-8.36-.83-16.73-1.26-25.38,1.64.32,1.72,2,2.68,2.67.54,3,.89,6,3.2,8.29-.37,1.52.29,2.86.83,4.19,3.29,8.12,6,16.45,9.44,24.54,5.41,12.69,9.56,25.91,14.35,38.86,1,2.86,0,3.21-2.41,2.63l-17.24-4.16c-10.84-2.62-21.59-5.61-32.58-7.56l-.38-.29.31.36a7.86,7.86,0,0,0,.64,3.83c3.08,9.9,6,19.83,9.22,29.7,1,3.23.48,4-3,3.15-14.14-3.42-28.33-6.62-42.51-9.91-3.48-8.1-5.84-16.6-8.3-25-2.92-9.94-7.54-19.24-10.2-29.24-.33-1.24-.74-2.46-1.49-4.92,3.52,2.95,6.33,4.94,8.71,7.36,11.51,11.7,23.94,22.43,35.87,33.69a1.3,1.3,0,0,0,.14.32c0,.05.16,0,.24,0Z" fill="#20997d"/><path d="M438.53,419.88c.75,1.78.42,3.65.42,5.47,0,19.23,0,38.45.25,57.71,7.75-25.83,13-52.34,22.09-77.91,8.07,26,15.12,52.26,24.52,79V430.5c0-1.7-.29-3.43.41-5.08l8,80.29c-1.4.24-2.11-.71-3-1.24-8.79-5.53-17.54-11.11-26.31-16.66-1.15-.73-2-1.87-3.76-.55-6.93,5.25-14.77,9.06-22.26,13.42-3.2,1.85-6.55,3.44-10.44,5.46,1.59-14.77,3.29-28.71,4.55-42.69,1.35-14.59,4-29,5.53-43.57Z" fill="#20987c"/><path d="M617.68,556.89c-3.45-1.56-7-3-10.32-4.72-12.71-6.61-25.35-13.36-38-20l-29-15v-.73c10.27,2,20,5.86,30.17,8.36,7.59,1.87,14.83,5.1,22.69,6l.52.25-.27-.5a32.61,32.61,0,0,0-1-3.37c-4.65-11.26-10.15-22.16-14.18-33.67-.32-.91-1.33-1.94-.24-2.87.82-.7,1.74.05,2.6.29l35.63,10c6.13,1.72,12.11,4,18.64,5.06-.87-4.23-3.43-7.34-4.88-10.89q-12.76-31.35-26.6-62.25c-.89-2-1.14-4.34-3-5.86v-3.26c4.07,4.93,7.6,10.28,11.28,15.47,13.2,18.61,25.54,37.83,38.89,56.32,7.75,10.74,14.92,21.84,22.46,32.71,1.1,1.58,3.26,2.32,3.5,4.53-.12.11-.23.23-.34.35a10.31,10.31,0,0,1-4.19-1l-59.17-21.8c-7.64-2.81-15.31-5.56-23-8.37a5.54,5.54,0,0,0-3.71-.5c-.09,2.62,2.45,3.71,3.49,5.61,5.9,10.87,11.84,21.73,18.21,32.33,3.42,5.69,7.4,11,10,17.23Z" fill="#deb396"/><path d="M383.75,515.65c-.75,1.4-2.27,1.7-3.5,2.35q-25,13.08-50,26.09c-8,4.17-16.08,8.24-24.33,12.47,10.52-19.14,21.39-37.79,32-56.88l-89.78,32.68-.5-.64,76.69-110.57v2.74a7,7,0,0,0-1.15,1.51c-8.1,20.65-17.59,40.71-26.11,61.17-2.46,5.91-5.59,11.6-6.82,18l-.32.34.37-.29c10.24-2.31,20.25-5.48,30.33-8.41,8.63-2.51,17.29-4.91,26.45-7.49-.65,1.79-1.07,3-1.55,4.21-4.47,11.24-9,22.46-13.42,33.71-.35.9-1.28,1.93-.28,2.88.8.77,1.72,0,2.57-.24,8.7-2.53,17.38-5.14,26.12-7.54,7.76-2.16,15.25-5.06,23.23-6.09Z" fill="#deb396"/><path d="M497.07,260.07c8.19-2.7,13.47-8,14.66-16.75.73-5.33,1.14-10.7,1.64-16a90.66,90.66,0,0,1,2.14-11.2c.82-3.61,3-5.23,6.47-5.84,3.87-.68,7.68-1.71,11.52-2.54,7.68-1.68,12.27-7.1,16.23-13.3l.87-.75c2.49.07,2.22,1.9,2.43,3.58.19,1.49-1,3.5,1.39,4.3,1.45,1.85,2.76.87,4-.27a18,18,0,0,0,4.6-7.25c3.2-9.53,6.37-19.08,4.35-29.39a2.27,2.27,0,0,1,.52-1.89c.36,1.06.71,2.13,1.07,3.19.36,3.38.81,6.75,1,10.13.67,9.34,2.83,18.61.7,28.07-1.52,6.76-2.47,13.64-3.67,20.46-5.11,7.92-10.56,15.65-17.64,21.87-8.67,7.6-17.6,15.21-29,18.32-6.27,1.71-12.91,2-19.35,3.13-4,.67-7.94,1.62-11.91,2.45.87-3.94,4.71-5.93,6.22-9.45a1.79,1.79,0,0,0,1.76-.87Z" fill="#1f997d"/><path d="M561.83,272.14c5.81-3.28,9.51-8.41,12.56-14.16,5.65-10.65,8.85-22.13,11.33-33.81a1,1,0,0,1,1,1.09c.54,23-3.79,44.67-17.61,63.76-1.55,2.14-4.24,3.12-5.27,5.67-.14.29-.29.57-.43.85l1-.07a25.69,25.69,0,0,0,7.33-2.76,116.25,116.25,0,0,0,34.88-28.44c9.24-11,15.65-23.46,21.27-36.57.14,6.22-1,12.27-2,18.35a173.87,173.87,0,0,1-4.09,18.47,145.46,145.46,0,0,1-6.32,17.81c-2.48,5.9-6.83,10.41-11.26,15.55a16.43,16.43,0,0,0,10.86-3c-2.27,7.66-21.87,25-40.84,27.28.68-1.4,2.17-1.83,3.29-2.71,5.59-4.32,11.55-8.2,16-13.91A76.87,76.87,0,0,0,607,278.27c-.74.48-1.45,1-2.14,1.55-8.86,8.22-19,14.43-30,19.52a35.81,35.81,0,0,1-18.78,3.42c-4.91-.47-6-3.21-3.07-7.19a6,6,0,0,1,1.39-1.37c5-3.46,8.95-8.12,12.81-12.71a20.57,20.57,0,0,0,4.64-10.82c-1.9.66-2.52,2.25-3.69,3.25-4.87,4.18-8.7,9.48-14.12,13.06-1.28.85-2.66,1.4-4,.43s-1.15-2.2-.71-3.57c.89-2.77-.91-2.64-2.53-2a44.31,44.31,0,0,0-6.31,3.17c-7.46,4.47-15,8.77-23.43,11.17-1.14.33-2.43.77-3.34-.22-.74-.79.12-1.71.46-2.53.6-1.46,1.61-3.11.29-4.39s-3-.58-4.53-.17a12,12,0,0,0-3.24,1.42c-4.2,2.61-8.78,3.3-13.62,3-7.73-.41-13.86,3.27-19.59,7.87-3.69,3-5,7.64-7.84,11.19v-1.58c.25-12.55,8-20.88,20.57-22.31a120.42,120.42,0,0,0,22.38-4.64c4.59-1.43,8.88-3.36,11.24-8a5.91,5.91,0,0,1,1.83-2.05c1.91-1.34,4-1.61,5.74.17s1.45,3.91-.12,5.64a54.67,54.67,0,0,1-4.69,4.18c-1.45,1.27-2.12,2.91-1,4.53s3,1.37,4.54.28c15-10.65,30.67-20.64,39.22-38,.83-1.69,2.39-3,2.91-5.71.66,6.06-1.73,14.51-7.22,26.68l-.16,1Z" fill="#dcb295"/><path d="M375,194.41c4.67,9.83,13.24,13.34,23.3,15.12,9.45,1.67,10,2.53,11.36,11.69,1,7,1.72,14,2.47,21.08.7,6.6,4.32,11.33,9.54,15a47.24,47.24,0,0,0,5.21,2.77c.49.59,1,1.09,1.89.85,1.46,3.55,5.37,5.49,6.2,9.45-9.71-2.27-19.6-3.47-29.4-5.14-8.21-1.4-15.53-6.26-22.1-11.63-8.55-7-16.77-14.32-23-23.6-1.09-1.63-1.94-3.41-2.9-5.13.05-4.11-1.34-8-2-12-1.26-7.85-3.37-15.54-2.14-23.7,1.2-7.87,1.65-15.86,2.43-23.8l1.19-2.75c-1.12,9.09,0,17.89,2.19,26.56,1.16,4.61,3,9,6.58,12.36,1.23,1.17,2.47,2.27,3.7,0,1.95-.84,1.48-2.61,1.41-4.08-.12-2.41.76-3.73,3.25-3.8Z" fill="#1f997d"/><path d="M311.86,295.53c2.77,1.15,5.47,2.56,9.45,2.19-8.21-7.42-11.48-17.24-15.64-26.43-3.17-7-4.52-14.78-5.82-22.41-1.16-6.85-2-13.75-3.05-20.63l.8-.43c1.14,2.66,2.16,5.37,3.43,8,6.28,12.76,13.66,24.92,23.64,35.06s21.07,19,34.65,24.07c.82.31,1.58,1,2.9.53-8.18-10.28-15.82-20.75-19.38-33.61a108.61,108.61,0,0,1-3.73-38.76c1.15,4.57,2.33,9.14,3.45,13.72,2.64,10.86,7.77,20.52,14.47,29.36,1.82,2.39,3.81,4.72,6.64,6.07l.87.31c-.08-.31-.17-.61-.25-.92-4-7.86-6-16.32-7-25l1,.11c4,11.84,13,19.75,22,27.74,6,5.37,12.87,9.49,19.5,14,1.08.73,2.21,1.54,3.52.25s1-2.55.24-3.94c-1.23-2.26-3.47-3.57-5-5.5s-1.71-3.82.32-5.54c1.87-1.58,4-1.42,5.15.51,5.86,10.05,16.52,10.15,26,12.73a36.68,36.68,0,0,0,7.8,1.11c8.7.41,15.06,5.46,20.61,11.21,2.9,3,2.12,8,2.13,12.18,0,.52-.08,1.05-.13,1.57-2.32-3.46-4.33-7.2-7-10.33-4.61-5.31-10.38-9.28-17.64-9.28-6.47,0-12.58-.55-18.17-4.08a7.3,7.3,0,0,0-2.63-.75c-5.14-.92-5.71-.24-3.93,4.66.32.87.91,1.8.29,2.61-.77,1-1.92.64-2.91.25-2.81-1.11-5.65-2.16-8.41-3.4a138.44,138.44,0,0,1-18.75-10.06c-3.32-2.16-4.24-1.56-4.45,2.14-.17,3-1.58,3.65-4.19,2.49-4.07-1.8-7.18-4.8-10.08-8.06-2.75-3.09-5.45-6.22-8.18-9.33a25.13,25.13,0,0,0,4,11.07A46.67,46.67,0,0,0,372,294.87a4.92,4.92,0,0,1,2.2,5.1c-.26,2.22-2.18,1.89-3.62,2.3a19.15,19.15,0,0,1-9,.16c-11.39-2.2-21-8-30.39-14.5-4-2.8-8-5.68-12.08-8.63a46.56,46.56,0,0,0,8.37,19.7c6.69,9.15,14.4,17.35,24.58,22.82a24.15,24.15,0,0,1-8.06-1.61c-13.48-4.63-25.1-11.79-32.92-24.14Z" fill="#dcb296"/><path d="M691.39,242.72c12.55,2.68,24.38-2.05,36.48-3.72s24.17-4.27,36.34-6.2c-8,2.78-15.52,6.56-24,10.09,3.35,2.42,6.18,4.62,9.17,6.56,1.9,1.24,2.63,2.06.21,3.53-10.8,6.53-21.8,12.64-33.79,16.77-3.36,1.16-6.68,2.41-10,3.63-.79.3-2.2-.11-2.17,1.13a3.38,3.38,0,0,0,1.58,2.1,54.91,54.91,0,0,0,12.51,5.68c1.41.49,3.63.23,3.92,2,.23,1.32-1.52,2.48-2.69,3.16-7.14,4.15-13.72,9.23-21.28,12.7-7.84,3.6-15.3,8-24.34,11.38,8.19,3.33,15.9,4.42,23.55,6.14-27.19,7.19-54.65,5.5-82.14,2.39,30.7-2.51,57.81-14.88,84-30.16-19.75-.27-38.4-5.69-57.12-11.06,30.78-2.09,59.32-12.39,87.85-23-14.08-.64-26.82-4.66-38.05-13.14Z" fill="#3c5c55"/><path d="M581.34,393.45c-.35-6.27.6-12.27-.67-18.29-1.08-5.16-2.88-9.85-7.44-13-1.77-1.21-2.81-1.28-2.75,1.4.09,4.08-.1,8.17-.07,12.25,0,7.29-3,13.4-7.11,19.13-.69,1-1.5,2.05-2.86,1.73-1.55-.37-1.19-1.78-1.25-2.94-.5-9.88-6-17.48-11.48-25.09-1.15-1.6-3-1.38-4.74-1-2,.4-1.67,2.11-1.81,3.48-1,9.47-2.86,18.72-6.85,27.43-.63,1.37-1.13,3.51-3,3.26s-1.51-2.53-1.71-4c-.92-6.75-3.62-12.61-7.45-18.28-4.86-7.19-8.86-15-9.93-23.82-.52-4.37.81-7,5-8.09,5.52-1.35,11.15-2.33,15.39,3.33,1.58,2.12,5.06,1,6.82-1.83,3.8-6.18,9.38-7.75,15.63-4,4.52,2.7,8.19,2.77,12.63-.75,10.63-8.42,22.36-3.9,25.73,9.34a38.66,38.66,0,0,1-4.23,29.69c-2,3.6-5.19,6.71-7.85,10.05Z" fill="#fcca82"/><path d="M251.65,310.91c-3.64-1.71-6.78-3.25-10-4.68a205.35,205.35,0,0,1-33.79-18.54c-.54-.37-1-.83-1.53-1.24-2.31-1.88-2.82-3.13.73-4.35a138.38,138.38,0,0,0,13-5.61,16.24,16.24,0,0,0,3-2.42c-5.7-2-10.94-4-16.2-5.8-11.25-3.93-21.31-10.22-31.68-15.89-2.13-1.16-1.65-1.82.11-2.84,2.5-1.44,4.9-3.06,7.29-4.68.83-.56,2.27-.82,2.16-2.05-.12-1.39-1.68-1.52-2.7-1.94-4.36-1.83-8.78-3.52-13.16-5.3a14.41,14.41,0,0,1-3.67-2.06c22.38,2.61,44.18,8.77,67.19,10a60.59,60.59,0,0,1-37.78,11.38c29.53,10.74,58.88,22.05,91.73,22.94-20.18,5.41-39.37,11.88-60.08,11.08,25.69,15.56,52.75,27.42,83,30.77-26.91,2.46-53.7,4.31-80.22-2l-.06-1c3.78-.68,7.57-1.27,11.33-2a37.17,37.17,0,0,0,11.33-3.77Z" fill="#3c5c55"/><path d="M355.26,361.64c-11.06,3.63-13,16.08-10.58,32.18-.76.44-1.13-.22-1.48-.62-10.63-11.92-15-25.45-10.39-41.2,3.38-11.56,16.88-15.5,25.32-7,3.62,3.65,6.75,3.19,10.46,1.36,8.74-4.32,11.69-3.69,17.48,3.93,2.07,2.72,5.19,2.94,7.79.54a13.83,13.83,0,0,1,16-2,6,6,0,0,1,3.3,6.19c-.36,7.19-3.37,13.46-6.75,19.58-2.86,5.18-6,10.2-8.06,15.79a24.82,24.82,0,0,0-2,8c0,1.52.11,3.62-1.76,3.91s-2.85-1.51-3.6-3.1a75.11,75.11,0,0,1-5.71-18.82c-.55-3.1-1-6.24-1.4-9.36-.18-1.29-.06-2.68-1.8-3.09a3.31,3.31,0,0,0-3.62,1c-5.41,7.76-12.54,14.7-12.41,25.19,0,1.17.26,2.52-1.33,2.89s-2.47-.78-3.15-1.89a39.55,39.55,0,0,1-6.3-20.09c-.14-4.38-.06-8.72-.06-13.39Z" fill="#fcca82"/><path d="M564.3,323.15c-4.64.66-9.14-.77-13.73-.95-9.82-.41-19.72-1.92-29.26,2,.25-5.66,4.07-9.77,6.32-14.56.52-1.11,2.18-1.82,1.25-3.39a4.79,4.79,0,0,0-4.09-2.69,9.68,9.68,0,0,0-5.69,1.3c-6.33,4-13.15,7.39-18.44,12.76-4.88,4.95-6.81,11.5-7.83,18.22a111,111,0,0,0-.21,29.13,39.82,39.82,0,0,1,0,4.37c-1.28.36-1.37-.89-1.78-1.53-6.6-10.44-9.19-21.71-7-34a2.63,2.63,0,0,0,.06-.39c-.16-2.51,1.58-6.27-.77-7.14-1.83-.68-4,3-5.1,5.21a31.35,31.35,0,0,0-3,17.67,50.46,50.46,0,0,1,.46,7.47c-.27-.27-.67-.48-.79-.8-4.28-11.69-7.52-23.57-5.5-36.19,2.14-13.38,10.9-20.83,23.59-23,4-.68,8.07-.94,11.95-2.26,2.46-.84,4.68-.33,5.74,2,1.67,3.68,4.44,3.54,7.59,2.92,7.86-1.56,14.81-5.28,21.74-9.07,2.48-1.36,5.11-4.44,7.11.58a1.25,1.25,0,0,0,1,.6c3.87-.17,2.93,2.12,2.53,4.49-1.62,9.74-1.6,11.44,9.87,10.55.26,0,.51-.17.77-.19,8.54-.77,16.68-3.5,25-5.19l.33.34c0,1.43-1,2.39-1.78,3.41a80.13,80.13,0,0,1-20.31,18.33Z" fill="#20997c"/><path d="M432.75,369.29c-.11-8.15,1.29-16.26.75-24.44-.43-6.45-1.28-12.78-3.71-18.86a28.92,28.92,0,0,0-15.6-16.41,53.88,53.88,0,0,1-7.4-4.53,8.83,8.83,0,0,0-6.39-1.47c-3.11.48-4.17,2.8-2.36,5.35,3.1,4.38,4.72,9.34,6.38,14.94-13.19-5.1-26.19-1.62-39.14-1a23.91,23.91,0,0,1-5.07-.23c-3.56-2.9-7.14-5.77-10.66-8.72-4.36-3.66-8.53-7.49-11.28-13.37,1.22.28,1.71.36,2.19.5a180,180,0,0,0,27,5.49c7.82.93,9.89-1.18,8.52-8.92-.5-2.81-2.18-6.19,2.88-6.64a1.24,1.24,0,0,0,.9-.7c1-3.56,2.78-1.77,4.53-.77a101.93,101.93,0,0,0,23.19,9.79c3.2.88,5.91.13,7.61-2.56,1.89-3,4.27-3.11,7.16-2.19a36.34,36.34,0,0,0,9.22,2,25.52,25.52,0,0,1,24.15,20.73c2.77,14.38-.59,27.89-6.32,41,.58-7,1.74-14.06.05-21.13a26.64,26.64,0,0,0-4.13-9.28c-.67-.94-1.33-2.36-2.66-2-1.67.51-1.06,2.22-1,3.43a40.86,40.86,0,0,0,.8,5.83c1.89,9.57-.19,18.55-4.31,27.1-1.25,2.6-3.54,4.7-5.36,7Z" fill="#20997d"/><path d="M541.27,131.79l.69-.58.79-.78c6.7-1.49,10.55-6.63,14.37-11.59a26,26,0,0,0,5.42-15c-8.47,10-19.06,11.32-30.07,10.51a83.18,83.18,0,0,0-15.7.23c-6.95.79-13.7,2.11-19.12,7.19a17.36,17.36,0,0,1-6.93,4.43c-1.76.48-3.85,1-5.21-.59s-.34-3.51.57-5.11c1.1-1.94,2.55-3.71,2.86-6,.49-3.62-.88-4.73-4.23-3.34a24.85,24.85,0,0,0-7.7,5.37c-1.17,1.13-2.3,1.66-3.83.66-4.28-2.76-5.55-2.31-7.12,2.43-1.07,3.2-2.61,3.63-5,1.28a18.59,18.59,0,0,1-1.9-2.51c-2.1-3.06-4.61-3.92-7.45-1.1-1.86,1.83-3.58,1.4-5.26.09-2.28-1.77-4.45-3.68-6.6-5.62a3.44,3.44,0,0,0-3.57-1.12c-1.7.56-1.14,2.14-1.2,3.39-.16,3.25,2.11,5.51,3.4,8.17.82,1.68,2.68,3.64.42,5.23-2,1.4-4,.39-5.53-1.42-3.54-4.15-8.21-6.54-13.29-8.15-11.38-3.59-23.21-4.21-35-4.75a45.12,45.12,0,0,1-21.94-6.71c-1.13-.69-2.1-1.85-4.13-1.87a41.57,41.57,0,0,0,12.82,18c3.73,3.07,7.35,6.28,11,9.43-20.24-1.51-30.88-14.56-28.18-34.63.38-2.79.52-5.66,1.65-8.32,1.25.25,1.27,1.37,1.67,2.12,6.55,12.13,18.17,18.08,31.81,15.71A50.48,50.48,0,0,1,423.06,112c1.84,1,3.79,1.74,5.69,2.61l.41.48c.24-.33.28-.6-.19-.76-.53-4.55-4.37-6.92-7.25-10.85a71.46,71.46,0,0,1,22.86,3.94c1.2-.67.1-1.37,0-2-.36-3,1-4.16,3.91-3a15.49,15.49,0,0,1,6.13,4.83c2.25,2.73,5.5,4.39,7.39,8,3.62-6.39,8.43-10.63,14.94-12.62,2.1-.65,5-1.39,3.46,2.86l-1.44,1c.87.78,1.54.21,2.22-.31,7.53-3.06,15.22-4.69,24.47-2.73-4.83,2.89-9.34,5.09-9.86,11.25A51.76,51.76,0,0,1,520.15,106a110.76,110.76,0,0,1,20.92,0c8.27.92,14.3-2.3,19.15-8.57,1-1.25,1.91-2.53,3-3.71,1.17-1.35,1.77-4.16,3.41-3.87,2.22.38,2.13,3.33,2.79,5.24,6.71,19.55-13.52,38.07-28.15,36.74Z" fill="#dcb296"/><path d="M662,202.66c41.33-1.94,82.09-1,122.33-13.92-13.18,9.06-26.11,16.27-40.58,20.76,5.37,5.56,23.08,12.5,34.83,12.82-4,2.24-8.3,1.72-12.16,2-15.18,1-30.34,1.43-45.59-.33-15.78-1.83-31-5-45.33-12A55.62,55.62,0,0,1,662,202.66Z" fill="#3c5c55"/><path d="M147.26,222.4c12.74-1.47,24.31-6,36-13.13-14.81-3.61-26.64-11-38.33-18.7,39,9.87,78.66,11,118.9,11.12-6.81,6.65-14.65,10.84-23.11,14.11-10.73,4.14-21.94,6.21-33.26,7.66a160.38,160.38,0,0,1-21.24,1.13c-13-.07-26,.08-39-2.19Z" fill="#3c5c55"/><path d="M461.52,190.48a9.37,9.37,0,0,1,6.09,2.13c5,4.22,9.89,8.62,15.3,12.36,1.61,1.11,1.92,2.41,1.56,4.38-2.13,11.68-7.71,21.89-13.44,32-1.86,3.28-4.56,6-5.78,9.76-1,3-4.32,3.55-6.08.67-5.24-8.55-11.36-16.69-13.87-26.67-1.13-4.45-1.91-9-3.26-13.39-1.14-3.67-.23-6.12,2.71-8.51,3.87-3.15,7.44-6.68,11.05-10.15a10,10,0,0,1,5.72-2.58Z" fill="#fccb83"/><path d="M382.89,131.94c-3.68-3.15-7.3-6.36-11-9.43a41.57,41.57,0,0,1-12.82-18c2,0,3,1.18,4.13,1.87a45.12,45.12,0,0,0,21.94,6.71c11.79.54,23.62,1.16,35,4.75,5.08,1.61,9.75,4,13.29,8.15,1.55,1.81,3.55,2.82,5.53,1.42,2.26-1.59.4-3.55-.42-5.23-1.29-2.66-3.56-4.92-3.4-8.17.06-1.25-.5-2.83,1.2-3.39,1.36-.45,2.51.16,3.57,1.12,2.15,1.94,4.32,3.85,6.6,5.62,1.68,1.31,3.4,1.74,5.26-.09,2.84-2.82,5.35-2,7.45,1.1a18.59,18.59,0,0,0,1.9,2.51c2.34,2.35,3.88,1.92,5-1.28,1.57-4.74,2.84-5.19,7.12-2.43,1.53,1,2.66.47,3.83-.66a24.85,24.85,0,0,1,7.7-5.37c3.35-1.39,4.72-.28,4.23,3.34-.31,2.29-1.76,4.06-2.86,6-.91,1.6-2,3.44-.57,5.11s3.45,1.07,5.21.59a17.36,17.36,0,0,0,6.93-4.43c5.42-5.08,12.17-6.4,19.12-7.19a83.18,83.18,0,0,1,15.7-.23c11,.81,21.6-.51,30.07-10.51a26,26,0,0,1-5.42,15c-3.82,5-7.67,10.1-14.37,11.59a23.71,23.71,0,0,0,7.74-13c-9.55.82-19-.32-28.32,1.1-10.33,1.56-19.59,5.76-28.34,11.26-2.77,1.74-5.3,3.9-8.55,4.83-3.68,1.06-6.63-.91-6.68-4.72,0-2.16-.56-4.48,1.25-6.37a1.58,1.58,0,0,0,0-2.18c-.82-.69-1.35.28-2,.72-3.68,2.76-4.29,2.76-8.28,0-4.22,5.54-6.31,5.44-13.88,1.33-1.55-.85-2.39-1.41-4.4-.61-3.37,1.35-6.09-1.66-9.12-2.73a1.11,1.11,0,0,0-.14-.29h-.21l.39.27c-.28,3.38,1.68,6.28,2,9.57.49,4.8-1.3,6.46-5.88,5-2.31-.72-4.59-1.7-6-3.56-4.14-5.31-9.9-7.81-16.06-9.42a114.8,114.8,0,0,0-25.66-4c-5.22-.15-10.43-1-15.64-1.52l-.29-.36V116a1.39,1.39,0,0,0,.28.12c2,5.15,6.13,8.71,9.76,12.62,1.16,1.26,2.37,2.46,3.56,3.69-2,.57-3.7-.33-5.5-.49Z" fill="#aa6750"/><path d="M449.31,358.23c5.73-13.11,9.09-26.62,6.32-41a25.52,25.52,0,0,0-24.15-20.73,36.34,36.34,0,0,1-9.22-2c-2.89-.92-5.27-.79-7.16,2.19-1.7,2.69-4.41,3.44-7.61,2.56a101.93,101.93,0,0,1-23.19-9.79c-1.75-1-3.56-2.79-4.53.77a1.24,1.24,0,0,1-.9.7c-5.06.45-3.38,3.83-2.88,6.64,1.37,7.74-.7,9.85-8.52,8.92a180,180,0,0,1-27-5.49c-.48-.14-1-.22-2.19-.5,2.75,5.88,6.92,9.71,11.28,13.37,3.52,2.95,7.1,5.82,10.66,8.72-2.72-.16-5.54.63-8.15-.74-10.18-5.47-17.89-13.67-24.58-22.82a46.59,46.59,0,0,1-8.37-19.74c4.07,2.95,8,5.83,12.08,8.63,9.38,6.49,19,12.3,30.39,14.5a19.15,19.15,0,0,0,9-.16c1.44-.41,3.36-.08,3.62-2.3a4.92,4.92,0,0,0-2.2-5.1,46.74,46.74,0,0,1-13.74-13.95,25.13,25.13,0,0,1-4-11.07c2.73,3.11,5.43,6.24,8.18,9.33,2.9,3.26,6,6.26,10.08,8.06,2.61,1.16,4,.51,4.19-2.49.21-3.7,1.13-4.3,4.45-2.14a138.44,138.44,0,0,0,18.75,10.06c2.76,1.24,5.6,2.29,8.41,3.4,1,.39,2.14.76,2.91-.25.62-.81,0-1.74-.29-2.61-1.78-4.9-1.21-5.58,3.93-4.66a7.3,7.3,0,0,1,2.63.75c5.59,3.53,11.7,4.08,18.17,4.08,7.26,0,13,4,17.64,9.28,2.71,3.13,4.72,6.87,7,10.33.09,8.15.3,16.44-1.66,24.29s-3.68,16.08-9.2,22.6l-.11-.1v-1.62Z" fill="#a96850"/><path d="M438.53,419.88c-1.54,14.56-4.18,29-5.49,43.57-1.26,14-3,27.92-4.55,42.69,3.89-2,7.24-3.61,10.44-5.46,7.49-4.36,15.33-8.17,22.26-13.42,1.74-1.32,2.61-.18,3.76.55,8.77,5.55,17.52,11.13,26.31,16.66.85.53,1.56,1.48,3,1.24l-8-80.29c-.73-3.35-.32-6.75-.43-10.73,2.06,2.52,2.4,5.12,3,7.63-1.87,3-.07,5.92.39,8.71,3.7,22.53,7.45,45.06,11.73,67.49,1.13,6,2.67,11.87,3.67,18.12-3.47-.64-6-2.74-8.76-4.37q-15.44-9.16-30.7-18.59c-2.06-1.28-3.56-1-5.39.17q-16.63,10.63-33.3,21.15l-5.07,3.21c.76-5.5,1.35-10.11,2.05-14.7q4.64-30.56,9.33-61.1c.63-4.15,1.35-8.29,2-12.43.24-1.51,1-3.08-.32-4.48.41-3.58,2.31-6.52,4.13-9.7.77,1.49.06,2.79-.06,4.08Z" fill="#a96850"/><path d="M375.88,158.79c0-12.6,11.23-19.57,22.76-14.14,3.41,1.61,3.93,4,1.46,6.89-.67.81-1.56,1.42-2.24,2.22-4.15,4.89-2.66,11,3.31,13,1.93.65,3.34,1.4,3.72,3.52.43,2.3-1.36,3.16-2.66,4.43s-4.39,1.15-3.54,3.37c.63,1.65,3.32.7,5.11.68,9.9-.14,16.84-4.42,19.8-14.23.9-3,3.24-3.62,5.92-3.41s3.24,2.38,3.64,4.5c.53,2.91-.8,5.36-2.05,7.85-5.59,11.12-33,18-43.77,10.5-7-4.85-11.48-14-11.46-25.18Z" fill="#fac982"/><path d="M564.3,323.15a80.37,80.37,0,0,0,20.32-18.29c.81-1,1.75-2,1.78-3.42.07-.19.15-.38.23-.58l-.56.25c-8.35,1.69-16.49,4.42-25,5.19-.26,0-.51.17-.77.19-11.47.89-11.49-.81-9.87-10.55.4-2.37,1.34-4.66-2.53-4.49a1.25,1.25,0,0,1-1-.6c-2-5-4.63-1.94-7.11-.58-6.93,3.79-13.88,7.51-21.74,9.07-3.15.62-5.92.76-7.59-2.92-1.06-2.33-3.28-2.84-5.74-2-3.88,1.32-8,1.58-12,2.26-12.69,2.13-21.45,9.58-23.59,23-2,12.62,1.22,24.5,5.5,36.19.12.32.52.53.79.8a3,3,0,0,0,.84,2.7c.18.73.37,1.46.61,2.41-7.61-8-12.72-30.89-11.17-49.3,2.87-3.55,4.15-8.23,7.84-11.19,5.73-4.6,11.86-8.28,19.59-7.87,4.84.25,9.42-.44,13.62-3A12,12,0,0,1,510,289c1.51-.41,3.32-1,4.53.17s.31,2.93-.29,4.39c-.34.82-1.2,1.74-.46,2.53.91,1,2.2.55,3.34.22,8.44-2.4,16-6.7,23.43-11.17A44.31,44.31,0,0,1,546.9,282c1.62-.64,3.42-.77,2.53,2-.44,1.37-.55,2.68.71,3.57s2.75.42,4-.43c5.42-3.58,9.25-8.88,14.12-13.06,1.17-1,1.79-2.59,3.69-3.25a20.57,20.57,0,0,1-4.64,10.82c-3.86,4.59-7.77,9.25-12.81,12.71a6,6,0,0,0-1.39,1.37c-2.94,4-1.84,6.72,3.07,7.19A35.81,35.81,0,0,0,575,299.47c10.91-5.09,21.09-11.3,29.95-19.52.69-.55,1.4-1.07,2.14-1.55a77.14,77.14,0,0,1-13.58,27.24c-4.4,5.71-10.36,9.59-16,13.91-1.12.88-2.61,1.31-3.29,2.71a44.87,44.87,0,0,1-9.88.89Z" fill="#a96750"/><path d="M549.25,160.33c.51,14.68-10.27,26-22.71,26.52-7.88.32-15.35-1.74-22.49-5.09-3.5-1.65-6.71-3.57-9.08-6.71a15.71,15.71,0,0,1-3.22-6.7c-.49-2.83-.46-5.87,2.58-7.16,2.88-1.24,5.26.05,6.93,2.82a22,22,0,0,1,1.39,2.28c4.89,10.54,9.77,12,22,12.32.87,0,2,.17,2.26-1.05s-.86-1.51-1.63-1.95c-1.25-.69-2.6-1.22-3.8-2a3.46,3.46,0,0,1-1.58-4.11,3.63,3.63,0,0,1,3-2.75c7.47-1.86,9.28-8.37,3.94-13.89-1.54-1.59-3.67-3.09-2.84-5.64s3.39-3,5.73-3.57a19.47,19.47,0,0,1,15.46,2.93C549.61,149.48,549.11,154.54,549.25,160.33Z" fill="#fac982"/><path d="M593.16,530.81c-7.85-.92-15.09-4.15-22.68-6-10.14-2.5-19.9-6.34-30.17-8.36h-.79c-.27-.69-.86-.74-1.48-.76a5.26,5.26,0,0,1-.95-3.33c14.18,3.29,28.37,6.49,42.51,9.91,3.44.83,4,.08,3-3.15-3.17-9.87-6.14-19.8-9.22-29.7a7.86,7.86,0,0,1-.64-3.83l.07-.07c11,2,21.74,4.94,32.58,7.56l17.24,4.16c2.4.58,3.46.23,2.41-2.63-4.79-12.95-8.94-26.17-14.35-38.86-3.44-8.09-6.15-16.42-9.44-24.54-.54-1.33-1.2-2.67-.83-4.19,1.85,1.52,2.1,3.86,3,5.86q13.83,30.9,26.6,62.25c1.45,3.55,4,6.66,4.88,10.89-6.53-1-12.51-3.34-18.64-5.06l-35.63-10c-.86-.24-1.78-1-2.6-.29-1.09.93-.08,2,.24,2.87,4,11.51,9.53,22.41,14.18,33.67a32.61,32.61,0,0,1,1,3.37Z" fill="#a96850"/><path d="M290.31,504.52c1.23-6.38,4.36-12.07,6.82-18,8.52-20.46,18-40.52,26.11-61.17a7,7,0,0,1,1.15-1.51c-.37,5-2.81,9.26-4.38,13.82-3.78,10.94-7.51,21.92-11.93,32.6-3.11,7.49-6.11,15-8.84,22.65-.37,1-1.58,2.21-.59,3.24s2.24-.11,3.32-.37q24.34-5.71,48.67-11.54c.49-.12,1-.13,2.37-.29-5.11,12.52-8.89,24.95-12.79,38l46.63-10.71a5.42,5.42,0,0,1-1.16,3.59c-.75.1-1.62-.11-2,.84h.07c-8,1-15.47,3.93-23.17,6-8.74,2.4-17.42,5-26.12,7.54-.85.25-1.77,1-2.57.24-1-1-.07-2,.28-2.88,4.45-11.25,8.95-22.47,13.42-33.71.48-1.2.9-2.42,1.55-4.21-9.16,2.58-17.82,5-26.45,7.49-10.08,2.93-20.09,6.1-30.33,8.41Z" fill="#a96850"/><path d="M434.94,270.36c-.83-4-4.74-5.9-6.2-9.45,1.41,0,3.05-.12,1.31-2a37.41,37.41,0,0,0-6.41-5.78c-6.19-4.06-7.91-10.22-8.29-17-.42-7.44-2.17-14.64-3.89-21.81-1.61-6.71-8.64-10.83-17.63-11.27-4.9-.23-9.41-1.25-11.72-6.31,10.64,3.12,22.21,2.2,32.32,7.75,2.89,1.59,4.86,3.46,5.6,6.63a54.69,54.69,0,0,1,.4,21.48c-.36,2.12-2.3,4.88.94,6.2,2.85,1.15,4.18-1.31,5.45-3.34.2-.32.38-.66.71-1.22.85,2.35-.09,4.06-.36,5.8-1.33,8.25,1.5,14.18,8.74,18.33,4.9,2.8,9.91,5.46,14.49,8.72,6,4.29,9.9,10.16,11.11,18.86-7.73-8.5-16.66-12.95-26.57-15.59Z" fill="#a7634c"/><path d="M495.25,260.91c-1.51,3.52-5.35,5.51-6.22,9.45-5,2.22-10.55,3.24-15.31,6.19-3.69,2.29-7.11,4.87-9.64,9.11-.72-7.13,4.59-16.16,11.44-19.63,5.9-3,11.53-6.23,16.41-10.78,4.49-4.17,7.11-8.65,5-15-.56-1.66-1.21-3.53-.62-5.53a3.89,3.89,0,0,1,.82.75c1.43,2.32,3.07,4.82,6.17,3.48s1.47-4.12,1.06-6.26a56.21,56.21,0,0,1-.22-19.19c.78-5.19,3.87-8.3,8.63-10.3,7.15-3,14.7-3.84,22.26-4.64,2.23-.24,4.15-1.42,7-1.88A11.75,11.75,0,0,1,531.76,203a42.21,42.21,0,0,0-9.63,1.88c-5.24,1.59-8.93,5.07-10.09,10.61a125.51,125.51,0,0,0-2.67,19.87c-.33,7.18-1.61,14.08-9.12,17.91-2.38,1.21-4.25,3.49-6.23,5.4s-.44,2.2,1.23,2.24Z" fill="#a7634c"/><path d="M387.12,434.89c-17.48-.06-29.82-10.47-32.33-26.09-.12-.76-.54-1.63.38-2.09s1.46.37,2,.9a56.64,56.64,0,0,0,9.53,7.66c4.11,2.51,8.26,3.56,13.1,1.8a25.64,25.64,0,0,1,12.84-1.32c5.89.93,9.94,5.79,9.19,11.63-.55,4.29-4,5.69-7.5,6.56A51.56,51.56,0,0,1,387.12,434.89Z" fill="#fac982"/><path d="M537.94,415.18a28,28,0,0,1,8.25,1.59,12.08,12.08,0,0,0,11.62-1.52c3.67-2.5,7.17-5.25,10.72-7.92.64-.48,1.23-1.26,2-.86,1.09.54.56,1.63.37,2.44-4.2,17.51-18.69,28.69-38.41,25-6.2-1.16-8.75-4.27-8.12-9.14C525.28,418,529.05,415,537.94,415.18Z" fill="#fac982"/><path d="M318.16,404.22a.83.83,0,0,1-.07.6c-.9.56-1.94,1-1.72,2.39v-.07c-.94-.31-1.36.51-2,.89l-1.12.85-.83.81-.82.82-.81.81a30.59,30.59,0,0,0-8,5.37c-8.15,7.22-16.76,13.84-25.18,20.72-5.91,4.82-11.45,10.09-18.69,14.95h12.15l12.82.21c-1.75,4.47-4.62,6.38-9.81,6.45-12.48.18-25,1.21-37.44,1.88-.85.05-1.7,0-3.74,0l84.66-57.06Z" fill="#dbb195"/><path d="M607.58,406.37a8.79,8.79,0,0,1,4.59,1.87c11.35,7.83,22.68,15.69,34.08,23.45,13.34,9.09,26.73,18.09,40.1,27.14,1.08.73,2.12,1.53,3.21,2.32-.77,1.37-1.94.71-2.84.68-13-.57-26-1.37-39-1.73-4.51-.13-5.89-3.16-7.63-6.21,4.54-.51,9.17.6,13.68-.63a47.62,47.62,0,0,1,10.19.56c-.24-1.76-1.52-2.39-2.47-3.17-12.67-10.36-25.29-20.78-38.15-30.91-2.45-1.93-4-5.37-7.84-5.39.14-1.21-.44-1.69-1.6-1.6a.76.76,0,0,0-.71-.81h-.1a.8.8,0,0,0-.78-.82h0l-.82-.82-1-.88h-2.17c.5-.94,0-1.33-.83-1.61a.59.59,0,0,0-.06-.65Z" fill="#dbb195"/><path d="M608.38,409.55h2.18l1,.88.82.82.82.82.81.81a2,2,0,0,0,1.6,1.6c6.44,8.33,14.48,15.1,21.87,22.51,5.46,5.47,10.28,11.58,16.4,16.4-4.51,1.23-9.14.12-13.68.63-9.64-12.78-19-25.73-27.83-39.12-1.37-1.9-3.82-2.82-4-5.35Z" fill="#20987c"/><path d="M284,452.47l-12.82-.21a187.06,187.06,0,0,1,17-17.37c6.89-6.43,12.6-14.06,20-20,1.16-.93,2.63-1.85,2.72-3.67a.73.73,0,0,0,.81-.64.49.49,0,0,0,0-.17.77.77,0,0,0,.82-.72v-.1a.78.78,0,0,0,.83-.73v-.08l1.12-.85c.61-.38,1-1.2,2-.89-1.88,5.12-5.4,9.29-8.71,13.39-7.49,9.3-13.64,19.51-20.62,29.13C286.23,450.79,285.76,452.34,284,452.47Z" fill="#20987c"/><path d="M355.89,165.38c-.78,7.94-1.23,15.93-2.43,23.8-1.23,8.16.88,15.85,2.14,23.7.65,4,2,7.87,2,12-4.22-6.66-6.12-14.14-7-21.82-.31-2.74-2-5-1.67-7.9C350.3,185,351.54,174.83,355.89,165.38Z" fill="#9f634d"/><path d="M567,224.59c1.2-6.82,2.15-13.7,3.67-20.46,2.13-9.46,0-18.73-.7-28.07-.24-3.38-.69-6.75-1-10.13,3.35,5.93,4.45,12.54,5.31,19.1a68,68,0,0,1-4.79,35.68C568.81,222.11,568.52,223.78,567,224.59Z" fill="#9f634d"/><path d="M128.17,168.35c11.32,3.88,22.24,9,34.05,11.56-7.36-.3-14.85,1.78-21.88-1.34-5-2.21-10.08-4.48-12.16-10.23Z" fill="#3c5c55"/><path d="M797.36,167.94c-5.09,10.33-12.78,13.06-32.29,11.95C775.63,176.25,786.57,173.66,797.36,167.94Z" fill="#3c5c55"/><path d="M374.21,193.66c-2.49.07-3.37,1.39-3.25,3.8.07,1.47.54,3.24-1.41,4.08-1.35-8.54-3.43-17-2.17-26.41a86.14,86.14,0,0,1,2.49,8.63c.69,3.67,4.39,6,4.34,9.9Z" fill="#9f634d"/><path d="M554.38,201.54c-2.37-.8-1.2-2.81-1.39-4.3-.21-1.68.06-3.51-2.43-3.58,1.53-6.19,4.78-11.8,6-18.12a67.08,67.08,0,0,1-1.5,21.74A38.52,38.52,0,0,0,554.38,201.54Z" fill="#9f634d"/><path d="M600.44,423.79v3.26c-2.31-2.28-2.66-5.32-3.2-8.29,1.08,1.11,2.27,2.16,2.43,3.85.11.54.21,1.08.85,1.26Z" fill="#a96850"/><path d="M324.38,423.89v-2.74a8.05,8.05,0,0,1,2.44-3.63A9,9,0,0,1,324.38,423.89Z" fill="#a96850"/><path d="M607.58,406.37v1l-1.17-.13a11.12,11.12,0,0,1-2.77-4c1.56-.2,2.4.82,3.19,1.91a1.21,1.21,0,0,0,.84,1.23Z" fill="#77795f"/><path d="M358.3,246.7l-1-.11c-.84-1-.69-2.1-.07-3.82.45,1.65.77,2.79,1.07,3.93Z" fill="#77795f"/><path d="M296.8,228.25a3.2,3.2,0,0,1,.05-2.54c.89.65.74,1.41.75,2.11A6.89,6.89,0,0,1,296.8,228.25Z" fill="#77795f"/><path d="M316.37,407.21c-.22-1.36.82-1.83,1.72-2.39A2.4,2.4,0,0,1,316.37,407.21Z" fill="#20987c"/><path d="M476.26,359.29a3,3,0,0,1-.84-2.7C476.57,357.23,476.16,358.34,476.26,359.29Z" fill="#20997c"/><path d="M163,232.62l.28.12-.38.28c0-.08-.16-.19-.14-.23A.93.93,0,0,1,163,232.62Z" fill="#3c5c55"/><path d="M864.81,218.39c-.27.51-.91.74-1.12.32-.32-.61.48-.5.82-.67a3.27,3.27,0,0,1,.3.35Z" fill="#dbb195"/><path d="M617.08,216.65a1.44,1.44,0,0,1,.72-1.66A1.55,1.55,0,0,1,617.08,216.65Z" fill="#aa6750"/><path d="M607.58,408c.78.28,1.33.67.83,1.61A1.16,1.16,0,0,1,607.58,408Z" fill="#20987c"/><path d="M449.45,359.88c-.14.36-.28.72-.41,1.08l-.45-1,.75-.21Z" fill="#a96850"/><path d="M449.34,359.78l-.75.21c0-.7-.06-1.45.76-1.83C449.34,358.7,449.34,359.24,449.34,359.78Z" fill="#20997d"/><path d="M383.68,515.67c.39-.95,1.26-.74,2-.84A2.08,2.08,0,0,1,383.68,515.67Z" fill="#deb396"/><path d="M428.78,260.93c-.87.24-1.4-.26-1.89-.85C427.63,260.1,428.42,260.05,428.78,260.93Z" fill="#a7634c"/><path d="M497.07,260.07a1.79,1.79,0,0,1-1.86.86C495.56,260.05,496.34,260.11,497.07,260.07Z" fill="#a7634c"/><path d="M382.11,196.82l-.58-.84.32-.17c.07.34.15.69.23,1Z" fill="#a7634c"/><path d="M815.64,93.31c-.19.56-.61.91-1.16.68s-.34-.56.1-.78Z" fill="#77795f"/><path d="M538,515.7c.62,0,1.21.07,1.48.76C538.87,516.51,538.27,516.46,538,515.7Z" fill="#dbb195"/><path d="M23.64,138.38c-.52-.23-.74-.84-.36-1.06s.53.44.72.76Z" fill="#deb397"/><path d="M461.74,287.16l-.23.07a1.75,1.75,0,0,1-.12-.32l.4-.09Z" fill="#a7634c"/><path d="M463.34,287.17l-.24.07-.1-.32.4-.1Z" fill="#a7634c"/><path d="M143.44,189.21v.26a.42.42,0,0,1-.31.06c-.33-.16-.31-.33,0-.42C143.22,189.08,143.34,189.17,143.44,189.21Z" fill="#3c5c55"/><path d="M784.73,296.84a1.4,1.4,0,0,1,1.63-1.12h0Z" fill="#deb497"/><path d="M139.2,294.94a1.34,1.34,0,0,1,1.6,1,.69.69,0,0,1,0,.2C140.24,295.81,139.39,295.83,139.2,294.94Z" fill="#deb397"/><path d="M311.08,296.11l-.45-.89.3-.33.93.64Z" fill="#dcb296"/><path d="M310.63,295.22a.88.88,0,0,1-.44-1.16h0l-.05.06.79.78Z" fill="#dcb296"/><path d="M310.19,294.05l-.48-.24h.21a2,2,0,0,1,.22.29Z" fill="#dcb296"/><path d="M146.34,298.07l1.1.84C146.92,298.83,146.44,298.7,146.34,298.07Z" fill="#aa664f"/><path d="M777.52,299.65l.92-.8Z" fill="#aa6750"/><path d="M521.31,324.16l-.18.3.22-.25Z" fill="#20997c"/><path d="M432.71,369.25a1.15,1.15,0,0,1-.11.31.51.51,0,0,0-.22.05l.37-.32Z" fill="#20997d"/><path d="M691.41,242.69l-.33-.17.31.2Z" fill="#3c5c55"/><path d="M318.83,403.31l.2-.58.35.32-.58.22Z" fill="#dbb195"/><path d="M603.61,403.27l-.33-.19.29.23Z" fill="#77795f"/><path d="M317.68,403.75l1.15-.44a.77.77,0,0,1-.52,1,.53.53,0,0,1-.12,0Z" fill="#dbb195"/><path d="M71.22,226.09l.61.41c-.44.23-.76.27-.62-.4Z" fill="#dbb195"/><path d="M70.5,225.37a.63.63,0,0,1,.72.72h-.69A2.9,2.9,0,0,1,70.5,225.37Z" fill="#dbb195"/><path d="M607.6,406.45a1.21,1.21,0,0,1-.84-1.23C607.25,405.49,607.82,405.69,607.6,406.45Z" fill="#dbb195"/><path d="M870.19,225.32l.4-.55c.27.54.1.69-.45.5Z" fill="#deb497"/><path d="M55.81,225.66l-.26-.83.74.36A4.29,4.29,0,0,1,55.81,225.66Z" fill="#deb397"/><path d="M606.38,407.24l1.17.13a.59.59,0,0,1,.06.65Z" fill="#20987c"/><path d="M550.6,193.64l-.87.75Z" fill="#9f634d"/><path d="M375,194.41l-.84-.77Z" fill="#9f634d"/><path d="M128.18,168.34l-.34-.18.33.19Z" fill="#3c5c55"/><path d="M327.43,416.77l-.7.82C327,417.31,327.2,417,327.43,416.77Z" fill="#a96850"/><path d="M664.48,154.08a.84.84,0,0,1-.13.27h-.19l.37-.25Z" fill="#20997d"/><path d="M877.31,148.59l-.4.59c-.55-.4-.19-.58.18-.76Z" fill="#dbb195"/><path d="M877.09,148.42c0-.49.13-.87.68-1a4.45,4.45,0,0,0,.48.49l-.94.64Z" fill="#dbb195"/><path d="M600.48,423.87c-.64-.18-.74-.72-.85-1.26Z" fill="#deb396"/><path d="M879,147.22l-.71.73a4.45,4.45,0,0,1-.48-.49l.24-.1Z" fill="#dbb195"/><path d="M539.46,516.43h.85v.73C539.83,517.15,539.48,517,539.46,516.43Z" fill="#dbb195"/><path d="M676.57,532.82c.34.2.69.42.17.77l-.51-.43C676.34,533.05,676.45,532.93,676.57,532.82Z" fill="#deb396"/><path d="M617.88,556.71l.52.41-.26.23c-.16-.14-.31-.3-.46-.46Z" fill="#deb396"/><path d="M188.23,278.35l-.32-.44.45.32Z" fill="#332b26"/><path d="M110,175.47a1,1,0,0,1-.33-.14v-.26l.39.38Z" fill="#332b26"/><path d="M86.19,249.87l-.33-.46.47.33Z" fill="#aa664f"/><path d="M65.87,166.58l.38.85-1-.23Z" fill="#332b26"/><path d="M820.77,242.86l.27.25c-.1.08-.2.21-.3.21s-.18-.15-.26-.24Z" fill="#77795f"/><path d="M863.7,181.64l.55-.27-.29.52Z" fill="#aa6750"/><path d="M484.08,186.59l-.48-.39c.38-.4.53-.12.67.21Z" fill="#332b26"/><path d="M542.75,130.43l-.79.78Z" fill="#aa6750"/><path d="M572.7,485.6l-.31-.36.38.29Z" fill="#a96850"/><path d="M561.65,494.28l.41.32h-.24a1.3,1.3,0,0,1-.14-.32Z" fill="#332b26"/><path d="M593.42,530.55l.27.5-.52-.25Z" fill="#a96850"/><path d="M290.36,504.57l-.37.29.32-.34Z" fill="#a96850"/><path d="M564.41,295.47l-1,.07c.14-.28.29-.56.43-.85Z" fill="#332b26"/><path d="M561.83,272.14l-.91.4c.06-.32.11-.63.16-1Z" fill="#332b26"/><path d="M364.29,271.61c.08.31.17.61.25.92l-.87-.31Z" fill="#332b26"/><path d="M481.21,106.11c-.68.52-1.35,1.09-2.22.31l1.44-1Z" fill="#332b26"/><path d="M429,114.3c.47.16.43.43.19.76l-.41-.48Z" fill="#332b26"/><path d="M442.24,120.07l-.39-.27h.21a1.11,1.11,0,0,1,.14.29Z" fill="#20997d"/><path d="M375,116.13a1.39,1.39,0,0,1-.28-.12v-.22l.29.36Z" fill="#20997d"/><path d="M586.07,301.11l.56-.25c-.08.2-.16.39-.23.58Q586.23,301.29,586.07,301.11Z" fill="#20997c"/><path d="M310.94,411.22c-.09,1.82-1.56,2.74-2.72,3.67-7.4,5.94-13.11,13.57-20,20a187.06,187.06,0,0,0-17,17.37H259c7.24-4.86,12.78-10.13,18.69-14.95,8.42-6.88,17-13.5,25.18-20.72A30.55,30.55,0,0,1,310.94,411.22Z" fill="#a96850"/><path d="M314.41,408l-1.12.85Z" fill="#a96850"/><path d="M313.33,408.85a.78.78,0,0,1-.75.81h-.08Z" fill="#a96850"/><path d="M312.53,409.63a.77.77,0,0,1-.72.82h-.1Z" fill="#a96850"/><path d="M311.73,410.42a.73.73,0,0,1-.64.81h-.17Z" fill="#a96850"/><path d="M653.73,453.26c-6.12-4.82-10.94-10.93-16.4-16.4-7.39-7.41-15.43-14.18-21.87-22.51,3.8,0,5.39,3.46,7.84,5.39,12.86,10.13,25.48,20.55,38.15,30.91.95.78,2.23,1.41,2.47,3.17a47.62,47.62,0,0,0-10.19-.56Z" fill="#a96850"/><path d="M615.48,414.36a2,2,0,0,1-1.6-1.6C615,412.67,615.62,413.15,615.48,414.36Z" fill="#a96850"/><path d="M611.53,410.41l-1-.88Z" fill="#a96850"/><path d="M612.32,411.2l-.82-.82Z" fill="#a96850"/><path d="M613.11,412l-.82-.82a.8.8,0,0,1,.82.78Z" fill="#a96850"/><path d="M613.9,412.78l-.81-.81a.76.76,0,0,1,.81.71Z" fill="#a96850"/><path d="M1017.36,121h178.69c65.31,0,106.06,16.19,131.67,41.8,22.46,22.46,33.44,49.11,33.44,86.73v1c0,53.82-27.7,90.39-72.11,111.82l85.17,124.35H1234.71l-69-104.5h-26.12V486.7H1017.36Zm175,174c29.26,0,47-13.07,47-35.53v-1.05c0-23.51-17.77-35-46.51-35h-53.29V295Z" fill="#20997d"/><path d="M1382.57,304.87v-1c0-106.07,87.26-190.71,200.12-190.71s199.07,83.07,199.07,189.66v1.05c0,106.06-87.26,190.71-200.12,190.71S1382.57,411.46,1382.57,304.87Zm275.88,0v-1c0-43.37-29.78-82.56-76.81-82.56-46.5,0-75.76,38.67-75.76,81.51v1.05c0,43.37,29.78,82.55,76.81,82.55C1629.19,386.38,1658.45,347.72,1658.45,304.87Z" fill="#20997d"/><path d="M1773.4,121h128l51.72,175.55,59-176.6h105.55l59,176.6L2228.49,121h125.92L2234.76,489.31H2128.17L2063.9,307.48l-64.26,181.83H1893.05Z" fill="#20997d"/><path d="M2375.3,121h122.27V257.85l104-136.89h142.12L2616.17,279.79l130.1,206.91H2600.5l-71.59-116-31.34,38.14V486.7H2375.3Z" fill="#20997d"/><path d="M2756.72,121h311.92V221.27H2876.89v37.1h178.69v88.3H2876.89v39.71h194.37V486.7H2756.72Z" fill="#20997d"/><path d="M3197.69,224.41H3090.06V121h337.53V224.41H3320V486.7H3197.69Z" fill="#20997d"/></svg>