<?xml version="1.0" encoding="utf-8"?>
<!-- Generator: Adobe Illustrator 23.0.3, SVG Export Plug-In . SVG Version: 6.00 Build 0)  -->
<svg version="1.1" id="Layer_1" xmlns="http://www.w3.org/2000/svg" xmlns:xlink="http://www.w3.org/1999/xlink" x="0px" y="0px"
	 viewBox="0 0 923.8 581.7" style="enable-background:new 0 0 923.8 581.7;" xml:space="preserve">
<style type="text/css">
	.st0{fill:#332B26;}
	.st1{fill:#77795F;}
	.st2{fill:#DEB497;}
	.st3{fill:#20997D;}
	.st4{fill:#DEB397;}
	.st5{fill:#AA6750;}
	.st6{fill:#AA664F;}
	.st7{fill:#20987C;}
	.st8{fill:#DEB396;}
	.st9{fill:#1F997D;}
	.st10{fill:#DCB295;}
	.st11{fill:#DCB296;}
	.st12{fill:#3C5C55;}
	.st13{fill:#FCCA82;}
	.st14{fill:#20997C;}
	.st15{fill:#FCCB83;}
	.st16{fill:#A96850;}
	.st17{fill:#FAC982;}
	.st18{fill:#A96750;}
	.st19{fill:#A7634C;}
	.st20{fill:#DBB195;}
	.st21{fill:#9F634D;}
</style>
<path class="st0" d="M879.3,146.9c10.8-9.1,22-17.8,30.2-29.6c-1.8,15-5,29.7-9.6,44.1c-2,6.4-4,12.9-7,18.8
	c-5.2,10.1-10.4,20.2-17.9,28.9c-2.6,3-5.8,5.2-8.8,7.7c-0.7,0.2-1.4,0.7-1.6,1.4c-0.3,0.2-1.1,0.1-0.8,0.7c0.2,0.4,0.8,0.2,1.1-0.3
	l1.3-0.4c9.2-3.1,17.8-7.5,27.3-12.2c-4.1,10-8.2,19.1-13.5,27.6c-7.9,12.6-18.2,23.1-29.3,32.8c-13.6,11.6-28.5,21.6-44.4,29.8
	c-26,13.5-53.4,23.3-81.7,30.6c-31.6,8.1-63.8,13.7-96.3,16.8c-3.3,0.3-6.6,0.6-9.8,1c-2,0.2-4.1,0.3-4.9,2.6
	c-0.9,2.5,0.5,4.4,2.1,6c5.2,5.1,9.4,11.1,14.4,16.3c6,6.2,10.8,13.2,16.2,19.8c2.4,2.9,4.7,5.9,7,8.9c-1.5,0.5-2.8-0.7-4.2-1.3
	c-7.2-3-14.3-5.8-21.4-9c-2.1-0.9-4.4-0.7-6.4,0.4c-2.3,1.2-2.6,2.8-0.7,4.6c3.1,2.9,6,6,9.4,8.4c5.2,3.7,9.6,8.2,14.3,12.3
	c9.8,8.5,19.3,17.4,29.5,25.6c10.8,8.7,20.4,19,31.8,26.8c-0.7,1.7-1.8,1.1-2.6,1.1c-18-1-36.1-0.9-54.1-2.9c-1.8-0.2-3.9-0.4-5,1.4
	s0.3,3.6,1.4,5c10.2,12.1,18.9,25.2,28.6,37.6c7,9,13.2,18.6,20.2,27.6c3.2,4.1,6.6,7.9,9.5,12.8c-3.5-1-6.5-1.7-9.5-2.7
	c-19.9-6.4-39.7-12.9-59.5-19.4c-4.5-1.5-9-2.8-13.6-4.1c-1.6-0.4-3.6-0.9-4.8,0.6s-0.3,3.3,0.5,4.8c4.6,9.3,8.8,18.9,14,27.8
	c4,6.8,6.8,14,11.1,21.8c-5-2.2-9.1-4-13.2-5.9c-19.9-9.5-39.7-19.2-59.7-28.5c-8.5-4-17.1-7.9-25.2-12.8c-1.2-0.8-2.7-2.4-4.2-0.9
	c-1.3,1.3-0.2,3.1,0.4,4.5c4.3,10.9,9,21.7,12.2,33c1.4,4.9,3,9.7,4.7,15.3c-5.4-2.9-10.1-5.3-14.7-7.9
	c-11.8-6.7-23.5-13.5-35.2-20.2c-11.4-6.5-23.4-12.1-34.2-19.5c-7.8-5.3-13.6-3.9-20.9,0.2c-18.8,10.6-37.7,21-56.8,30.8
	c-8.8,4.6-17.2,10.1-27.3,13.9c1.3-3.4,2.1-6.4,3.5-9.1c5.7-11,9-22.8,13.6-34.2c0.8-2.1,1.1-4.3-0.6-5.9s-3.8-0.1-5.4,0.7
	c-8.6,4.5-16.7,9.9-25.6,13.8c-22,9.7-43.8,19.8-65.6,29.7c-2,0.9-4,1.6-6.4,2.5c1.1-4.4,4.1-7.2,6-10.7c5.7-10.8,11.4-21.6,17-32.5
	c0.4-1,0.9-1.9,1.5-2.7c1.9-1.6,2.6-3.7,1.2-5.5s-3.8-1.3-5.9-0.7c-18.4,5.1-36.7,10.1-55.1,15.2c-7.4,2-14.9,3.9-23.4,6.2
	c7.2-9.2,12.6-18.4,19.7-26.5c3.7-4.2,6.6-9.2,10-13.8c7.9-10.8,15.9-21.5,23.8-32.3c0.5-0.6,1-1.3,1.4-1.9c1.2-2,3.4-4.1,1.9-6.4
	s-4.4-1.1-6.6-0.7c-17.7,3.4-35.6,3-54,3.9c10.3-9.1,20.1-17.9,30.1-26.4c11.5-9.8,22.6-20.1,34.2-29.8c6.5-5.4,12.6-11.2,19-16.5
	c2.4-2,2.3-4,0.9-6.1s-3.4-1.3-5.2-0.3c-7.8,4.5-16.4,7.1-24.5,10.8l-0.1-1.5c10.7-12.6,21.2-25.4,32.1-37.9c2.8-3.2,6.3-5.9,8-10
	c1.9-4.2,0.8-5.7-3.8-6c-36.5-2.3-72.8-8.2-108.1-17.6c-22.2-5.8-44-13.3-65-22.6c-14.7-6.5-28.7-14.2-42.1-23.1
	c-17.5-11.7-32.9-25.5-46-42.2c-6.9-9.1-12.7-18.9-17.4-29.3c-0.2-0.6-0.4-1.2-0.6-1.9c1.6-0.4,2.4,0.6,3.4,1.1
	c10.1,5.7,20.6,10.5,31.1,15.3c1.6,0.6,3.2,1.1,4.9,1.5l1.3,0.4h0.7c-0.1,0.7,0.2,0.6,0.6,0.4l-0.6-0.4c0-0.5-0.2-0.7-0.7-0.7
	c-0.2-0.2-0.4-0.3-0.7-0.3c-34.9-28.6-54.4-65-55.5-110.6c4.8,6.6,10,12.9,15.5,19c5.3,6,10.5,12.2,17.8,15.9
	c-3.6-3.3-5.7-7.6-8.1-11.6c-5-8.1-8.6-16.8-12.6-25.4C14.3,84.8,9.2,55.4,3.9,25.9C2.4,17.7,1.3,9.5,0,0.6
	c8.3,6.9,14.6,14.9,21.9,21.8c14.5,13.9,28.9,27.9,44.4,40.7C77,71.9,87.6,81,99.9,87.7c3.6,2,7,4.2,10.9,5.5c0.1,0.4,0.5,0.7,1,0.6
	c0.1,0,0.1,0,0.2-0.1c0.2-0.1,0.3-0.4,0.3-0.6c0-0.9-0.8-0.8-1.3-0.8c-7.3-10.6-12.5-22.5-15.3-35c0.8-0.6,1.1-0.1,1.4,0.3
	c9,9.6,20,16.7,31.5,22.7c16.7,8.8,34.7,13.4,53.5,15.3c21.2,2.1,42.5,4,63.7,6.4c14,1.4,27.8,4.9,40.7,10.5
	c6.9,3,13.1,7.5,18.1,13.1c2,2.2,6.8,2.4,8.9,0.3c2.4-2.4,0.2-4.2-0.9-6.2c-2.9-5-7.9-8.4-10.3-13.7c0.2-0.2,0.3-0.4,0.5-0.6
	C314,112.5,321,123.2,327,135c4.3,8.5,5.7,17.3,6,26.5c-0.1,2.5,1.7,4.7,4.1,5c2.7,0.5,3.5-2.1,3.9-4.1c1.1-5.9,3.2-10.8,9.4-13.6
	c3.8-1.7,3.3-6.1-0.6-8c-1.4-0.5-2.4-1.7-2.8-3.1c-0.8-4.4-2-8.6-3.5-12.8c3.4,2.7,7,4.7,10.5,7c2.9,1.9,4.2,1.3,4.6-2.2
	c0.2-2.1-0.4-4.3-1.8-5.9c-2.5-3-5.2-5.8-7.4-9.1c-2.4-3.7-3.5-8-3.2-12.4c0.4-8.1,4.1-14.7,9.5-20.5c1-1.1,2.3-2,3.9-1.5
	s1.4,2.1,1.6,3.3c0.3,2.8,1,5.5,2.1,8c2.5,5.5,8,9.1,14.1,9.2c10.1,0.4,20.3,0.1,30.3,2.1c1.2,0.2,2.4-0.4,3-1.5c2-3,5-3.5,8.2-3.7
	c4.2-0.3,8.4-0.2,12.6,0.4c0.8,0.2,1.5,0.3,2.3,0.2c9.3-2.8,17.9-1.9,25.6,4.3c2.9,2.3,5.5,1.5,8.1-0.7c3.8-3.2,8.2-5.6,13.3-5
	c7.1,0.9,14.2-0.2,21.2,0.7c3.3,0.4,6.4,1.6,9.1,3.6c1.7,1.3,3.9,1.7,6,1.1c8-1.8,16.2-2.3,24.3-1.4c6.4,0.6,12-1.6,16-6.8
	c2.7-3.6,6.2-6.8,6.8-11.8c0.3-2.2,2.3-1.8,3.8-1.2c2.3,1.1,4,3.2,4.6,5.7c4.1,13.7,4.5,27-4.3,39.2c-0.7,0.7-1,1.5-1.1,2.5
	c0.1,1.6-0.8,3.8,1.1,4.7c1.7,0.8,2.7-1.2,3.8-2.3c1.9-2,3.7-4.1,5.5-6.2l1.4,0.1c-1.3,6.7-2,13.5-6.5,19.2c-1.5,2-0.3,3.7,1.7,4.8
	c5.4,2.9,8.5,7.2,8.8,13.5c0.1,2.4,2,3.4,4,3.5c2.5,0.1,2.3-1.9,2.6-3.6c1.7-13.9,6.4-27.2,13.8-39.1c4.1-6.4,9.6-11.8,16.1-15.7
	c0.2,0.2,0.4,0.3,0.6,0.4c-2.4,4.1-5.1,8-6.6,12.5c-0.5,1.4-1.4,3.4,0.4,4.3c1.5,0.8,3.8,1,5.2-0.5c11.1-12.3,26.5-14.4,41.3-17.5
	c17.5-3.6,35.2-4.7,53-5.5c22.9-1.1,45.2-5,66.8-12.9c14.8-5.4,28.8-12.2,39.7-24.1c1.9-2,3.6-4.2,5.3-6.3l0.1,2.9
	c-2.4,10.7-5.7,21.2-9.7,31.4l-0.8,1c-0.4,0.2-0.6,0.6-0.1,0.8s1-0.1,1.2-0.7c0.2-0.1,0.3-0.3,0.4-0.5c9.1-6.4,18.1-13,27-19.8
	c15.7-11.9,31.2-24,46.2-36.8c7.5-6.4,14.4-13.4,21.6-20.1c5.1-4.7,9.5-10.2,13.1-16.1c-1.1,12.6-2.8,24.1-4.9,35.7
	c-1.3,7.4-2.5,14.8-4.6,22c-6.4,21.7-11.9,43.8-22,64.2c-4.1,8.3-9.1,16.1-13.6,24.2c-0.5,0.2-0.8,0.8-0.7,1.4l-0.2,0.1
	c-0.5,0.1-0.7,0.5-0.7,1c-0.4,0.2-0.7,0.4-0.2,0.8c0.1-0.2,0.3-0.4,0.4-0.6l0.9-0.6l0.7-0.7C879.2,147.2,879.3,147,879.3,146.9
	L879.3,146.9z M318.8,403.3l0.6-0.2l-0.4-0.3C319,402.9,318.9,403.1,318.8,403.3l-1.1,0.5L233,460.8h3.7c12.5-0.7,25-1.7,37.4-1.9
	c5.2-0.1,8.1-2,9.8-6.5c1.8-0.1,2.2-1.7,3-2.8c7-9.6,13.1-19.8,20.6-29.1c3.3-4.1,6.8-8.3,8.7-13.4v0.1c1.2-0.3,1.6-1.3,1.7-2.4
	c0.1-0.2,0.1-0.4,0.1-0.6c0.4,0,0.7-0.4,0.7-0.8C318.8,403.3,318.8,403.3,318.8,403.3L318.8,403.3z M310.1,294.1
	c-0.1-0.1-0.1-0.2-0.2-0.3c0,0-0.1,0-0.2,0L310.1,294.1c-0.2,0.4,0,0.9,0.5,1.1c0,0,0,0,0,0l0.5,0.9c7.8,12.4,19.4,19.5,32.9,24.1
	c2.6,1,5.3,1.5,8.1,1.6c2.6,1.4,5.4,0.6,8.1,0.7c1.7,0.3,3.4,0.3,5.1,0.2c13-0.6,26-4.1,39.1,1c-1.7-5.6-3.3-10.6-6.4-14.9
	c-1.8-2.5-0.8-4.9,2.4-5.4c2.2-0.4,4.5,0.2,6.4,1.5c2.3,1.7,4.8,3.2,7.4,4.5c7.2,3.1,12.9,9.1,15.6,16.5c2.4,6.1,3.3,12.4,3.7,18.9
	c0.5,8.2-0.9,16.3-0.8,24.4l-0.4,0.3c0.1,0,0.2,0,0.2,0c0-0.1,0.1-0.2,0.1-0.3c1.8-2.3,4.1-4.4,5.4-7c4.1-8.5,6.2-17.5,4.3-27.1
	c-0.4-1.9-0.7-3.9-0.8-5.8c-0.1-1.2-0.7-2.9,1-3.4c1.3-0.4,2,1,2.7,2c2,2.8,3.4,6,4.1,9.3c1.7,7.1,0.5,14.1,0,21.1v-0.1
	c-0.8,0.4-0.7,1.1-0.8,1.8l0.5,1l0.4-1.1c5.5-6.5,7.2-14.8,9.2-22.6s1.8-16.1,1.7-24.3c0-0.5,0.1-1,0.1-1.6c0-4.2,0.8-9.2-2.1-12.2
	c-5.5-5.8-11.9-10.8-20.6-11.2c-2.6-0.1-5.2-0.5-7.8-1.1c-9.4-2.6-20.1-2.7-26-12.7c-1.1-1.9-3.3-2.1-5.1-0.5
	c-2,1.7-1.9,3.7-0.3,5.5s3.8,3.2,5,5.5c0.8,1.4,1,2.7-0.2,3.9s-2.4,0.5-3.5-0.2c-6.6-4.5-13.5-8.6-19.5-14c-8.9-8-17.9-15.9-22-27.7
	c-0.3-1.1-0.6-2.3-1.1-3.9c-0.6,1.7-0.8,2.8,0.1,3.8c1,8.7,3,17.2,7,25l-0.6,0.6c-2.8-1.4-4.8-3.7-6.6-6.1
	c-6.7-8.8-11.8-18.5-14.5-29.4c-1.1-4.6-2.3-9.1-3.5-13.7c-1.1,13,0.2,26.2,3.7,38.8c3.6,12.9,11.2,23.3,19.4,33.6
	c-1.3,0.5-2.1-0.2-2.9-0.5c-13.6-5.1-24.7-13.9-34.6-24.1s-17.4-22.3-23.6-35.1c-1.3-2.6-2.3-5.3-3.4-7.9c0-0.7,0.1-1.5-0.8-2.1
	c-0.4,0.8-0.4,1.7,0,2.5c1,6.9,1.9,13.8,3,20.6c1.3,7.6,2.6,15.4,5.8,22.4c4.2,9.2,7.4,19,15.6,26.4c-4,0.4-6.7-1-9.5-2.2l-0.9-0.6
	L310.1,294.1z M539.5,516.4c0,0.5,0.4,0.7,0.8,0.7c9.7,5,19.4,10,29,15c12.7,6.6,25.3,13.4,38,20c3.3,1.8,6.9,3.2,10.3,4.7
	c0.2,0.2,0.3,0.3,0.5,0.5c0.1-0.1,0.2-0.1,0.3-0.2l-0.5-0.4c-2.6-6.2-6.5-11.5-10-17.2c-6.4-10.6-12.3-21.5-18.2-32.3
	c-1-1.9-3.6-3-3.5-5.6c1.3-0.3,2.6-0.1,3.7,0.5c7.6,2.8,15.3,5.6,23,8.4c19.7,7.2,39.5,14.5,59.2,21.8c1.3,0.6,2.7,0.9,4.2,1
	c0.2,0.2,0.5,0.5,0.5,0.4c0.5-0.3,0.2-0.6-0.2-0.8c-0.2-2.2-2.4-3-3.5-4.5c-7.5-10.9-14.7-22-22.5-32.7
	c-13.3-18.5-25.7-37.7-38.9-56.3c-3.7-5.2-7.2-10.5-11.3-15.5v0.1l-0.8-1.3c-0.2-1.7-1.3-2.7-2.4-3.9c-1-0.7-1-2.3-2.7-2.7
	c0.4,8.6,0.8,17,1.3,25.4c0.5,9.3,1,18.6,1.7,27.9c0.4,4.9,0.6,4.8-3.9,3.2c-12.8-4.7-25.6-9.3-38.4-14c-0.8-0.3-1.7-1.1-2.5-0.3
	c-0.7,0.7,0,1.5,0.2,2.2c1.7,6.2,3.5,12.4,5.1,18.6c1.3,5.1,3.6,9.9,3.7,15.2c-11.9-11.3-24.4-22-35.9-33.7
	c-2.4-2.4-5.2-4.4-8.7-7.4c0.8,2.5,1.2,3.7,1.5,4.9c2.7,10,7.3,19.3,10.2,29.2c2.5,8.4,4.8,16.9,8.3,25c-0.1,1.2,0.3,2.4,1,3.3
	C538.2,516.4,538.8,516.5,539.5,516.4L539.5,516.4z M607.6,408c-0.3,0.6,0,1.3,0.6,1.5c0.1,0,0.2,0.1,0.3,0.1v0
	c0.2,2.5,2.6,3.4,3.8,5.2c8.8,13.4,18.2,26.3,27.8,39.1c1.7,3,3.1,6.1,7.6,6.2c13,0.4,26,1.2,39,1.7c0.9,0,2.1,0.7,2.8-0.7
	c-1.1-0.8-2.1-1.6-3.2-2.3c-13.4-9-26.8-18-40.1-27.1c-11.4-7.8-22.7-15.6-34.1-23.5c-1.3-1.1-2.9-1.7-4.6-1.9v0.1
	c0.2-0.8-0.3-1-0.8-1.2c-0.8-1.1-1.6-2.1-3.2-1.9l-0.3-0.2l0.3,0.2c0.6,1.5,1.6,2.9,2.8,4L607.6,408z M326.7,417.6L326.7,417.6
	c-1.1,0.9-2,2.1-2.4,3.6l-76.6,110.6l0.5,0.6l89.8-32.7c-10.6,19.1-21.5,37.7-32,56.9c8.2-4.2,16.3-8.3,24.3-12.5
	c16.7-8.7,33.3-17.4,50-26.1c1.2-0.7,2.8-1,3.5-2.3h-0.1c0.8,0.1,1.5-0.2,2-0.8c0.8-1,1.2-2.3,1.2-3.6c4-11.2,8.5-22.2,12-33.6
	c2.5-8.2,5.2-16.5,7.9-24.7l-0.6-0.3l-44.8,41.8c1.3-4.8,2.3-8.5,3.4-12.3c2.2-7.7,4.4-15.4,6.7-23.1c0.2-0.8,1.6-1.3,0.8-2.3
	s-1.7-0.1-2.5,0.2c-11.1,4.1-22.2,8.2-33.3,12.3c-2.7,1-5.5,1.9-8.2,2.9c-1.8,0.7-2.4,0.1-2.1-1.8c1.5-9.8,0.8-19.8,2.6-29.6
	c1.6-8.7,1.1-17.7,1.6-26.3l-2.9,2.3L326.7,417.6z M550.6,193.6l-0.9,0.8c-4,6.2-8.5,11.6-16.2,13.3c-3.8,0.8-7.7,1.9-11.5,2.5
	c-3.5,0.6-5.7,2.2-6.5,5.8c-0.9,3.7-1.7,7.4-2.1,11.2c-0.5,5.4-0.9,10.7-1.6,16c-1.2,8.7-6.5,14.1-14.7,16.8c-0.7,0-1.5,0-1.9,0.9
	c-1.7,0-3.3-0.2-1.2-2.2s3.9-4.2,6.2-5.4c7.5-3.8,8.8-10.7,9.1-17.9c0.4-6.7,1.3-13.3,2.7-19.8c1.2-5.5,4.8-9,10.1-10.6
	c3.1-1,6.4-1.6,9.6-1.9c4.3-0.1,8.3-2.5,10.3-6.4c-2.9,0.5-4.8,1.6-7,1.9c-7.6,0.8-15.1,1.6-22.3,4.6c-4.8,2-7.9,5.1-8.6,10.3
	c-1,6.4-1,12.9,0.2,19.2c0.4,2.1,1.9,5-1.1,6.3s-4.7-1.2-6.2-3.5c-0.2-0.3-0.5-0.5-0.8-0.8c-0.6,2,0.1,3.9,0.6,5.5
	c2.1,6.4-0.5,10.8-5,15c-4.9,4.5-10.5,7.8-16.4,10.8c-6.9,3.5-12.2,12.5-11.4,19.6c2.5-4.2,6-6.8,9.6-9.1c4.8-3,10.3-4,15.3-6.2
	c4-0.8,7.9-1.8,11.9-2.5c6.4-1.1,13.1-1.4,19.3-3.1c11.4-3.1,20.3-10.7,29-18.3c7.1-6.2,12.5-14,17.6-21.9c1.6-0.8,1.9-2.5,2.4-3.9
	c4.8-11.2,6.5-23.6,4.8-35.7c-0.9-6.6-2-13.2-5.3-19.1c-0.4-1.1-0.7-2.1-1.1-3.2c-0.4,0.5-0.6,1.2-0.5,1.9c2,10.3-1.2,19.9-4.3,29.4
	c-0.9,2.8-2.5,5.2-4.6,7.2c-1.2,1.1-2.5,2.1-4,0.3c0.2-1.4,0.3-2.9,0.6-4.3c1.7-7.1,2.2-14.5,1.5-21.7c-1.2,6.3-4.4,11.9-6,18.1
	L550.6,193.6z M374.2,193.6c0-3.9-3.6-6.2-4.3-9.9c-0.5-2.8-1.5-5.4-2.5-8.6c-1.3,9.4,0.8,17.9,2.2,26.4c-1.2,2.3-2.5,1.2-3.7,0
	c-3.6-3.4-5.4-7.8-6.6-12.4c-2.2-8.7-3.3-17.5-2.2-26.6l-1.2,2.8c-4.4,9.4-5.6,19.6-7,29.8c-0.4,2.9,1.4,5.2,1.7,7.9
	c0.9,7.7,2.8,15.2,7,21.8c1,1.7,1.8,3.5,2.9,5.1c6.2,9.3,14.4,16.6,23,23.6c6.6,5.4,13.9,10.2,22.1,11.6c9.8,1.7,19.7,2.9,29.4,5.1
	c9.9,2.7,18.8,7.1,26.5,15.7c-1.2-8.7-5.1-14.6-11.1-18.9c-4.6-3.3-9.6-5.9-14.5-8.7c-7.2-4.1-10.1-10.1-8.7-18.3
	c0.3-1.7,1.2-3.4,0.4-5.8c-0.3,0.6-0.5,0.9-0.7,1.2c-1.3,2-2.6,4.5-5.5,3.3c-3.2-1.3-1.3-4.1-0.9-6.2c1.3-7.1,1.2-14.4-0.4-21.5
	c-0.7-3.2-2.7-5-5.6-6.6c-10.1-5.6-21.7-4.6-32.3-7.8l-0.2-1l-0.3,0.2l0.6,0.8c2.3,5.1,6.8,6.1,11.7,6.3c9,0.4,16,4.6,17.6,11.3
	c1.7,7.2,3.5,14.4,3.9,21.8c0.4,6.7,2.1,12.9,8.3,17c2.4,1.7,4.5,3.6,6.4,5.8c1.7,1.8,0.1,1.9-1.3,2c-0.4-0.9-1.1-0.8-1.9-0.9
	c-1.8-0.8-3.5-1.7-5.2-2.8c-5.2-3.7-8.8-8.4-9.5-15c-0.8-7-1.4-14.1-2.5-21.1c-1.4-9.2-1.9-10-11.4-11.7
	c-10.1-1.8-18.6-5.3-23.3-15.1L374.2,193.6z M128.2,168.4l-0.3-0.2L128.2,168.4c2.1,5.7,7.2,8,12.2,10.2c7,3.1,14.5,1,21.9,1.3
	C150.4,177.3,139.5,172.2,128.2,168.4L128.2,168.4z M475.4,356.6c0-2.5-0.1-5-0.5-7.5c-0.7-6.1,0.4-12.2,3.1-17.6
	c1.1-2.2,3.3-5.9,5.1-5.2c2.4,0.9,0.6,4.6,0.8,7.1c0,0.1,0,0.3-0.1,0.4c-2.2,12.2,0.4,23.5,7,34c0.4,0.6,0.5,1.9,1.8,1.5
	c0.1-1.5,0.1-2.9,0-4.4c-1.2-9.7-1.1-19.5,0.2-29.1c1-6.7,3-13.3,7.8-18.2c5.3-5.4,12.1-8.8,18.4-12.8c1.7-1,3.7-1.5,5.7-1.3
	c1.8,0.1,3.3,1.1,4.1,2.7c0.9,1.6-0.7,2.3-1.2,3.4c-2.2,4.8-6.1,8.9-6.3,14.6l-0.2,0.2l0.2-0.3c9.5-3.9,19.4-2.4,29.3-2
	c4.6,0.2,9.1,1.6,13.7,1c3.3,0,6.6-0.3,9.9-1c19-2.3,38.6-19.6,40.8-27.3c-3.2,2.3-7,3.3-10.9,3c4.4-5.1,8.8-9.6,11.3-15.5
	c2.5-5.8,4.6-11.7,6.3-17.8c1.7-6.1,3.1-12.2,4.1-18.5c1-6.1,2.2-12.1,2-18.4c-5.6,13.1-12,25.5-21.3,36.6
	c-9.7,11.7-21.5,21.3-34.9,28.4c-2.3,1.3-4.8,2.2-7.3,2.8l-0.6-0.8c1-2.5,3.7-3.5,5.3-5.7c13.8-19.1,18.2-40.7,17.6-63.8
	c0-0.5-0.1-1-1-1.1c-2.5,11.7-5.7,23.2-11.3,33.8c-3,5.8-6.8,10.9-12.6,14.2l-0.8-0.5c5.5-12.2,7.9-20.6,7.2-26.7
	c-0.5,2.7-2.1,4-2.9,5.7c-8.5,17.4-24.2,27.3-39.2,38c-1.5,1.1-3.3,1.5-4.5-0.3s-0.4-3.3,1-4.5c1.6-1.3,3.2-2.7,4.7-4.2
	c1.6-1.7,2-3.8,0.1-5.6s-3.8-1.5-5.7-0.2c-0.8,0.5-1.4,1.2-1.8,2c-2.4,4.6-6.7,6.6-11.2,8c-7.3,2.3-14.8,3.8-22.4,4.6
	c-12.6,1.4-20.3,9.8-20.6,22.3v1.6c-1.5,18.4,3.6,41.3,11.2,49.3c-0.2-1-0.4-1.7-0.6-2.4C476.2,358.3,476.6,357.2,475.4,356.6
	L475.4,356.6z M428.8,114.6c-1.9-0.9-3.9-1.6-5.7-2.6c-10.2-5.5-21.9-7.3-33.2-5.2c-13.6,2.4-25.3-3.6-31.8-15.7
	c-0.4-0.8-0.4-1.9-1.7-2.1c-1.1,2.7-1.3,5.5-1.6,8.3c-2.7,20.1,7.9,33.1,28.2,34.6c1.8,0.2,3.5,1,5.4,0.5
	c12.3-2.4,22.4,1.4,30.7,10.8c3.8,4.2,8.4,7.6,13.6,10c2.5,1.2,5.3,2.3,8,1.4c5.2-1.7,7.7-0.8,6,6.5c-2.2,9.7-4.9,19.1-14.6,24.7
	c2.6,1.2,4.7-1.1,7.1,0.5c-4.4,5.2-9.3,9.6-15.9,11.7c13.1-0.8,24.7-4.6,32.5-16.1c3.1-4.5,7.7-4.6,11-0.3
	c6.2,8.1,14.8,12.4,24.3,15.1c3.2,0.9,6.5,1.4,9.8,1.3c-6.1-4.1-12.4-6.5-16.8-11.5l0.2-0.2c2.6-0.4,5.1,1.8,7.6,0.6
	c-1.2-1.3-2.4-2.5-3.5-3.9c-5.5-7-11.7-13.6-11.5-23.4c0.1-5.4,1.9-6.6,6.8-4.7c3.9,1.5,7.4,1.3,10.3-2.3c3.6-4.6,8.1-8.2,12.5-11.9
	c6.7-5.5,14.1-9.4,23-8.6c4,0.3,7.9,0.6,11.7-0.5c14.6,1.3,34.9-17.2,28.1-36.8c-0.7-1.9-0.6-4.9-2.8-5.2c-1.6-0.3-2.2,2.5-3.4,3.9
	c-1,1.2-2,2.5-3,3.7c-4.8,6.3-10.9,9.5-19.2,8.6c-7-0.7-14-0.7-20.9,0c-8.7,0.8-17.1,3.8-24.4,8.7c0.5-6.2,5-8.4,9.9-11.2
	c-9.2-2-16.9-0.3-24.5,2.7l-0.8-0.7c1.6-4.2-1.4-3.5-3.5-2.9c-6.5,2-11.3,6.2-14.9,12.6c-1.9-3.6-5.1-5.2-7.4-7.9
	c-1.6-2.1-3.7-3.8-6.1-4.8c-2.9-1.1-4.3,0.1-3.9,3c0.1,0.6,1.2,1.3,0,2c-7.4-2.6-15.1-3.9-22.9-3.9c2.9,3.9,6.7,6.3,7.2,10.8
	L428.8,114.6z M691.4,242.7l-0.3-0.2L691.4,242.7c11.2,8.4,24,12.5,38.1,13.1c-28.5,10.6-57.1,20.9-87.8,23
	c18.7,5.4,37.4,10.8,57.1,11.1c-26.2,15.3-53.3,27.6-84,30.2c27.5,3.1,55,4.8,82.1-2.4c-7.7-1.7-15.4-2.8-23.5-6.1
	c9-3.4,16.5-7.8,24.3-11.4c7.6-3.5,14.1-8.5,21.3-12.7c1.2-0.7,2.9-1.8,2.7-3.2c-0.3-1.7-2.5-1.5-3.9-2c-4.4-1.4-8.6-3.3-12.5-5.7
	c-0.8-0.5-1.4-1.2-1.6-2.1c0-1.2,1.4-0.8,2.2-1.1c3.3-1.2,6.7-2.5,10-3.6c12-4.1,23-10.2,33.8-16.8c2.4-1.5,1.7-2.3-0.2-3.5
	c-3-1.9-5.8-4.1-9.2-6.6c8.5-3.5,16-7.3,24-10.1c-12.2,1.9-24.2,4.5-36.3,6.2S703.9,245.4,691.4,242.7L691.4,242.7z M438.5,419.9
	c0.1-1.3,0.8-2.6,0-4c-1.8,3.2-3.7,6.1-4.1,9.7c-12.1,41.3-26.8,81.8-38.9,123.7c8.8-5.2,17-10.1,25.1-15.1
	c13.2-7.9,26.3-15.9,39.4-23.9c1.3-1.1,3.3-1.1,4.6,0c5.6,3.7,11.2,7.3,16.9,10.8c12.9,8,25.4,16.4,38.2,24.5c2.4,1.5,5,2.8,8.3,4.6
	c-2-7.2-4.3-13.3-6.3-19.5c-7.6-23-13.3-46.7-21.4-69.6c-4.5-12.8-7.8-25.9-11.6-38.9c-0.6-2.5-0.9-5.1-3-7.6
	c0.1,4-0.3,7.4,0.4,10.7c-0.7,1.6-0.4,3.4-0.4,5.1c0,16.2,0,32.4,0,48.6v5.1c-9.4-26.8-16.5-53-24.5-79
	c-9.1,25.6-14.3,52.1-22.1,77.9c-0.2-19.3-0.2-38.5-0.2-57.7C439,423.5,439.3,421.7,438.5,419.9L438.5,419.9z M139.2,294.9
	c0.2,0.9,1,0.9,1.6,1.2c1.5,1.5,3.5,2.2,5.6,2c0.1,0.6,0.6,0.8,1.1,0.8c3.2,2.2,7,3,10.5,4.3c21.3,7.8,44.1,10.6,66.7,8.1
	c3.2-0.3,6.6-0.2,10-2c-12.8-6.4-25.2-13.7-37-21.7c-3.6-2.5-7.4-5-9.4-9.3l0.1-0.1l5.9,0.6c7.3,0.8,14.2-0.4,20.9-5
	c-23.9-4.4-44.5-13.5-61.4-31.2c8.8,1.2,17.2,3,25.8-0.9c-24.5-6.2-47-14.9-65.3-33.7c18.3,2.4,35.6,5.6,53.2,2.4
	c-3.6-1.8-7.3-3.3-11.1-4.7c-17.7-6.6-33.4-16.4-46.3-30.3c1.9-0.4,3.6,0.4,5.4,0.9c3.8,1,7.5,2,11.6,1.3c-0.5-1.6-1.9-2-2.9-2.7
	c-9-6.9-18.4-13.3-25.8-21.9c-4-4.7-8.1-9.3-11.1-14.7c-1-1.9-1.9-4.3-0.1-5.8c1.6-1.4,3.8-0.3,5.5,0.8c11.9,7.5,25.1,12,38.4,16.2
	c18,5.6,36.5,9.1,55.2,10.6c14.2,1.1,38.2,0.4,50-2.5c-2.3-0.4-4.1-0.7-5.9-0.9c-10.4-1.4-20.9-2.6-30.8-6.4
	c-1.1-0.4-2.4-0.6-2.5-2.1c-0.1-1.8,1.5-2,2.7-2.2c1.4-0.3,2.9-0.4,4.3-0.4c8,0.1,16,0,24.1,0.6c11.4,0.8,22.8,1.2,33.1,8
	c0-0.7-0.1-1.3-0.3-2c-3.2-9.4-10.8-13-19.6-15.2c-2.4-0.6-5-0.6-6.9-2.6c-0.9-1-2.8-1.7-2.2-3.4s2.5-1.2,3.9-1.1
	c11.2,0.5,22.4,2.1,32.6,6.7c9.7,4.4,18.2,10.6,21.3,21.8c1,3.7,1.1,7.5,2.5,11.1c1.5,10.7,4.7,20.9,8.3,31.1
	c1.9,5.3,3.5,10.7,7.6,14.8c2.2,5.2,5.8,9.7,10.4,13c-1.2-4.7-2.1-8.5-3.2-12.2c-5.9-21.3-7.1-43.5-11-65.2
	c-2.2-12.1-5.9-23.4-17.1-30.3c-7-4-14.7-6.6-22.7-7.5c-29.2-3.8-58.6-6.1-87.6-11.9c-21.8-4.4-43.5-9.1-62.4-22
	c-0.1-0.1-0.4,0.1-0.8,0.2c1.8,10.8,6,20.1,15.5,26.3c1.3,0.8,3.5,1.5,2.5,3.3c-1.1,2-3.1,0.3-4.4-0.4c-4.9-2.5-9.6-5.5-14.6-7.8
	C93.3,91.5,74.4,80.5,56.5,68C40.2,56.4,24.9,43.6,12.9,27.3l-3.4-4.7c0.1,1.5,0.2,2.1,0.3,2.7c4.7,25.7,11.9,50.9,21.3,75.2
	c4.5,11.4,8.5,23,14.6,33.6c6.3,11,12.5,22.2,20.1,32.4l-0.6,0.6c-12.9-8.7-26.4-16.6-38-27.1c-0.9-1-2-1.6-3.3-2
	c-0.2-0.3-0.2-1.1-0.7-0.8s-0.2,0.8,0.4,1.1c-0.1,2.9,2.2,4.6,3.1,7c7,17.7,16,34.6,27,50.1c9.4,13.5,20.7,25.6,33.5,35.9
	c5.1,4.1,11,7.3,16.6,11c-16.5-3.7-32.5-9.5-47.6-17.2l-0.7-0.4l0.3,0.8c0.5,0.8,1,1.6,1.5,2.3c10.3,12.9,21.7,24.8,34.2,35.6
	c11.9,10.2,24.6,19.2,38.1,27C132.6,292.4,136,293.6,139.2,294.9L139.2,294.9z M617.8,215c1.2-0.7,1.5-2.1,2.1-3.2
	c3.9-8.2,7-16.7,9.1-25.6c1.4-5.9,4.9-11.3,4.7-17.6c0.6-0.7,0.9-1.6,0.8-2.6c1.7-16.4,11.4-25.9,26.5-31c8.3-2.9,17.1-4.5,25.9-4.9
	c2.2-0.1,5.2-1.3,5.9,1.2s-2.5,3.6-4.5,4.7c-0.6,0.3-1.2,0.5-1.9,0.6c-4.5,0.5-8.7,2.3-12.6,4.4c-5,2.8-9.3,6.6-9.3,13.2l-0.4,0.2
	h0.2c0.1-0.1,0.1-0.2,0.1-0.3c5.1-3.8,11.1-5.2,17.2-6.3c12.6-2.1,25.4-1.9,38.2-2.3c2-0.1,4-0.3,5.9,0.4c1.2,0.4,2.7,0.6,2.7,2.4
	c0,1.5-1.4,1.9-2.4,2.2c-3.1,1-6.3,2-9.5,2.7c-8.8,1.9-17.8,3.1-27.4,4.3c0.5,0.2,0.9,0.4,1.4,0.6c21.1,3.5,42.6,3.7,63.7,0.5
	c28.1-4.1,55.3-11.7,80.2-25.8c1.3-0.7,2.7-1.5,4-0.2c1.2,1.2,1,2.7,0.4,4.1c-1.3,3.2-3,6.2-5.1,8.9c-8.7,10.9-19,20.4-30.6,28.1
	c-1.6,1.1-3.7,1.9-4.8,4c6,0.9,11.3-0.9,16.7-1.9c-16,17.4-36.1,27.8-58.3,34.9c18,3.3,35.7-0.1,53.5-1.7
	c-17.8,17.5-39.5,27.1-63.3,33.1c7.8,3.8,15.7,1.8,24.7,1.4c-17.6,17.3-38,26.6-61.6,30.9c8.8,5.9,17.8,5.2,27,4.5
	c-12.6,14.3-29.8,21.7-45.6,31.4c4.9,1.1,9.9,1.7,14.9,2.1c11.6,0.5,23.2,0.5,34.6-1.6c12.5-2.3,25-5.2,36.5-11l0.9-0.8h0
	c2.3-0.1,4.4-0.8,6.3-2.1l1.6-1.1v0.1c7.6-2.8,14.3-7.2,21-11.5c11.3-7.1,21.9-15.3,31.6-24.5c2.8-2.7,5.5-5.6,8.5-8.2
	c8.8-7.7,15.7-16.9,22.6-26.2c0.5,0.2,0.7,0,0.5-0.5l-0.4,0.6c-0.8-0.2-1.6,0-2.2,0.4c-12.2,7.3-25.7,11.4-39.1,15.6
	c-2.2,0.8-4.5,1.3-6.8,1.3c40.9-24.2,62.7-62.5,79.8-104.4c-13.5,10.8-27.8,20.5-42.8,29.1c16.7-20.5,26.9-44.5,36.3-68.6
	c10.7-27.4,21.2-68.2,20.3-74.9c-2.1,2.5-4.1,4.9-6.1,7.2c-6.2,7.6-13.1,14.7-20.4,21.3c-14.7,12.7-30.7,23.4-47.4,33.2
	c-11.7,6.9-23.9,12.8-35.9,19c-3.4,1.8-6.6,3.9-10.2,5.2c-0.9,0.3-2.2,0.8-2.7-0.5c-0.3-0.9,0.2-2,1.1-2.3c4-2.2,7-5.4,10.1-8.7
	c5.1-5.3,6.5-11.9,7.9-19.3c-8.7,5.7-18.1,10.2-28,13.5c-26.3,8.5-53.5,12.6-80.8,16c-16.7,2.1-33.6,2.9-50.1,6.6
	c-14.7,3.3-25.7,11-30.3,26.2c-1.8,6-3,12.3-3.5,18.6c-1.3,17.1-3.9,34-7.7,50.7c-1.3,5.8-4.5,11.1-4.9,17.5
	c5.2-2.2,7.9-6.4,10.2-11.1C617.6,216.3,617.9,215.7,617.8,215L617.8,215z M581.3,393.5c2.7-3.3,5.8-6.4,7.9-10.1
	c5.3-8.9,6.9-19.6,4.2-29.7c-3.4-13.2-15.1-17.8-25.7-9.3c-4.4,3.5-8.1,3.5-12.6,0.8c-6.2-3.7-11.8-2.1-15.6,4
	c-1.8,2.9-5.2,4-6.8,1.8c-4.2-5.7-9.9-4.7-15.4-3.3c-4.2,1-5.5,3.7-5,8.1c1.1,8.9,5.1,16.6,9.9,23.8c3.8,5.7,6.5,11.5,7.5,18.3
	c0.2,1.4-0.3,3.7,1.7,4s2.3-1.9,3-3.3c4-8.7,5.8-18,6.8-27.4c0.1-1.4-0.2-3.1,1.8-3.5c1.7-0.3,3.6-0.6,4.7,1
	c5.5,7.6,11,15.2,11.5,25.1c0.1,1.2-0.3,2.6,1.2,2.9c1.4,0.3,2.2-0.8,2.9-1.7c4.1-5.7,7.2-11.8,7.1-19.1c0-4.1,0.2-8.2,0.1-12.2
	c-0.1-2.7,1-2.6,2.8-1.4c4.6,3.1,6.4,7.8,7.4,13C581.9,381.2,581,387.2,581.3,393.5L581.3,393.5z M251.7,310.9
	c-3.5,1.8-7.3,3.1-11.3,3.7c-3.8,0.8-7.6,1.4-11.3,2l0.1,1c26.5,6.3,53.3,4.5,80.2,2c-30.3-3.4-57.4-15.2-83-30.8
	c20.7,0.8,39.9-5.7,60.1-11.1c-32.9-0.9-62.2-12.2-91.7-22.9c13.5,0.5,26.8-3.5,37.8-11.4c-23-1.3-44.8-7.4-67.2-10
	c1.1,0.9,2.4,1.6,3.7,2.1c4.4,1.8,8.8,3.5,13.2,5.3c1,0.4,2.6,0.6,2.7,1.9c0.1,1.2-1.3,1.5-2.2,2.1c-2.4,1.6-4.8,3.2-7.3,4.7
	c-1.8,1-2.2,1.7-0.1,2.8c10.4,5.7,20.4,12,31.7,15.9c5.3,1.8,10.5,3.8,16.2,5.8c-0.9,0.9-1.9,1.7-3,2.4c-4.3,2-8.6,4.1-13,5.6
	c-3.6,1.2-3,2.5-0.7,4.4c0.5,0.4,1,0.9,1.5,1.2c10.7,7.2,22,13.4,33.8,18.5C244.9,307.7,248,309.2,251.7,310.9L251.7,310.9z
	 M355.3,361.6c0,4.7-0.1,9,0,13.4c0.2,7.1,2.4,14.1,6.3,20.1c0.7,1.1,1.6,2.3,3.1,1.9s1.3-1.7,1.3-2.9c-0.1-10.5,7-17.4,12.4-25.2
	c0.9-1.1,2.3-1.4,3.6-1c1.7,0.4,1.6,1.8,1.8,3.1c0.4,3.1,0.9,6.3,1.4,9.4c1.1,6.5,3,12.8,5.7,18.8c0.8,1.6,1.7,3.4,3.6,3.1
	s1.7-2.4,1.8-3.9c0.2-2.8,0.9-5.5,2-8c2-5.6,5.2-10.6,8.1-15.8c3.4-6.1,6.4-12.4,6.8-19.6c0.3-2.6-1-5.1-3.3-6.2
	c-5.2-2.8-11.6-2-16,2c-2.6,2.4-5.7,2.2-7.8-0.5c-5.8-7.6-8.7-8.2-17.5-3.9c-3.7,1.8-6.8,2.3-10.5-1.4c-8.4-8.5-21.9-4.6-25.3,7
	c-4.6,15.8-0.2,29.3,10.4,41.2c0.4,0.4,0.7,1.1,1.5,0.6C342.3,377.7,344.2,365.3,355.3,361.6z M662,202.7c4,3.7,8.6,6.9,13.5,9.3
	c14.3,7.1,29.5,10.2,45.3,12c15.2,1.8,30.4,1.3,45.6,0.3c3.9-0.2,8.1,0.3,12.2-2c-11.8-0.3-29.5-7.3-34.8-12.8
	c14.5-4.5,27.4-11.7,40.6-20.8C744.1,201.6,703.3,200.7,662,202.7z M147.3,222.4c12.9,2.3,25.9,2.1,38.9,2.2
	c7.1,0.1,14.2-0.3,21.2-1.1c11.3-1.4,22.5-3.5,33.3-7.7c8.5-3.3,16.3-7.5,23.1-14.1c-40.2-0.2-79.9-1.2-118.9-11.1
	c11.7,7.7,23.5,15.1,38.3,18.7C171.6,216.5,160,220.9,147.3,222.4z M461.5,190.5c-2.1,0.2-4.1,1.1-5.7,2.6c-3.6,3.5-7.2,7-11,10.1
	c-2.9,2.4-3.9,4.8-2.7,8.5c1.4,4.4,2.1,8.9,3.3,13.4c2.5,10,8.6,18.1,13.9,26.7c1.8,2.9,5.1,2.4,6.1-0.7c1.2-3.8,3.9-6.5,5.8-9.8
	c5.7-10.1,11.3-20.3,13.4-32c0.4-2,0-3.3-1.6-4.4c-5.4-3.7-10.3-8.1-15.3-12.4C465.9,191.2,463.7,190.5,461.5,190.5L461.5,190.5z
	 M375.9,158.8c0,11.2,4.4,20.3,11.5,25.2c10.8,7.5,38.2,0.6,43.8-10.5c1.2-2.5,2.6-4.9,2-7.9c-0.4-2.1-1-4.3-3.6-4.5s-5,0.4-5.9,3.4
	c-3,9.8-9.9,14.1-19.8,14.2c-1.8,0-4.5,1-5.1-0.7c-0.9-2.2,2.3-2.2,3.5-3.4s3.1-2.1,2.7-4.4c-0.4-2.1-1.8-2.9-3.7-3.5
	c-6-2-7.5-8.1-3.3-13c0.7-0.8,1.6-1.4,2.2-2.2c2.5-2.9,2-5.3-1.5-6.9C387.1,139.2,375.9,146.2,375.9,158.8L375.9,158.8z
	 M549.2,160.3c-0.1-5.8,0.4-10.9-4.1-13.7c-4.5-3.1-10.1-4.2-15.5-2.9c-2.3,0.6-4.9,1-5.7,3.6s1.3,4.1,2.8,5.6
	c5.3,5.5,3.5,12-3.9,13.9c-1.5,0.2-2.7,1.3-3,2.8c-0.5,1.6,0.1,3.3,1.6,4.1c1.2,0.8,2.5,1.3,3.8,2c0.8,0.4,1.9,0.8,1.6,1.9
	s-1.4,1.1-2.3,1.1c-12.2-0.3-17.1-1.8-22-12.3c-0.4-0.8-0.9-1.5-1.4-2.3c-1.7-2.8-4-4.1-6.9-2.8c-3,1.3-3.1,4.3-2.6,7.2
	c0.5,2.5,1.6,4.8,3.2,6.7c2.4,3.1,5.6,5.1,9.1,6.7c7.1,3.4,14.6,5.4,22.5,5.1C539,186.3,549.8,175,549.2,160.3L549.2,160.3z
	 M387.1,434.9c2.4-0.1,4.8-0.5,7.2-1c3.5-0.9,7-2.3,7.5-6.6c0.8-5.8-3.3-10.7-9.2-11.6c-4.3-0.7-8.7-0.2-12.8,1.3
	c-4.8,1.8-9,0.7-13.1-1.8c-3.4-2.2-6.6-4.8-9.5-7.7c-0.5-0.5-1.1-1.3-2-0.9s-0.5,1.3-0.4,2.1C357.3,424.4,369.6,434.8,387.1,434.9z
	 M537.9,415.2c-8.9-0.1-12.7,2.9-13.5,9.6c-0.6,4.9,1.9,8,8.1,9.1c19.7,3.7,34.2-7.5,38.4-25c0.2-0.8,0.7-1.9-0.4-2.4
	c-0.8-0.4-1.4,0.4-2,0.9c-3.5,2.7-7,5.4-10.7,7.9c-3.4,2.5-7.7,3.1-11.6,1.5C543.6,415.8,540.8,415.3,537.9,415.2z M797.4,167.9
	c-10.8,5.7-21.7,8.3-32.3,11.9C784.6,181,792.3,178.3,797.4,167.9z M163,232.6c-0.1,0.1-0.2,0.1-0.2,0.2s0.1,0.1,0.1,0.2l0.4-0.3
	L163,232.6z M461.8,287.2l0-0.3l-0.4,0.1c0,0.1,0.1,0.2,0.1,0.3C461.6,287.2,461.7,287.2,461.8,287.2L461.8,287.2z M463.4,287.2
	l0.1-0.4l-0.4,0.1l0.1,0.3L463.4,287.2z M143.5,189.2c-0.1,0-0.2-0.1-0.3-0.1c-0.4,0.1-0.4,0.3,0,0.4c0.1,0,0.2,0,0.3-0.1
	C143.5,189.4,143.4,189.3,143.5,189.2L143.5,189.2z"/>
<path class="st1" d="M825.1,60.7l-0.1-2.9c0-1.2,0.8-1.2,1.7-1C827.2,58.4,826.5,60,825.1,60.7z"/>
<path class="st1" d="M578.8,124.8l-1.4-0.1c0.3-0.7,0.5-1.5,1.5-1.2C578.9,124,578.8,124.4,578.8,124.8L578.8,124.8z"/>
<path class="st1" d="M110.9,92.4c0.6,0.1,1.3-0.1,1.3,0.8c0,0.2-0.1,0.5-0.3,0.6c-0.4,0.2-0.9,0-1.1-0.3c0-0.1-0.1-0.1-0.1-0.2
	C110.8,93,110.8,92.7,110.9,92.4z"/>
<path class="st2" d="M866.1,218l-1.3,0.4c-0.1-0.1-0.2-0.2-0.3-0.4c0.3-0.7,0.9-1.2,1.6-1.4V218z"/>
<path class="st1" d="M272.8,398.4l0.1,1.5c-0.4,0.3-1.1,0.6-1.3,0.1C271.3,399.2,272.1,398.8,272.8,398.4z"/>
<path class="st0" d="M619.4,107.4l0.8-0.4l-0.2,0.9C619.7,107.7,619.6,107.6,619.4,107.4z"/>
<path class="st0" d="M302.1,105.9c-0.4-0.1-0.7-0.4-0.4-0.8c0-0.1,0.6,0.1,0.9,0.2C302.5,105.5,302.3,105.7,302.1,105.9z"/>
<path class="st1" d="M826.7,56.8l0.2-0.2C826.8,56.7,826.7,56.7,826.7,56.8L826.7,56.8z"/>
<path class="st3" d="M777.5,299.6c-11.5,5.8-23.9,8.7-36.5,11c-11.5,2.1-23.1,2.1-34.6,1.6c-5-0.3-10-1-14.9-2.1
	c15.8-9.7,33-17.1,45.6-31.4c-9.2,0.8-18.2,1.4-27-4.5c23.7-4.3,44.1-13.6,61.6-30.9c-8.9,0.4-16.9,2.4-24.7-1.4
	c23.8-5.9,45.5-15.6,63.3-33.1c-17.8,1.6-35.5,5-53.5,1.7c22.2-7.1,42.3-17.5,58.3-34.9c-5.5,1-10.8,2.8-16.7,1.9
	c1.1-2.1,3.1-2.9,4.8-4c11.6-7.7,21.9-17.2,30.6-28.1c2.1-2.7,3.8-5.7,5.1-8.9c0.6-1.4,0.8-2.9-0.4-4.1c-1.3-1.3-2.7-0.5-4,0.2
	c-25,14.1-52.1,21.7-80.2,25.8c-21.1,3.1-42.6,3-63.7-0.5c-0.5-0.2-1-0.3-1.4-0.6c9.6-1.2,18.6-2.4,27.4-4.3
	c3.2-0.7,6.3-1.7,9.5-2.7c1.1-0.3,2.4-0.7,2.4-2.2c0-1.7-1.5-1.9-2.7-2.4c-1.9-0.7-3.9-0.4-5.9-0.4c-12.8,0.4-25.5,0.2-38.2,2.3
	c-6.1,1-12.1,2.4-17.2,6.3v0.1c0-6.6,4.2-10.4,9.3-13.2c3.9-2.1,8-4,12.6-4.4c0.7-0.1,1.3-0.3,1.9-0.6c2-1.1,5.2-2.1,4.5-4.7
	s-3.7-1.3-5.9-1.2c-8.8,0.4-17.4,2.1-25.7,4.9c-15,5.1-24.8,14.5-26.5,31c0.1,0.9-0.2,1.8-0.8,2.6c-1-5.2-1.6-10.4-1.7-15.6
	c-0.2-3.3,1-6.6,3.2-9.1c8-9,16.9-16.2,29.8-17.5c13.1-1.3,26.2-2.6,39.3-3.3c16.7-0.8,33.4-1.5,50.1-1.3c0.2,0,0.3,0.3,0.4,0.5
	c-2.8,4.3-2.2,6.3,2.5,8.6c0.8,0.4,1.7,0.7,2.6,1c8.3,3.2,16.8,2.2,25.2,0.4c17.2-3.6,33.7-9.4,50-15.6c9.5-3.6,18.9-7.6,28.8-11.5
	c-0.2,0.9-0.3,1.4-0.5,1.8c-5,12.6-10.3,25-17.1,36.7c-7.3,12.6-13.4,25.9-20.9,38.4c-4.3,7.2-3.3,10.1,5.4,12.2
	c0.2,0.1,0.5,0,0.8,0.1c5.9,1.3,11.7-0.3,18-0.6c-8.4,9.1-16.3,17.7-25,25.6c-9,8.2-18,16.6-26.9,24.9c-4.6,4.3-9.2,8.7-13.8,13
	c-1.2,1.2-3.8,1.6-3.3,3.9s3,2.4,4.8,2.9c7,2,14.1,1.4,21.2,1.5c1.1,0,2.7-0.6,3.3,0.6s-0.6,2.2-1.4,3c-5.1,5.4-10.2,10.9-15.5,16.2
	c-4.7,4.6-9.6,8.9-14.4,13.4h0L777.5,299.6z"/>
<path class="st3" d="M110,175.5c13,13.9,28.6,23.7,46.4,30.3c3.8,1.3,7.5,2.9,11.1,4.7c-17.6,3.1-34.9,0-53.2-2.4
	c18.3,18.8,40.8,27.6,65.3,33.7c-8.6,4-17,2.1-25.8,0.9c16.9,17.7,37.6,26.8,61.4,31.2c-6.7,4.5-13.5,5.7-20.9,5l-5.9-0.6l-0.4-0.3
	l0.3,0.4c2,4.2,5.8,6.8,9.4,9.3c11.8,8.1,24.2,15.3,37,21.7c-3.4,1.8-6.8,1.7-10,2c-22.6,2.4-45.4-0.4-66.7-8.2
	c-3.6-1.3-7.4-2.1-10.5-4.3l-1.1-0.8c-5.2-6.5-12.4-10.9-18-17c-4.4-4.8-9.2-9.2-12.9-15.5h7.6c5.8,0,11.6-0.5,17.3-1.6
	c1.8-0.3,3.8-0.9,4.3-2.9c0.5-1.9-1.2-2.8-2.3-3.8c-3.5-3.4-7.2-6.5-10.8-9.8c-12.7-11.9-26-23.1-38-35.6c-1.2-1.2-2.6-2.2-3.8-3.4
	c-5-4.4-9.5-9.4-13.3-14.9c5.6,1,11.2,1.3,16.8,0.9c8-0.5,10.3-4.2,7.3-11.4c-0.6-1.5-1.2-2.9-2-4.3c-3.2-5.6-6.5-11.1-9.6-16.6
	c-6.6-11.7-12.2-23.9-18.2-36c-0.9-1.9-1.8-3.7-2.9-5.5c-2.8-4.9-4.9-10.1-6.2-15.5c10.7,4.2,20.8,8.2,31,12.1
	c16,6.2,32.1,11.6,48.9,15c7.9,1.6,15.9,2.6,23.7-0.4c2.4-1,5-1.7,6.6-4s-0.8-4-1.2-6.2c12.7,0.4,25.1,0.2,37.5,0.7
	c16.2,0.7,32.3,1.4,48.4,3.4c9.8,1.2,19.4,2.6,26.3,10.8c0.6,0.5,1.3,0.9,2,1.2c6.5,3.8,10.2,11,9.4,17.9c-0.6,4.6-1.1,9.1-1.6,13.7
	c-1.4-3.6-1.5-7.4-2.5-11.1c-3.1-11.2-11.6-17.4-21.3-21.8c-10.3-4.7-21.4-6.3-32.6-6.7c-1.4-0.1-3.3-0.4-3.9,1.1s1.3,2.4,2.2,3.4
	c1.9,2,4.5,1.9,6.9,2.6c8.8,2.2,16.4,5.8,19.6,15.2c0.1,0.7,0.2,1.3,0.3,2c-10.3-6.8-21.7-7.1-33.1-8c-8-0.6-16.1-0.5-24.1-0.6
	c-1.4,0-2.9,0.1-4.3,0.4c-1.2,0.2-2.8,0.4-2.7,2.2c0.1,1.5,1.4,1.7,2.5,2.1c10,3.7,20.4,4.9,30.8,6.4c1.8,0.2,3.6,0.6,5.9,0.9
	c-11.8,2.9-35.8,3.6-50,2.5c-18.8-1.4-37.3-4.9-55.2-10.6c-13.3-4.1-26.5-8.7-38.4-16.2c-1.7-1.1-3.9-2.2-5.5-0.8
	c-1.8,1.6-0.9,4,0.1,5.8c3,5.4,7.1,10,11.1,14.7c7.3,8.8,16.7,15.1,25.7,22c1,0.8,2.4,1.1,2.9,2.7c-4.1,0.8-7.8-0.3-11.6-1.3
	C113.6,175.9,111.9,175.1,110,175.5l-0.4-0.4v0.3C109.7,175.4,109.9,175.5,110,175.5L110,175.5z"/>
<path class="st4" d="M65.9,166.6c-7.6-10.2-13.8-21.4-20.2-32.4c-6.1-10.6-10.1-22.2-14.6-33.6C21.7,76.2,14.5,51,9.8,25.3
	c-0.1-0.6-0.1-1.3-0.3-2.7l3.4,4.7c12,16.3,27.2,29.1,43.6,40.7c17.9,12.5,36.8,23.5,56.5,32.8c5,2.4,9.7,5.3,14.6,7.8
	c1.4,0.7,3.3,2.4,4.4,0.4c1.1-1.8-1.2-2.5-2.5-3.3c-9.5-6.2-13.7-15.6-15.5-26.3c0.4-0.1,0.7-0.3,0.8-0.2
	c18.8,12.9,40.6,17.6,62.4,22c28.9,5.9,58.4,8.2,87.6,11.9c8,0.9,15.7,3.4,22.7,7.5c11.3,6.8,14.9,18.2,17.1,30.3
	c3.9,21.7,5.1,43.8,11,65.2c1,3.8,2,7.6,3.2,12.2c-4.6-3.3-8.3-7.8-10.4-13c-0.3-4.6-2.2-8.8-3-13.2c-3.4-17.4-4.8-35.1-6.2-52.8
	c-0.2-5.3-2.4-10.4-6.1-14.2c-5.7-6-13.3-8.9-20.8-11.6c-15.1-5.4-30.9-7.4-46.7-8.8c-15.5-1.5-31-2.1-46.5-1.6
	c-7.8,0.2-15.5-1.5-22.5-4.9c-1.4-0.7-2.8-1.2-4.6-2c0.1,2.1,0.9,4.1,2.2,5.7c2.8,3.3,5.9,6.3,8.8,9.5c1,1.1,3.5,1.5,2.8,3.3
	s-3,2.3-5,2.5c-0.9,0.1-1.8,0.1-2.8,0.1c-25.4,0.5-49.1-6.9-71.7-17.6c-11.7-5.4-22.8-12.1-33-19.9c-1.5-1.2-2.8-2.6-5.2-3.3
	c0.9,3.1,1.7,5.9,2.6,8.6c6,16.9,13.8,32.9,22.2,48.7c7.5,14,14.2,28.4,22.4,42.1c2,3.4,1.5,3.9-2.4,4c-7.2,0.1-13.6-2.6-20.2-4.8
	c-3.8-1.3-7.6-2.6-12-4.1c1.7,3.6,4,6.8,6.7,9.7c10.6,11.6,21.5,23.1,33.1,33.8c7,6.4,13.5,13.3,20.7,19.4
	c4.6,3.9,8.2,8.9,13.7,11.8c1,0.5,2.2,1.5,1.8,2.8c-0.4,1.5-2,1-3.1,1c-10.3,0.5-20-2.5-29.8-4.9c-5.9-1.4-11.3-4.2-17.4-4.8
	l-0.5-0.3l0.3,0.5c0.4,0.7,0.9,1.3,1.4,1.8c8.5,6.8,16,14.7,24.8,21.2s16.9,14.1,26,20.5c0.6,0.3,0.9,1,0.8,1.7
	c-3.2-1.4-6.6-2.6-9.6-4.4c-13.5-7.8-26.3-16.8-38.1-27c-12.5-10.8-24-22.8-34.3-35.7c-0.5-0.7-1-1.5-1.5-2.3
	c0.2-0.1,0.3-0.3,0.5-0.5c15.1,7.7,31.1,13.5,47.6,17.2c-5.6-3.6-11.5-6.8-16.6-11c-12.8-10.3-24.1-22.4-33.5-35.9
	c-11-15.6-20-32.4-27-50.1c-0.9-2.4-3.3-4.1-3.1-7l0.4-0.3c1.3,0.4,2.4,1,3.3,2c11.6,10.6,25,18.5,38,27.1l1,0.2L65.9,166.6z"/>
<path class="st2" d="M617.1,216.6c-2.3,4.6-4.9,8.9-10.2,11.1c0.4-6.4,3.5-11.6,4.9-17.5c3.8-16.7,6.3-33.6,7.7-50.7
	c0.5-6.3,1.7-12.5,3.5-18.6c4.6-15.1,15.6-22.9,30.3-26.2c16.5-3.7,33.4-4.4,50.1-6.6c27.3-3.4,54.5-7.5,80.8-16
	c9.9-3.3,19.3-7.8,28-13.5c-1.4,7.5-2.8,14-7.9,19.3c-3.1,3.3-6.1,6.6-10.1,8.7c-0.9,0.4-1.4,1.4-1.1,2.3c0.5,1.3,1.8,0.9,2.7,0.5
	c3.6-1.3,6.8-3.4,10.2-5.2c12-6.2,24.2-12.1,35.9-19c16.7-9.8,32.7-20.5,47.4-33.2c7.3-6.6,14.2-13.7,20.4-21.3c2-2.4,4-4.7,6.1-7.2
	c0.8,6.7-9.7,47.5-20.3,74.9c-9.3,24.2-19.6,48.1-36.3,68.6c15-8.5,29.4-18.3,42.8-29.1c-17.1,41.8-38.9,80.1-79.8,104.4
	c2.3,0,4.6-0.4,6.8-1.3c13.4-4.2,26.9-8.3,39.1-15.6c0.7-0.5,1.5-0.6,2.2-0.4l0-0.1c-6.9,9.2-13.9,18.5-22.6,26.2
	c-3,2.6-5.7,5.5-8.5,8.2c-9.8,9.2-20.4,17.4-31.7,24.5c-6.7,4.3-13.4,8.7-21,11.5c-0.2-1.2,0.8-1.6,1.5-2.1
	c7.2-5.7,14.5-11.3,21.6-17.1c5.2-4.2,9.9-9.1,15.4-12.9s9.6-8.8,14.1-13.5c-5.8,1.3-11.4,2.8-17,4.5c-9.2,3-18.8,4.7-28.5,5.3
	c-1.4,0.1-3.2,0.5-3.7-1.3s1.1-2.5,2.1-3.4c16.9-14.6,33.1-30,48.8-45.9c2.5-2.5,4.8-5.2,7.4-7.6c6.2-5.9,11.8-12.3,16-19.8l0.3-0.5
	l-0.5,0.3c-2.4,0.8-4.8,1.4-7.1,2.3c-6.8,2.7-13.9,4.8-21.2,6.1c-1.8,0.3-3.9,1.2-5.2-0.5s0.2-3.5,1-5.1
	c6.2-10.8,11.4-22.2,17.8-32.9c4.6-7.7,8.2-15.9,11.8-24.1c5.2-11.9,12-23.1,15.5-35.7c0.4-1.4,1.5-2.9,0.3-5
	c-3,2.7-6.4,4.4-9.6,6.7c-9.9,6.9-20.5,13-31.5,18c-17.2,8.3-35.7,13.6-54.7,15.5c-6.3,0.6-12.8,1.8-19.1-0.3
	c-1-0.3-2.2-0.5-2.3-1.8s0.8-1.8,1.8-2.3c4.9-2.9,8.2-7.3,10.7-12.3c0.5-0.9,1.4-2,0.6-2.9s-1.9,0.2-2.8,0.7
	c-5.6,2.8-11.3,5-17.6,5.1c-10.5,0.2-21,0.1-31.6,0.5c-17.5,0.8-34.9,2.3-52,5.9c-10.8,2.3-21.7,4.9-30.7,11.7
	c-4.9,3.6-10.3,7.2-11.2,14c-0.8,5.6-1.1,11.2-1.7,16.9c-1.2,10.6-2.2,21.1-3.6,31.7c-0.9,7.1-2.3,14.2-3.5,21.3
	C617.2,215.3,616.9,216,617.1,216.6L617.1,216.6z M820.8,242.9l-0.3,0.2c0.1,0.1,0.2,0.2,0.3,0.2s0.2-0.1,0.3-0.2L820.8,242.9z"/>
<path class="st3" d="M541.3,131.8c-3.9,1.1-7.8,0.9-11.7,0.5c-9-0.8-16.4,3.1-23,8.6c-4.4,3.7-9,7.3-12.5,11.9
	c-2.8,3.6-6.4,3.8-10.3,2.3c-4.9-1.9-6.7-0.6-6.8,4.7c-0.1,9.8,6,16.4,11.5,23.4c1,1.3,2.3,2.5,3.5,3.9c-2.5,1.1-5-1-7.6-0.6
	c-0.1-0.3-0.3-0.6-0.7-0.2l0.5,0.4c4.4,5,10.7,7.4,16.8,11.5c-3.3,0.1-6.6-0.3-9.8-1.3c-9.5-2.7-18.1-7-24.3-15.1
	c-3.3-4.3-8-4.2-11,0.3c-7.8,11.5-19.4,15.3-32.5,16.1c6.6-2.1,11.5-6.4,15.9-11.7c-2.4-1.6-4.5,0.8-7.1-0.5
	c9.7-5.6,12.4-15,14.6-24.7c1.7-7.4-0.8-8.2-6-6.5c-2.7,0.9-5.5-0.2-8-1.4c-5.2-2.4-9.8-5.8-13.6-10c-8.3-9.4-18.4-13.2-30.7-10.8
	c-1.2-1.2-2.4-2.4-3.6-3.7c-3.6-3.9-7.7-7.5-9.8-12.6c5.2,0.5,10.4,1.4,15.6,1.5c8.7,0.4,17.3,1.7,25.7,4c6.2,1.6,11.9,4.1,16.1,9.4
	c1.5,1.9,3.7,2.8,6,3.6c4.6,1.4,6.4-0.2,5.9-5c-0.3-3.3-2.3-6.2-2-9.6c3,1.1,5.8,4.1,9.1,2.7c2-0.8,2.9-0.2,4.4,0.6
	c7.6,4.1,9.7,4.2,13.9-1.3c4,2.7,4.6,2.7,8.3-0.1c0.6-0.4,1.1-1.4,2-0.7c0.6,0.6,0.6,1.6,0,2.2c-1.8,1.9-1.3,4.2-1.2,6.4
	c0,3.8,3,5.8,6.7,4.7c3.2-0.9,5.8-3.1,8.5-4.8c8.8-5.5,18-9.7,28.3-11.3c9.3-1.4,18.8-0.3,28.3-1.1c-1.1,5.1-3.8,9.6-7.7,13
	l-0.8,0.8L541.3,131.8z"/>
<path class="st5" d="M864,181.9c-4.2,7.5-9.8,13.9-16,19.8c-2.6,2.4-4.9,5.1-7.4,7.6c-15.7,15.9-31.9,31.3-48.8,45.9
	c-1,0.9-2.7,1.7-2.1,3.4s2.4,1.4,3.7,1.3c9.7-0.6,19.3-2.4,28.6-5.3c5.6-1.7,11.2-3.2,17-4.5c-4.6,4.7-8.7,9.7-14.1,13.5
	s-10.2,8.7-15.4,12.9c-7.1,5.8-14.4,11.4-21.6,17.1c-0.7,0.5-1.6,1-1.5,2.1v-0.1c-0.8-0.1-1.5,0.4-1.6,1.1c0,0,0,0,0,0
	c-1.9,1.2-4.1,1.9-6.3,2.1c4.8-4.5,9.7-8.8,14.4-13.4c5.3-5.2,10.4-10.7,15.5-16.2c0.8-0.8,2-1.8,1.4-3s-2.1-0.5-3.3-0.6
	c-7.1-0.1-14.2,0.5-21.2-1.5c-1.8-0.5-4.3-0.6-4.8-2.9s2-2.7,3.3-3.9c4.6-4.4,9.2-8.7,13.8-13c8.9-8.4,17.9-16.7,26.9-24.9
	c8.8-8,16.7-16.6,25-25.6c-6.3,0.3-12.1,2-18,0.6c-0.3-0.1-0.5,0-0.8-0.1c-8.8-2.1-9.8-5-5.4-12.2c7.5-12.6,13.6-25.9,20.9-38.4
	c6.9-11.8,12.1-24.2,17.1-36.8c0.2-0.4,0.3-0.9,0.5-1.8c-9.8,4-19.2,7.9-28.8,11.5c-16.4,6.2-32.8,12-50,15.6
	c-8.4,1.8-16.8,2.8-25.2-0.4c-0.8-0.3-1.7-0.6-2.6-1c-4.7-2.3-5.2-4.3-2.5-8.6c-0.2-0.2-0.3-0.5-0.4-0.5
	c-16.7-0.3-33.4,0.5-50.1,1.3c-13.2,0.6-26.2,2-39.3,3.3c-12.8,1.3-21.8,8.4-29.8,17.5c-2.2,2.5-3.3,5.8-3.2,9.1
	c0.1,5.3,0.7,10.5,1.7,15.6c0.1,6.3-3.4,11.7-4.7,17.6c-2.1,8.8-5.1,17.4-9.1,25.6c-0.5,1.1-0.8,2.5-2.1,3.2
	c1.2-7.1,2.6-14.2,3.5-21.3c1.4-10.5,2.5-21.1,3.6-31.7c0.6-5.6,0.9-11.3,1.7-16.9c0.9-6.8,6.4-10.4,11.2-14
	c9.1-6.8,20-9.4,30.7-11.7c17.1-3.6,34.5-5.1,52-5.9c10.5-0.5,21.1-0.3,31.6-0.5c6.3-0.1,12.1-2.3,17.6-5.1c0.8-0.4,1.8-1.6,2.8-0.7
	s-0.1,2-0.6,2.9c-2.6,5-5.8,9.4-10.7,12.3c-1,0.6-1.9,1-1.8,2.3s1.3,1.4,2.3,1.8c6.3,2.1,12.8,0.9,19.1,0.3
	c19-1.9,37.5-7.1,54.7-15.5c11-5,21.5-11.1,31.5-18c3.1-2.3,6.6-4,9.6-6.7c1.2,2.1,0.1,3.5-0.3,5c-3.5,12.6-10.3,23.8-15.5,35.7
	c-3.6,8.2-7.2,16.5-11.8,24.1c-6.4,10.7-11.6,22.1-17.8,32.9c-0.9,1.5-2.4,3.3-1,5.1s3.4,0.8,5.2,0.5c7.2-1.3,14.3-3.4,21.2-6.1
	c2.3-0.9,4.7-1.5,7.1-2.3L864,181.9z"/>
<path class="st6" d="M86.3,249.7c6.1,0.6,11.6,3.4,17.4,4.8c9.8,2.4,19.6,5.4,29.8,4.9c1.1-0.1,2.6,0.5,3.1-1
	c0.4-1.3-0.9-2.3-1.8-2.8c-5.5-2.8-9.1-7.9-13.7-11.8c-7.2-6.2-13.7-13-20.7-19.4c-11.6-10.7-22.5-22.1-33.1-33.8
	c-2.7-2.9-5-6.1-6.7-9.7c4.5,1.5,8.2,2.8,12,4.1c6.6,2.3,13,5,20.2,4.8c3.9-0.1,4.5-0.7,2.4-4c-8.3-13.6-14.9-28.1-22.4-42.1
	c-8.4-15.8-16.2-31.8-22.2-48.7c-1-2.7-1.7-5.4-2.6-8.5c2.4,0.6,3.8,2.1,5.2,3.3c10.2,7.9,21.3,14.6,33,19.9
	c22.6,10.7,46.2,18,71.7,17.6c0.9,0,1.8,0,2.8-0.1c2-0.2,4.3-0.5,5-2.5s-1.8-2.3-2.8-3.3c-2.9-3.2-6-6.2-8.8-9.5
	c-1.4-1.6-2.1-3.6-2.2-5.7c1.8,0.8,3.2,1.3,4.6,2c7,3.5,14.7,5.1,22.5,4.9c15.5-0.5,31.1,0.1,46.5,1.6c15.8,1.4,31.6,3.5,46.7,8.8
	c7.5,2.7,15.1,5.5,20.8,11.6c3.6,3.8,5.8,8.9,6,14.2c1.4,17.7,2.8,35.3,6.2,52.8c0.9,4.4,2.8,8.6,3,13.2c-4.1-4.1-5.8-9.6-7.6-14.8
	c-3.6-10.1-6.8-20.4-8.3-31.1c0.5-4.6,1-9.1,1.6-13.7c0.9-6.9-2.9-14.1-9.4-17.9c-0.7-0.3-1.4-0.7-2-1.2
	c-6.9-8.2-16.5-9.6-26.3-10.8c-16.1-2-32.2-2.7-48.4-3.4c-12.4-0.6-24.8-0.3-37.5-0.7c0.4,2.2,2.8,3.9,1.2,6.2
	c-1.6,2.3-4.2,3.1-6.6,4c-7.8,3.1-15.8,2.1-23.7,0.4c-16.8-3.4-33-8.9-48.9-15c-10.2-3.9-20.3-7.9-31-12.1
	c1.3,5.4,3.4,10.7,6.2,15.5c1,1.8,2,3.7,2.9,5.5c6,12,11.6,24.3,18.2,36c3.1,5.6,6.4,11.1,9.6,16.6c0.8,1.4,1.4,2.8,2,4.3
	c3,7.3,0.7,10.9-7.3,11.4c-5.6,0.4-11.3,0.1-16.8-0.9c3.8,5.5,8.3,10.5,13.3,14.9c1.3,1.1,2.7,2.1,3.8,3.4
	c12,12.6,25.3,23.8,38,35.6c3.5,3.3,7.3,6.4,10.8,9.8c1.1,1.1,2.8,2,2.3,3.8c-0.6,2-2.5,2.6-4.3,2.9c-5.7,1.1-11.5,1.6-17.3,1.6
	h-7.6c3.7,6.3,8.5,10.7,12.9,15.5c5.6,6.1,12.7,10.6,18,17c-2.1,0.2-4.1-0.5-5.6-2c-0.1-0.7-0.7-1.3-1.4-1.2c-0.1,0-0.1,0-0.2,0v0.1
	c0.1-0.7-0.2-1.3-0.8-1.7c-9-6.3-17.1-14-25.9-20.5s-16.3-14.4-24.8-21.2c-0.5-0.6-1-1.2-1.4-1.8L86.3,249.7z"/>
<path class="st4" d="M488.8,422.3c3.8,13,7.1,26.2,11.6,38.9c8.1,22.9,13.8,46.5,21.4,69.6c2,6.2,4.3,12.2,6.3,19.5
	c-3.3-1.8-5.9-3.1-8.3-4.6c-12.7-8.2-25.3-16.6-38.2-24.5c-5.7-3.5-11.3-7.1-16.9-10.8c-1.3-1.1-3.3-1.1-4.6,0
	c-13.1,8-26.3,16-39.4,23.9c-8.2,4.9-16.4,9.8-25.1,15.1c12.2-42,26.9-82.4,38.9-123.7c1.3,1.4,0.6,3,0.3,4.5
	c-0.6,4.1-1.4,8.3-2,12.4c-3.1,20.4-6.2,40.7-9.3,61.1c-0.7,4.6-1.3,9.2-2,14.7l5.1-3.2c11.1-7.1,22.2-14.1,33.2-21.2
	c1.8-1.2,3.3-1.5,5.4-0.2c10.2,6.3,20.4,12.5,30.7,18.6c2.7,1.6,5.3,3.7,8.8,4.4c-1-6.2-2.5-12.2-3.7-18.1c-4.3-22.4-8-45-11.7-67.5
	C488.7,428.2,486.9,425.3,488.8,422.3L488.8,422.3z"/>
<path class="st3" d="M327.4,416.8l2.9-2.3c-0.4,8.6,0,17.7-1.6,26.3c-1.8,9.9-1.1,19.8-2.6,29.6c-0.3,1.8,0.3,2.5,2.1,1.8
	c2.7-1,5.5-1.9,8.2-2.9c11.1-4.1,22.2-8.2,33.3-12.3c0.8-0.3,1.7-1.2,2.5-0.2s-0.5,1.5-0.8,2.3c-2.3,7.7-4.5,15.4-6.7,23.1
	c-1.1,3.8-2.1,7.5-3.4,12.3l44.8-41.8l0.6,0.3c-2.6,8.2-5.3,16.4-7.9,24.7c-3.5,11.4-8,22.4-12,33.6L340.2,522
	c3.9-13,7.7-25.5,12.8-38c-1.4,0.2-1.9,0.2-2.4,0.3c-16.2,3.8-32.4,7.6-48.6,11.5c-1.1,0.3-2.4,1.4-3.3,0.4s0.2-2.2,0.6-3.2
	c2.7-7.6,5.7-15.2,8.8-22.6c4.4-10.7,8.1-21.7,11.9-32.6c1.6-4.6,4-8.9,4.4-13.8c1.6-1.7,2.5-4,2.4-6.4v0.1L327.4,416.8z"/>
<path class="st3" d="M561.7,494.3c-0.1-5.4-2.4-10.2-3.7-15.2c-1.6-6.2-3.4-12.4-5.1-18.6c-0.2-0.7-0.9-1.5-0.2-2.2
	c0.8-0.9,1.7,0,2.5,0.3c12.8,4.7,25.6,9.3,38.4,14c4.5,1.6,4.2,1.7,3.9-3.2c-0.7-9.3-1.2-18.6-1.7-27.9c-0.5-8.4-0.8-16.7-1.3-25.4
	c1.6,0.3,1.7,2,2.7,2.7c0.5,3,0.9,6,3.2,8.3c-0.4,1.5,0.3,2.9,0.8,4.2c3.3,8.1,6,16.5,9.4,24.5c5.4,12.7,9.6,25.9,14.3,38.9
	c1,2.9,0,3.2-2.4,2.6l-17.2-4.2c-10.8-2.6-21.6-5.6-32.6-7.6l-0.4-0.3l0.3,0.4c-0.1,1.3,0.1,2.6,0.6,3.8c3.1,9.9,6,19.8,9.2,29.7
	c1,3.2,0.5,4-3,3.2c-14.1-3.4-28.3-6.6-42.5-9.9c-3.5-8.1-5.8-16.6-8.3-25c-2.9-9.9-7.5-19.2-10.2-29.2c-0.3-1.2-0.7-2.5-1.5-4.9
	c3.5,3,6.3,4.9,8.7,7.4C537.3,472.3,549.7,483,561.7,494.3c0,0.1,0.1,0.2,0.2,0.3c0,0,0.2,0,0.2,0L561.7,494.3z"/>
<path class="st7" d="M438.5,419.9c0.8,1.8,0.4,3.6,0.4,5.5c0,19.2,0,38.5,0.2,57.7c7.8-25.8,13-52.3,22.1-77.9
	c8.1,26,15.1,52.3,24.5,79v-5c0-16.2,0-32.4,0-48.6c0-1.7-0.3-3.4,0.4-5.1l8,80.3c-1.4,0.2-2.1-0.7-3-1.2
	c-8.8-5.5-17.5-11.1-26.3-16.7c-1.1-0.7-2-1.9-3.8-0.5c-6.9,5.2-14.8,9.1-22.3,13.4c-3.2,1.9-6.5,3.4-10.4,5.5
	c1.6-14.8,3.3-28.7,4.5-42.7C434.3,448.9,437,434.4,438.5,419.9L438.5,419.9z"/>
<path class="st8" d="M617.7,556.9c-3.5-1.6-7-3-10.3-4.7c-12.7-6.6-25.3-13.4-38-20c-9.7-5-19.3-10-29-15v-0.7
	c10.3,2,20,5.9,30.2,8.4c7.6,1.9,14.8,5.1,22.7,6l0.5,0.2l-0.3-0.5c-0.3-1.1-0.6-2.3-1-3.4c-4.7-11.3-10.2-22.2-14.2-33.7
	c-0.3-0.9-1.3-1.9-0.2-2.9c0.8-0.7,1.7,0,2.6,0.3c11.9,3.3,23.7,6.7,35.6,10c6.1,1.7,12.1,4,18.6,5.1c-0.9-4.2-3.4-7.3-4.9-10.9
	c-8.5-20.9-17.4-41.6-26.6-62.2c-0.9-2-1.1-4.3-3-5.9c0-1.1,0-2.2,0-3.3c4.1,4.9,7.6,10.3,11.3,15.5c13.2,18.6,25.5,37.8,38.9,56.3
	c7.8,10.7,14.9,21.8,22.5,32.7c1.1,1.6,3.3,2.3,3.5,4.5c-0.1,0.1-0.2,0.2-0.3,0.3c-1.5,0-2.9-0.4-4.2-1
	c-19.7-7.3-39.4-14.5-59.2-21.8c-7.6-2.8-15.3-5.6-23-8.4c-1.1-0.6-2.5-0.8-3.7-0.5c-0.1,2.6,2.5,3.7,3.5,5.6
	c5.9,10.9,11.8,21.7,18.2,32.3c3.4,5.7,7.4,11,10,17.2L617.7,556.9z"/>
<path class="st8" d="M383.8,515.7c-0.8,1.4-2.3,1.7-3.5,2.3c-16.7,8.7-33.3,17.4-50,26.1c-8,4.2-16.1,8.2-24.3,12.5
	c10.5-19.1,21.4-37.8,32-56.9l-89.8,32.7l-0.5-0.6l76.7-110.6v2.7c-0.5,0.4-0.8,1-1.1,1.5c-8.1,20.6-17.6,40.7-26.1,61.2
	c-2.5,5.9-5.6,11.6-6.8,18l-0.3,0.3l0.4-0.3c10.2-2.3,20.2-5.5,30.3-8.4c8.6-2.5,17.3-4.9,26.5-7.5c-0.6,1.8-1.1,3-1.5,4.2
	c-4.5,11.2-9,22.5-13.4,33.7c-0.4,0.9-1.3,1.9-0.3,2.9c0.8,0.8,1.7,0,2.6-0.2c8.7-2.5,17.4-5.1,26.1-7.5
	C368.3,519.6,375.8,516.7,383.8,515.7L383.8,515.7z"/>
<path class="st9" d="M497.1,260.1c8.2-2.7,13.5-8,14.7-16.8c0.7-5.3,1.1-10.7,1.6-16c0.5-3.8,1.2-7.5,2.1-11.2
	c0.8-3.6,3-5.2,6.5-5.8c3.9-0.7,7.7-1.7,11.5-2.5c7.7-1.7,12.3-7.1,16.2-13.3l0.9-0.8c2.5,0.1,2.2,1.9,2.4,3.6
	c0.2,1.5-1,3.5,1.4,4.3c1.5,1.9,2.8,0.9,4-0.3c2.1-2,3.7-4.5,4.6-7.2c3.2-9.5,6.4-19.1,4.3-29.4c-0.1-0.7,0.1-1.4,0.5-1.9
	c0.4,1.1,0.7,2.1,1.1,3.2c0.4,3.4,0.8,6.8,1,10.1c0.7,9.3,2.8,18.6,0.7,28.1c-1.5,6.8-2.5,13.6-3.7,20.5
	c-5.1,7.9-10.6,15.6-17.6,21.9c-8.7,7.6-17.6,15.2-29,18.3c-6.3,1.7-12.9,2-19.4,3.1c-4,0.7-7.9,1.6-11.9,2.5
	c0.9-3.9,4.7-5.9,6.2-9.5C496,261,496.7,260.7,497.1,260.1L497.1,260.1z"/>
<path class="st10" d="M561.8,272.1c5.8-3.3,9.5-8.4,12.6-14.2c5.7-10.6,8.8-22.1,11.3-33.8c0.8,0.1,1,0.6,1,1.1
	c0.5,23-3.8,44.7-17.6,63.8c-1.5,2.1-4.2,3.1-5.3,5.7c-0.1,0.3-0.3,0.6-0.4,0.9l1-0.1c2.6-0.5,5-1.5,7.3-2.8
	c13.4-7.1,25.2-16.8,34.9-28.4c9.2-11,15.7-23.5,21.3-36.6c0.1,6.2-1,12.3-2,18.4c-1,6.2-2.4,12.4-4.1,18.5
	c-1.7,6.1-3.8,12-6.3,17.8c-2.5,5.9-6.8,10.4-11.3,15.5c3.9,0.3,7.7-0.7,10.9-3c-2.3,7.7-21.9,25-40.8,27.3c0.7-1.4,2.2-1.8,3.3-2.7
	c5.6-4.3,11.5-8.2,16-13.9c6.3-8.1,10.8-17.4,13.5-27.3c-0.7,0.5-1.5,1-2.1,1.5c-8.9,8.2-19,14.4-30,19.5c-5.8,2.8-12.3,4-18.8,3.4
	c-4.9-0.5-6-3.2-3.1-7.2c0.4-0.5,0.9-1,1.4-1.4c5-3.5,9-8.1,12.8-12.7c2.6-3.1,4.2-6.8,4.6-10.8c-1.9,0.7-2.5,2.2-3.7,3.2
	c-4.9,4.2-8.7,9.5-14.1,13.1c-1.3,0.9-2.7,1.4-4,0.4s-1.2-2.2-0.7-3.6c0.9-2.8-0.9-2.6-2.5-2c-2.2,0.9-4.3,1.9-6.3,3.2
	c-7.5,4.5-15,8.8-23.4,11.2c-1.1,0.3-2.4,0.8-3.3-0.2c-0.7-0.8,0.1-1.7,0.5-2.5c0.6-1.5,1.6-3.1,0.3-4.4s-3-0.6-4.5-0.2
	c-1.1,0.3-2.2,0.8-3.2,1.4c-4.2,2.6-8.8,3.3-13.6,3c-7.7-0.4-13.9,3.3-19.6,7.9c-3.7,3-5,7.6-7.8,11.2c0-0.5,0-1,0-1.6
	c0.2-12.5,8-20.9,20.6-22.3c7.6-0.8,15.1-2.4,22.4-4.6c4.6-1.4,8.9-3.4,11.2-8c0.4-0.8,1.1-1.5,1.8-2c1.9-1.3,4-1.6,5.7,0.2
	s1.5,3.9-0.1,5.6c-1.5,1.5-3,2.9-4.7,4.2c-1.5,1.3-2.1,2.9-1,4.5s3,1.4,4.5,0.3c15-10.6,30.7-20.6,39.2-38c0.8-1.7,2.4-3,2.9-5.7
	c0.7,6.1-1.7,14.5-7.2,26.7c0,0.3-0.1,0.6-0.2,1L561.8,272.1z"/>
<path class="st9" d="M375,194.4c4.7,9.8,13.2,13.3,23.3,15.1c9.5,1.7,10,2.5,11.4,11.7c1,7,1.7,14,2.5,21.1c0.7,6.6,4.3,11.3,9.5,15
	c1.7,1,3.4,2,5.2,2.8c0.5,0.6,1,1.1,1.9,0.9c1.5,3.5,5.4,5.5,6.2,9.5c-9.7-2.3-19.6-3.5-29.4-5.1c-8.2-1.4-15.5-6.3-22.1-11.6
	c-8.5-7-16.8-14.3-23-23.6c-1.1-1.6-1.9-3.4-2.9-5.1c0-4.1-1.3-8-2-12c-1.3-7.9-3.4-15.5-2.1-23.7c1.2-7.9,1.6-15.9,2.4-23.8
	l1.2-2.8c-1.1,9.1,0,17.9,2.2,26.6c1.2,4.6,3,9,6.6,12.4c1.2,1.2,2.5,2.3,3.7,0c2-0.8,1.5-2.6,1.4-4.1c-0.1-2.4,0.8-3.7,3.2-3.8
	L375,194.4z"/>
<path class="st11" d="M311.9,295.5c2.8,1.1,5.5,2.6,9.5,2.2c-8.2-7.4-11.5-17.2-15.6-26.4c-3.2-7-4.5-14.8-5.8-22.4
	c-1.2-6.9-2-13.8-3-20.6l0.8-0.4c1.1,2.7,2.2,5.4,3.4,8c6.3,12.8,13.7,24.9,23.6,35.1s21.1,19,34.6,24.1c0.8,0.3,1.6,1,2.9,0.5
	c-8.2-10.3-15.8-20.8-19.4-33.6c-3.6-12.6-4.8-25.7-3.7-38.8c1.1,4.6,2.3,9.1,3.5,13.7c2.6,10.9,7.8,20.5,14.5,29.4
	c1.8,2.4,3.8,4.7,6.6,6.1l0.9,0.3c-0.1-0.3-0.2-0.6-0.2-0.9c-4-7.9-6-16.3-7-25l1,0.1c4,11.8,13,19.8,22,27.7
	c6,5.4,12.9,9.5,19.5,14c1.1,0.7,2.2,1.5,3.5,0.2s1-2.5,0.2-3.9c-1.2-2.3-3.5-3.6-5-5.5s-1.7-3.8,0.3-5.5c1.9-1.6,4-1.4,5.1,0.5
	c5.9,10,16.5,10.1,26,12.7c2.6,0.7,5.2,1,7.8,1.1c8.7,0.4,15.1,5.5,20.6,11.2c2.9,3,2.1,8,2.1,12.2c0,0.5-0.1,1-0.1,1.6
	c-2.3-3.5-4.3-7.2-7-10.3c-4.6-5.3-10.4-9.3-17.6-9.3c-6.5,0-12.6-0.5-18.2-4.1c-0.8-0.4-1.7-0.7-2.6-0.8c-5.1-0.9-5.7-0.2-3.9,4.7
	c0.3,0.9,0.9,1.8,0.3,2.6c-0.8,1-1.9,0.6-2.9,0.2c-2.8-1.1-5.6-2.2-8.4-3.4c-6.5-2.9-12.8-6.2-18.8-10.1c-3.3-2.2-4.2-1.6-4.5,2.1
	c-0.2,3-1.6,3.6-4.2,2.5c-4.1-1.8-7.2-4.8-10.1-8.1c-2.8-3.1-5.5-6.2-8.2-9.3c0.4,4,1.8,7.7,4,11.1c3.5,5.5,8.2,10.3,13.7,13.9
	c1.7,1.1,2.6,3.1,2.2,5.1c-0.3,2.2-2.2,1.9-3.6,2.3c-2.9,0.8-6,0.8-9,0.2c-11.4-2.2-21-8-30.4-14.5c-4-2.8-8-5.7-12.1-8.6
	c1.2,7.1,4.1,13.9,8.4,19.7c6.7,9.1,14.4,17.4,24.6,22.8c-2.8-0.1-5.5-0.6-8.1-1.6c-13.5-4.6-25.1-11.8-32.9-24.1L311.9,295.5z"/>
<path class="st12" d="M691.4,242.7c12.5,2.7,24.4-2.1,36.5-3.7s24.2-4.3,36.3-6.2c-8,2.8-15.5,6.6-24,10.1c3.3,2.4,6.2,4.6,9.2,6.6
	c1.9,1.2,2.6,2.1,0.2,3.5c-10.8,6.5-21.8,12.6-33.8,16.8c-3.4,1.2-6.7,2.4-10,3.6c-0.8,0.3-2.2-0.1-2.2,1.1c0.2,0.9,0.8,1.6,1.6,2.1
	c3.9,2.4,8.1,4.3,12.5,5.7c1.4,0.5,3.6,0.2,3.9,2c0.2,1.3-1.5,2.5-2.7,3.2c-7.1,4.1-13.7,9.2-21.3,12.7c-7.8,3.6-15.3,8-24.3,11.4
	c8.2,3.3,15.9,4.4,23.5,6.1c-27.2,7.2-54.7,5.5-82.1,2.4c30.7-2.5,57.8-14.9,84-30.2c-19.8-0.3-38.4-5.7-57.1-11.1
	c30.8-2.1,59.3-12.4,87.8-23C715.4,255.2,702.6,251.2,691.4,242.7L691.4,242.7z"/>
<path class="st13" d="M581.3,393.5c-0.3-6.3,0.6-12.3-0.7-18.3c-1.1-5.2-2.9-9.9-7.4-13c-1.8-1.2-2.8-1.3-2.8,1.4
	c0.1,4.1-0.1,8.2-0.1,12.2c0,7.3-3,13.4-7.1,19.1c-0.7,1-1.5,2-2.9,1.7c-1.5-0.4-1.2-1.8-1.2-2.9c-0.5-9.9-6-17.5-11.5-25.1
	c-1.2-1.6-3-1.4-4.7-1c-2,0.4-1.7,2.1-1.8,3.5c-1,9.5-2.9,18.7-6.8,27.4c-0.6,1.4-1.1,3.5-3,3.3s-1.5-2.5-1.7-4
	c-0.9-6.8-3.6-12.6-7.5-18.3c-4.9-7.2-8.9-15-9.9-23.8c-0.5-4.4,0.8-7,5-8.1c5.5-1.4,11.2-2.3,15.4,3.3c1.6,2.1,5.1,1,6.8-1.8
	c3.8-6.2,9.4-7.8,15.6-4c4.5,2.7,8.2,2.8,12.6-0.8c10.6-8.4,22.4-3.9,25.7,9.3c2.6,10.1,1.1,20.8-4.2,29.7
	C587.2,387,584,390.1,581.3,393.5L581.3,393.5z"/>
<path class="st12" d="M251.6,310.9c-3.6-1.7-6.8-3.2-10-4.7c-11.8-5.1-23.1-11.3-33.8-18.5c-0.5-0.4-1-0.8-1.5-1.2
	c-2.3-1.9-2.8-3.1,0.7-4.4c4.5-1.5,8.7-3.6,13-5.6c1.1-0.7,2.1-1.5,3-2.4c-5.7-2-10.9-4-16.2-5.8c-11.2-3.9-21.3-10.2-31.7-15.9
	c-2.1-1.2-1.6-1.8,0.1-2.8c2.5-1.4,4.9-3.1,7.3-4.7c0.8-0.6,2.3-0.8,2.2-2.1c-0.1-1.4-1.7-1.5-2.7-1.9c-4.4-1.8-8.8-3.5-13.2-5.3
	c-1.3-0.5-2.6-1.2-3.7-2.1c22.4,2.6,44.2,8.8,67.2,10c-11,7.9-24.3,11.9-37.8,11.4c29.5,10.7,58.9,22.1,91.7,22.9
	c-20.2,5.4-39.4,11.9-60.1,11.1c25.7,15.6,52.8,27.4,83,30.8c-26.9,2.5-53.7,4.3-80.2-2l-0.1-1c3.8-0.7,7.6-1.3,11.3-2
	C244.3,314,248.1,312.8,251.6,310.9L251.6,310.9z"/>
<path class="st13" d="M355.3,361.6c-11.1,3.6-13,16.1-10.6,32.2c-0.8,0.4-1.1-0.2-1.5-0.6c-10.6-11.9-15-25.5-10.4-41.2
	c3.4-11.6,16.9-15.5,25.3-7c3.6,3.6,6.8,3.2,10.5,1.4c8.7-4.3,11.7-3.7,17.5,3.9c2.1,2.7,5.2,2.9,7.8,0.5c4.4-4,10.8-4.8,16-2
	c2.3,1.1,3.6,3.6,3.3,6.2c-0.4,7.2-3.4,13.5-6.8,19.6c-2.9,5.2-6,10.2-8.1,15.8c-1.1,2.5-1.8,5.2-2,8c0,1.5,0.1,3.6-1.8,3.9
	s-2.9-1.5-3.6-3.1c-2.7-6-4.6-12.3-5.7-18.8c-0.5-3.1-1-6.2-1.4-9.4c-0.2-1.3-0.1-2.7-1.8-3.1c-1.3-0.4-2.7-0.1-3.6,1
	c-5.4,7.8-12.5,14.7-12.4,25.2c0,1.2,0.3,2.5-1.3,2.9s-2.5-0.8-3.1-1.9c-3.9-6-6.1-12.9-6.3-20.1
	C355.2,370.6,355.3,366.3,355.3,361.6L355.3,361.6z"/>
<path class="st14" d="M564.3,323.1c-4.6,0.7-9.1-0.8-13.7-1c-9.8-0.4-19.7-1.9-29.3,2c0.2-5.7,4.1-9.8,6.3-14.6
	c0.5-1.1,2.2-1.8,1.2-3.4c-0.8-1.6-2.3-2.6-4.1-2.7c-2-0.2-4,0.3-5.7,1.3c-6.3,4-13.1,7.4-18.4,12.8c-4.9,5-6.8,11.5-7.8,18.2
	c-1.3,9.7-1.4,19.5-0.2,29.1c0.1,1.5,0.1,2.9,0,4.4c-1.3,0.4-1.4-0.9-1.8-1.5c-6.6-10.4-9.2-21.7-7-34c0-0.1,0.1-0.3,0.1-0.4
	c-0.2-2.5,1.6-6.3-0.8-7.1c-1.8-0.7-4,3-5.1,5.2c-2.7,5.5-3.8,11.6-3,17.7c0.3,2.5,0.5,5,0.5,7.5c-0.3-0.3-0.7-0.5-0.8-0.8
	c-4.3-11.7-7.5-23.6-5.5-36.2c2.1-13.4,10.9-20.8,23.6-23c4-0.7,8.1-0.9,12-2.3c2.5-0.8,4.7-0.3,5.7,2c1.7,3.7,4.4,3.5,7.6,2.9
	c7.9-1.6,14.8-5.3,21.7-9.1c2.5-1.4,5.1-4.4,7.1,0.6c0.2,0.4,0.6,0.6,1,0.6c3.9-0.2,2.9,2.1,2.5,4.5c-1.6,9.7-1.6,11.4,9.9,10.5
	c0.3,0,0.5-0.2,0.8-0.2c8.5-0.8,16.7-3.5,25-5.2l0.3,0.3c0,1.4-1,2.4-1.8,3.4C578.9,312,572.1,318.2,564.3,323.1L564.3,323.1z"/>
<path class="st3" d="M432.8,369.3c-0.1-8.1,1.3-16.3,0.8-24.4c-0.4-6.5-1.3-12.8-3.7-18.9c-2.8-7.4-8.4-13.3-15.6-16.4
	c-2.6-1.3-5.1-2.8-7.4-4.5c-1.9-1.3-4.2-1.8-6.4-1.5c-3.1,0.5-4.2,2.8-2.4,5.4c3.1,4.4,4.7,9.3,6.4,14.9c-13.2-5.1-26.2-1.6-39.1-1
	c-1.7,0.1-3.4,0-5.1-0.2c-3.6-2.9-7.1-5.8-10.7-8.7c-4.4-3.7-8.5-7.5-11.3-13.4c1.2,0.3,1.7,0.4,2.2,0.5c8.8,2.5,17.9,4.4,27,5.5
	c7.8,0.9,9.9-1.2,8.5-8.9c-0.5-2.8-2.2-6.2,2.9-6.6c0.4-0.1,0.7-0.3,0.9-0.7c1-3.6,2.8-1.8,4.5-0.8c7.3,4.2,15.1,7.5,23.2,9.8
	c3.2,0.9,5.9,0.1,7.6-2.6c1.9-3,4.3-3.1,7.2-2.2c3,1.1,6.1,1.7,9.2,2c11.9,0.4,21.9,9,24.1,20.7c2.8,14.4-0.6,27.9-6.3,41
	c0.6-7,1.7-14.1,0-21.1c-0.8-3.3-2.2-6.5-4.1-9.3c-0.7-0.9-1.3-2.4-2.7-2c-1.7,0.5-1.1,2.2-1,3.4c0.1,2,0.4,3.9,0.8,5.8
	c1.9,9.6-0.2,18.5-4.3,27.1C436.8,364.8,434.5,366.9,432.8,369.3L432.8,369.3z"/>
<path class="st11" d="M541.3,131.8l0.7-0.6l0.8-0.8c6.7-1.5,10.5-6.6,14.4-11.6c3.3-4.3,5.2-9.6,5.4-15c-8.5,10-19.1,11.3-30.1,10.5
	c-5.2-0.4-10.5-0.3-15.7,0.2c-7,0.8-13.7,2.1-19.1,7.2c-1.9,2-4.3,3.5-6.9,4.4c-1.8,0.5-3.9,1-5.2-0.6s-0.3-3.5,0.6-5.1
	c1.1-1.9,2.5-3.7,2.9-6c0.5-3.6-0.9-4.7-4.2-3.3c-2.9,1.3-5.5,3.1-7.7,5.4c-1.2,1.1-2.3,1.7-3.8,0.7c-4.3-2.8-5.5-2.3-7.1,2.4
	c-1.1,3.2-2.6,3.6-5,1.3c-0.7-0.8-1.3-1.6-1.9-2.5c-2.1-3.1-4.6-3.9-7.5-1.1c-1.9,1.8-3.6,1.4-5.3,0.1c-2.3-1.8-4.5-3.7-6.6-5.6
	c-1.1-1-2.2-1.6-3.6-1.1c-1.7,0.6-1.1,2.1-1.2,3.4c-0.2,3.2,2.1,5.5,3.4,8.2c0.8,1.7,2.7,3.6,0.4,5.2c-2,1.4-4,0.4-5.5-1.4
	c-3.5-4.2-8.2-6.5-13.3-8.2c-11.4-3.6-23.2-4.2-35-4.8c-7.8-0.3-15.3-2.6-21.9-6.7c-1.1-0.7-2.1-1.8-4.1-1.9c2.6,7,7,13.3,12.8,18
	c3.7,3.1,7.4,6.3,11,9.4c-20.2-1.5-30.9-14.6-28.2-34.6c0.4-2.8,0.5-5.7,1.6-8.3c1.2,0.2,1.3,1.4,1.7,2.1
	c6.5,12.1,18.2,18.1,31.8,15.7c11.4-2.1,23.1-0.3,33.3,5.2c1.8,1,3.8,1.7,5.7,2.6l0.4,0.5c0.2-0.3,0.3-0.6-0.2-0.8
	c-0.5-4.6-4.4-6.9-7.2-10.8c7.8,0.1,15.5,1.4,22.9,3.9c1.2-0.7,0.1-1.4,0-2c-0.4-3,1-4.2,3.9-3c2.4,1.1,4.5,2.7,6.1,4.8
	c2.2,2.7,5.5,4.4,7.4,7.9c3.6-6.4,8.4-10.6,14.9-12.6c2.1-0.7,5-1.4,3.5,2.9l-1.4,1c0.9,0.8,1.5,0.2,2.2-0.3
	c7.5-3.1,15.2-4.7,24.5-2.7c-4.8,2.9-9.3,5.1-9.9,11.2c7.3-4.9,15.6-7.9,24.3-8.7c7-0.7,14-0.7,20.9,0c8.3,0.9,14.3-2.3,19.2-8.6
	c1-1.2,1.9-2.5,3-3.7c1.2-1.3,1.8-4.2,3.4-3.9c2.2,0.4,2.1,3.3,2.8,5.2C576.1,114.6,555.9,133.1,541.3,131.8L541.3,131.8z"/>
<path class="st12" d="M662,202.7c41.3-1.9,82.1-1,122.3-13.9c-13.2,9.1-26.1,16.3-40.6,20.8c5.4,5.6,23.1,12.5,34.8,12.8
	c-4,2.2-8.3,1.7-12.2,2c-15.2,1-30.3,1.4-45.6-0.3c-15.8-1.8-31-5-45.3-12C670.6,209.6,666,206.4,662,202.7z"/>
<path class="st12" d="M147.3,222.4c12.7-1.5,24.3-6,36-13.1c-14.8-3.6-26.6-11-38.3-18.7c39,9.9,78.7,11,118.9,11.1
	c-6.8,6.6-14.6,10.8-23.1,14.1c-10.7,4.1-21.9,6.2-33.3,7.7c-7,0.8-14.1,1.2-21.2,1.1C173.2,224.5,160.2,224.7,147.3,222.4
	L147.3,222.4z"/>
<path class="st15" d="M461.5,190.5c2.2,0,4.4,0.7,6.1,2.1c5,4.2,9.9,8.6,15.3,12.4c1.6,1.1,1.9,2.4,1.6,4.4
	c-2.1,11.7-7.7,21.9-13.4,32c-1.9,3.3-4.6,6-5.8,9.8c-1,3.1-4.3,3.6-6.1,0.7c-5.2-8.6-11.4-16.7-13.9-26.7c-1.1-4.4-1.9-9-3.3-13.4
	c-1.1-3.7-0.2-6.1,2.7-8.5c3.9-3.1,7.4-6.7,11-10.1C457.4,191.6,459.4,190.7,461.5,190.5L461.5,190.5z"/>
<path class="st5" d="M382.9,131.9c-3.7-3.1-7.3-6.4-11-9.4c-5.8-4.7-10.2-11-12.8-18c2,0,3,1.2,4.1,1.9c6.6,4.1,14.2,6.4,21.9,6.7
	c11.8,0.5,23.6,1.2,35,4.8c5.1,1.6,9.8,4,13.3,8.2c1.5,1.8,3.5,2.8,5.5,1.4c2.3-1.6,0.4-3.6-0.4-5.2c-1.3-2.7-3.6-4.9-3.4-8.2
	c0.1-1.2-0.5-2.8,1.2-3.4c1.4-0.4,2.5,0.2,3.6,1.1c2.1,1.9,4.3,3.8,6.6,5.6c1.7,1.3,3.4,1.7,5.3-0.1c2.8-2.8,5.4-2,7.5,1.1
	c0.6,0.9,1.2,1.7,1.9,2.5c2.3,2.3,3.9,1.9,5-1.3c1.6-4.7,2.8-5.2,7.1-2.4c1.5,1,2.7,0.5,3.8-0.7c2.2-2.3,4.8-4.1,7.7-5.4
	c3.4-1.4,4.7-0.3,4.2,3.3c-0.3,2.3-1.8,4.1-2.9,6c-0.9,1.6-2,3.4-0.6,5.1s3.5,1.1,5.2,0.6c2.6-0.9,5-2.4,6.9-4.4
	c5.4-5.1,12.2-6.4,19.1-7.2c5.2-0.6,10.5-0.6,15.7-0.2c11,0.8,21.6-0.5,30.1-10.5c-0.2,5.4-2.1,10.7-5.4,15
	c-3.8,5-7.7,10.1-14.4,11.6c3.9-3.4,6.6-7.9,7.7-13c-9.5,0.8-19-0.3-28.3,1.1c-10.3,1.6-19.6,5.8-28.3,11.3
	c-2.8,1.7-5.3,3.9-8.5,4.8c-3.7,1.1-6.6-0.9-6.7-4.7c0-2.2-0.6-4.5,1.2-6.4c0.6-0.6,0.6-1.6,0-2.2c-0.8-0.7-1.4,0.3-2,0.7
	c-3.7,2.8-4.3,2.8-8.3,0.1c-4.2,5.5-6.3,5.4-13.9,1.3c-1.5-0.8-2.4-1.4-4.4-0.6c-3.4,1.3-6.1-1.7-9.1-2.7c0-0.1-0.1-0.2-0.1-0.3
	c0,0-0.1,0-0.2,0l0.4,0.3c-0.3,3.4,1.7,6.3,2,9.6c0.5,4.8-1.3,6.5-5.9,5c-2.3-0.7-4.6-1.7-6-3.6c-4.1-5.3-9.9-7.8-16.1-9.4
	c-8.4-2.3-17-3.6-25.7-4c-5.2-0.2-10.4-1-15.6-1.5l-0.3-0.4v0.2c0.1,0.1,0.2,0.1,0.3,0.1c2,5.2,6.1,8.7,9.8,12.6
	c1.2,1.3,2.4,2.5,3.6,3.7C386.4,133,384.7,132.1,382.9,131.9L382.9,131.9z"/>
<path class="st16" d="M449.3,358.2c5.7-13.1,9.1-26.6,6.3-41c-2.2-11.7-12.3-20.3-24.1-20.7c-3.1-0.3-6.2-0.9-9.2-2
	c-2.9-0.9-5.3-0.8-7.2,2.2c-1.7,2.7-4.4,3.4-7.6,2.6c-8.1-2.3-15.9-5.6-23.2-9.8c-1.8-1-3.6-2.8-4.5,0.8c-0.2,0.4-0.5,0.6-0.9,0.7
	c-5.1,0.5-3.4,3.8-2.9,6.6c1.4,7.7-0.7,9.9-8.5,8.9c-9.1-1.1-18.2-3-27-5.5c-0.5-0.1-1-0.2-2.2-0.5c2.8,5.9,6.9,9.7,11.3,13.4
	c3.5,3,7.1,5.8,10.7,8.7c-2.7-0.2-5.5,0.6-8.1-0.7c-10.2-5.5-17.9-13.7-24.6-22.8c-4.3-5.8-7.2-12.6-8.4-19.7c4.1,3,8,5.8,12.1,8.6
	c9.4,6.5,19,12.3,30.4,14.5c3,0.7,6.1,0.6,9-0.2c1.4-0.4,3.4-0.1,3.6-2.3c0.4-2-0.5-4-2.2-5.1c-5.5-3.6-10.2-8.4-13.7-14
	c-2.2-3.3-3.6-7.1-4-11.1c2.7,3.1,5.4,6.2,8.2,9.3c2.9,3.3,6,6.3,10.1,8.1c2.6,1.2,4,0.5,4.2-2.5c0.2-3.7,1.1-4.3,4.5-2.1
	c6,3.8,12.3,7.2,18.8,10.1c2.8,1.2,5.6,2.3,8.4,3.4c1,0.4,2.1,0.8,2.9-0.2c0.6-0.8,0-1.7-0.3-2.6c-1.8-4.9-1.2-5.6,3.9-4.7
	c0.9,0.1,1.8,0.3,2.6,0.8c5.6,3.5,11.7,4.1,18.2,4.1c7.3,0,13,4,17.6,9.3c2.7,3.1,4.7,6.9,7,10.3c0.1,8.1,0.3,16.4-1.7,24.3
	s-3.7,16.1-9.2,22.6l-0.1-0.1C449.4,359.2,449.4,358.7,449.3,358.2L449.3,358.2z"/>
<path class="st16" d="M438.5,419.9c-1.5,14.6-4.2,29-5.5,43.6c-1.3,14-3,27.9-4.5,42.7c3.9-2,7.2-3.6,10.4-5.5
	c7.5-4.4,15.3-8.2,22.3-13.4c1.7-1.3,2.6-0.2,3.8,0.5c8.8,5.5,17.5,11.1,26.3,16.7c0.9,0.5,1.6,1.5,3,1.2l-8-80.3
	c-0.7-3.4-0.3-6.8-0.4-10.7c2.1,2.5,2.4,5.1,3,7.6c-1.9,3-0.1,5.9,0.4,8.7c3.7,22.5,7.5,45.1,11.7,67.5c1.1,6,2.7,11.9,3.7,18.1
	c-3.5-0.6-6-2.7-8.8-4.4c-10.3-6.1-20.5-12.3-30.7-18.6c-2.1-1.3-3.6-1-5.4,0.2c-11.1,7.1-22.2,14.1-33.3,21.2l-5.1,3.2
	c0.8-5.5,1.4-10.1,2-14.7c3.1-20.4,6.2-40.7,9.3-61.1c0.6-4.1,1.4-8.3,2-12.4c0.2-1.5,1-3.1-0.3-4.5c0.4-3.6,2.3-6.5,4.1-9.7
	C439.4,417.3,438.7,418.6,438.5,419.9L438.5,419.9z"/>
<path class="st17" d="M375.9,158.8c0-12.6,11.2-19.6,22.8-14.1c3.4,1.6,3.9,4,1.5,6.9c-0.7,0.8-1.6,1.4-2.2,2.2
	c-4.1,4.9-2.7,11,3.3,13c1.9,0.6,3.3,1.4,3.7,3.5c0.4,2.3-1.4,3.2-2.7,4.4s-4.4,1.1-3.5,3.4c0.6,1.6,3.3,0.7,5.1,0.7
	c9.9-0.1,16.8-4.4,19.8-14.2c0.9-3,3.2-3.6,5.9-3.4s3.2,2.4,3.6,4.5c0.5,2.9-0.8,5.4-2,7.9c-5.6,11.1-33,18-43.8,10.5
	C380.3,179.1,375.9,170,375.9,158.8L375.9,158.8z"/>
<path class="st18" d="M564.3,323.1c7.8-4.9,14.6-11.1,20.3-18.3c0.8-1,1.8-2,1.8-3.4c0.1-0.2,0.2-0.4,0.2-0.6l-0.6,0.2
	c-8.3,1.7-16.5,4.4-25,5.2c-0.3,0-0.5,0.2-0.8,0.2c-11.5,0.9-11.5-0.8-9.9-10.5c0.4-2.4,1.3-4.7-2.5-4.5c-0.4,0-0.8-0.2-1-0.6
	c-2-5-4.6-1.9-7.1-0.6c-6.9,3.8-13.9,7.5-21.7,9.1c-3.2,0.6-5.9,0.8-7.6-2.9c-1.1-2.3-3.3-2.8-5.7-2c-3.9,1.3-8,1.6-12,2.3
	c-12.7,2.1-21.5,9.6-23.6,23c-2,12.6,1.2,24.5,5.5,36.2c0.1,0.3,0.5,0.5,0.8,0.8c-0.2,1,0.1,2,0.8,2.7c0.2,0.7,0.4,1.5,0.6,2.4
	c-7.6-8-12.7-30.9-11.2-49.3c2.9-3.5,4.1-8.2,7.8-11.2c5.7-4.6,11.9-8.3,19.6-7.9c4.8,0.2,9.4-0.4,13.6-3c1-0.6,2.1-1.1,3.2-1.4
	c1.5-0.4,3.3-1,4.5,0.2s0.3,2.9-0.3,4.4c-0.3,0.8-1.2,1.7-0.5,2.5c0.9,1,2.2,0.5,3.3,0.2c8.4-2.4,16-6.7,23.4-11.2
	c2-1.2,4.1-2.3,6.3-3.2c1.6-0.6,3.4-0.8,2.5,2c-0.4,1.4-0.5,2.7,0.7,3.6s2.8,0.4,4-0.4c5.4-3.6,9.2-8.9,14.1-13.1
	c1.2-1,1.8-2.6,3.7-3.2c-0.5,4-2.1,7.7-4.6,10.8c-3.9,4.6-7.8,9.2-12.8,12.7c-0.5,0.4-1,0.8-1.4,1.4c-2.9,4-1.8,6.7,3.1,7.2
	c6.5,0.6,12.9-0.6,18.8-3.4c10.9-5.1,21.1-11.3,30-19.5c0.7-0.6,1.4-1.1,2.1-1.5c-2.7,9.9-7.3,19.2-13.6,27.2
	c-4.4,5.7-10.4,9.6-16,13.9c-1.1,0.9-2.6,1.3-3.3,2.7C570.9,322.9,567.6,323.2,564.3,323.1L564.3,323.1z"/>
<path class="st17" d="M549.2,160.3c0.5,14.7-10.3,26-22.7,26.5c-7.9,0.3-15.4-1.7-22.5-5.1c-3.5-1.6-6.7-3.6-9.1-6.7
	c-1.6-1.9-2.7-4.2-3.2-6.7c-0.5-2.8-0.5-5.9,2.6-7.2c2.9-1.2,5.3,0.1,6.9,2.8c0.5,0.7,1,1.5,1.4,2.3c4.9,10.5,9.8,12,22,12.3
	c0.9,0,2,0.2,2.3-1.1s-0.9-1.5-1.6-1.9c-1.2-0.7-2.6-1.2-3.8-2c-1.4-0.8-2.1-2.5-1.6-4.1c0.3-1.4,1.5-2.5,3-2.8
	c7.5-1.9,9.3-8.4,3.9-13.9c-1.5-1.6-3.7-3.1-2.8-5.6s3.4-3,5.7-3.6c5.3-1.2,10.9-0.2,15.5,2.9C549.6,149.5,549.1,154.5,549.2,160.3z
	"/>
<path class="st16" d="M593.2,530.8c-7.8-0.9-15.1-4.2-22.7-6c-10.1-2.5-19.9-6.3-30.2-8.4h-0.8h0.1c-0.3-0.7-0.9-0.7-1.5-0.8
	c-0.7-1-1-2.1-1-3.3c14.2,3.3,28.4,6.5,42.5,9.9c3.4,0.8,4,0.1,3-3.2c-3.2-9.9-6.1-19.8-9.2-29.7c-0.5-1.2-0.7-2.5-0.6-3.8l0.1-0.1
	c11,2,21.7,4.9,32.6,7.6l17.2,4.2c2.4,0.6,3.5,0.2,2.4-2.6c-4.8-13-8.9-26.2-14.3-38.9c-3.4-8.1-6.2-16.4-9.4-24.5
	c-0.5-1.3-1.2-2.7-0.8-4.2c1.8,1.5,2.1,3.9,3,5.9c9.2,20.6,18.1,41.3,26.6,62.2c1.5,3.5,4,6.7,4.9,10.9c-6.5-1-12.5-3.3-18.6-5.1
	c-11.9-3.3-23.8-6.7-35.6-10c-0.9-0.2-1.8-1-2.6-0.3c-1.1,0.9-0.1,2,0.2,2.9c4,11.5,9.5,22.4,14.2,33.7c0.4,1.1,0.7,2.2,1,3.4
	L593.2,530.8z"/>
<path class="st16" d="M290.3,504.5c1.2-6.4,4.4-12.1,6.8-18c8.5-20.5,18-40.5,26.1-61.2c0.3-0.6,0.7-1.1,1.1-1.5
	c-0.4,5-2.8,9.3-4.4,13.8c-3.8,10.9-7.5,21.9-11.9,32.6c-3.1,7.5-6.1,15-8.8,22.6c-0.4,1-1.6,2.2-0.6,3.2s2.2-0.1,3.3-0.4
	c16.2-3.8,32.5-7.7,48.7-11.5c0.5-0.1,1-0.1,2.4-0.3c-5.1,12.5-8.9,25-12.8,38l46.6-10.7c0.1,1.3-0.4,2.6-1.2,3.6
	c-0.8,0.1-1.6-0.1-2,0.8h0.1c-8,1-15.5,3.9-23.2,6c-8.7,2.4-17.4,5-26.1,7.5c-0.9,0.2-1.8,1-2.6,0.2c-1-1-0.1-2,0.3-2.9
	c4.5-11.2,9-22.5,13.4-33.7c0.5-1.2,0.9-2.4,1.5-4.2c-9.2,2.6-17.8,5-26.5,7.5C310.6,499.1,300.6,502.2,290.3,504.5L290.3,504.5z"/>
<path class="st19" d="M434.9,270.4c-0.8-4-4.7-5.9-6.2-9.5c1.4,0,3-0.1,1.3-2c-1.9-2.2-4.1-4.1-6.4-5.8c-6.2-4.1-7.9-10.2-8.3-17
	c-0.4-7.4-2.2-14.6-3.9-21.8c-1.6-6.7-8.6-10.8-17.6-11.3c-4.9-0.2-9.4-1.2-11.7-6.3c10.6,3.1,22.2,2.2,32.3,7.8
	c2.9,1.6,4.9,3.5,5.6,6.6c1.6,7.1,1.7,14.4,0.4,21.5c-0.4,2.1-2.3,4.9,0.9,6.2c2.9,1.1,4.2-1.3,5.5-3.3c0.2-0.3,0.4-0.7,0.7-1.2
	c0.9,2.4-0.1,4.1-0.4,5.8c-1.3,8.2,1.5,14.2,8.7,18.3c4.9,2.8,9.9,5.5,14.5,8.7c6,4.3,9.9,10.2,11.1,18.9
	C453.8,277.4,444.8,273,434.9,270.4L434.9,270.4z"/>
<path class="st19" d="M495.2,260.9c-1.5,3.5-5.4,5.5-6.2,9.5c-5,2.2-10.5,3.2-15.3,6.2c-3.7,2.3-7.1,4.9-9.6,9.1
	c-0.7-7.1,4.6-16.2,11.4-19.6c5.9-3,11.5-6.2,16.4-10.8c4.5-4.2,7.1-8.6,5-15c-0.6-1.7-1.2-3.5-0.6-5.5c0.3,0.2,0.6,0.5,0.8,0.8
	c1.4,2.3,3.1,4.8,6.2,3.5s1.5-4.1,1.1-6.3c-1.2-6.3-1.2-12.8-0.2-19.2c0.8-5.2,3.9-8.3,8.6-10.3c7.2-3,14.7-3.8,22.3-4.6
	c2.2-0.2,4.2-1.4,7-1.9c-2,3.8-5.9,6.3-10.3,6.3c-3.3,0.2-6.5,0.9-9.6,1.9c-5.2,1.6-8.9,5.1-10.1,10.6c-1.4,6.5-2.3,13.2-2.7,19.9
	c-0.3,7.2-1.6,14.1-9.1,17.9c-2.4,1.2-4.2,3.5-6.2,5.4S493.6,260.9,495.2,260.9L495.2,260.9z"/>
<path class="st17" d="M387.1,434.9c-17.5-0.1-29.8-10.5-32.3-26.1c-0.1-0.8-0.5-1.6,0.4-2.1s1.5,0.4,2,0.9c2.9,2.9,6.1,5.5,9.5,7.7
	c4.1,2.5,8.3,3.6,13.1,1.8c4.1-1.5,8.5-2,12.8-1.3c5.9,0.9,9.9,5.8,9.2,11.6c-0.5,4.3-4,5.7-7.5,6.6
	C392,434.4,389.5,434.7,387.1,434.9z"/>
<path class="st17" d="M537.9,415.2c2.8,0.1,5.6,0.6,8.2,1.6c3.9,1.5,8.3,1,11.6-1.5c3.7-2.5,7.2-5.2,10.7-7.9c0.6-0.5,1.2-1.3,2-0.9
	c1.1,0.5,0.6,1.6,0.4,2.4c-4.2,17.5-18.7,28.7-38.4,25c-6.2-1.2-8.8-4.3-8.1-9.1C525.3,418,529,415,537.9,415.2z"/>
<path class="st20" d="M318.2,404.2c0.1,0.2,0,0.4-0.1,0.6c-0.9,0.6-1.9,1-1.7,2.4v-0.1c-0.9-0.3-1.4,0.5-2,0.9l-1.1,0.9l-0.8,0.8
	l-0.8,0.8l-0.8,0.8c-2.9,1.4-5.6,3.2-8,5.4c-8.1,7.2-16.8,13.8-25.2,20.7c-5.9,4.8-11.5,10.1-18.7,15h12.1l12.8,0.2
	c-1.8,4.5-4.6,6.4-9.8,6.5c-12.5,0.2-25,1.2-37.4,1.9c-0.9,0-1.7,0-3.7,0l84.7-57.1L318.2,404.2z"/>
<path class="st20" d="M607.6,406.4c1.7,0.2,3.3,0.8,4.6,1.9c11.3,7.8,22.7,15.7,34.1,23.5c13.3,9.1,26.7,18.1,40.1,27.1
	c1.1,0.7,2.1,1.5,3.2,2.3c-0.8,1.4-1.9,0.7-2.8,0.7c-13-0.6-26-1.4-39-1.7c-4.5-0.1-5.9-3.2-7.6-6.2c4.5-0.5,9.2,0.6,13.7-0.6
	c3.4-0.2,6.8,0,10.2,0.6c-0.2-1.8-1.5-2.4-2.5-3.2c-12.7-10.4-25.3-20.8-38.2-30.9c-2.5-1.9-4-5.4-7.8-5.4c0.1-1.2-0.4-1.7-1.6-1.6
	c0-0.4-0.3-0.8-0.7-0.8c0,0-0.1,0-0.1,0c0-0.4-0.3-0.8-0.8-0.8c0,0,0,0,0,0l-0.8-0.8l-1-0.9h-2.2c0.5-0.9,0-1.3-0.8-1.6
	c0.1-0.2,0.1-0.5-0.1-0.6L607.6,406.4z"/>
<path class="st7" d="M608.4,409.5h2.2l1,0.9l0.8,0.8l0.8,0.8l0.8,0.8c0.2,0.8,0.8,1.4,1.6,1.6c6.4,8.3,14.5,15.1,21.9,22.5
	c5.5,5.5,10.3,11.6,16.4,16.4c-4.5,1.2-9.1,0.1-13.7,0.6c-9.6-12.8-19-25.7-27.8-39.1C611,413,608.5,412.1,608.4,409.5L608.4,409.5z
	"/>
<path class="st7" d="M284,452.5l-12.8-0.2c5.3-6.2,11-12,17-17.4c6.9-6.4,12.6-14.1,20-20c1.2-0.9,2.6-1.9,2.7-3.7
	c0.4,0,0.8-0.2,0.8-0.6c0-0.1,0-0.1,0-0.2c0.4,0,0.8-0.3,0.8-0.7c0,0,0-0.1,0-0.1c0.4,0,0.8-0.3,0.8-0.7c0,0,0-0.1,0-0.1l1.1-0.9
	c0.6-0.4,1-1.2,2-0.9c-1.9,5.1-5.4,9.3-8.7,13.4c-7.5,9.3-13.6,19.5-20.6,29.1C286.2,450.8,285.8,452.3,284,452.5z"/>
<path class="st21" d="M355.9,165.4c-0.8,7.9-1.2,15.9-2.4,23.8c-1.2,8.2,0.9,15.9,2.1,23.7c0.6,4,2,7.9,2,12
	c-4.2-6.7-6.1-14.1-7-21.8c-0.3-2.7-2-5-1.7-7.9C350.3,185,351.5,174.8,355.9,165.4z"/>
<path class="st21" d="M567,224.6c1.2-6.8,2.2-13.7,3.7-20.5c2.1-9.5,0-18.7-0.7-28.1c-0.2-3.4-0.7-6.8-1-10.1
	c3.3,5.9,4.5,12.5,5.3,19.1c1.6,12.1,0,24.4-4.8,35.7C568.8,222.1,568.5,223.8,567,224.6z"/>
<path class="st12" d="M128.2,168.4c11.3,3.9,22.2,9,34.1,11.6c-7.4-0.3-14.9,1.8-21.9-1.3C135.3,176.4,130.3,174.1,128.2,168.4
	L128.2,168.4z"/>
<path class="st12" d="M797.4,167.9c-5.1,10.3-12.8,13.1-32.3,11.9C775.6,176.2,786.6,173.7,797.4,167.9z"/>
<path class="st21" d="M374.2,193.7c-2.5,0.1-3.4,1.4-3.2,3.8c0.1,1.5,0.5,3.2-1.4,4.1c-1.4-8.5-3.4-17-2.2-26.4c1,3.2,2,5.9,2.5,8.6
	C370.6,187.4,374.3,189.7,374.2,193.7L374.2,193.7z"/>
<path class="st21" d="M554.4,201.5c-2.4-0.8-1.2-2.8-1.4-4.3c-0.2-1.7,0.1-3.5-2.4-3.6c1.5-6.2,4.8-11.8,6-18.1
	c0.7,7.3,0.2,14.6-1.5,21.7C554.7,198.7,554.6,200.1,554.4,201.5z"/>
<path class="st16" d="M600.4,423.8v3.3c-2.3-2.3-2.7-5.3-3.2-8.3c1.1,1.1,2.3,2.2,2.4,3.9C599.8,423.2,599.9,423.7,600.4,423.8
	L600.4,423.8z"/>
<path class="st16" d="M324.4,423.9c0-0.9,0-1.8,0-2.7c0.5-1.4,1.3-2.7,2.4-3.6C326.9,419.9,326,422.2,324.4,423.9z"/>
<path class="st1" d="M607.6,406.4v1l-1.2-0.1c-1.2-1.1-2.2-2.5-2.8-4c1.6-0.2,2.4,0.8,3.2,1.9C606.8,405.7,607.1,406.2,607.6,406.4
	L607.6,406.4z"/>
<path class="st1" d="M358.3,246.7l-1-0.1c-0.8-1-0.7-2.1-0.1-3.8C357.7,244.4,358,245.6,358.3,246.7L358.3,246.7z"/>
<path class="st1" d="M296.8,228.2c-0.3-0.8-0.3-1.7,0-2.5c0.9,0.6,0.7,1.4,0.8,2.1C297.3,228,297.1,228.1,296.8,228.2z"/>
<path class="st7" d="M316.4,407.2c-0.2-1.4,0.8-1.8,1.7-2.4C318.1,405.9,317.4,406.9,316.4,407.2z"/>
<path class="st14" d="M476.3,359.3c-0.7-0.7-1-1.7-0.8-2.7C476.6,357.2,476.2,358.3,476.3,359.3z"/>
<path class="st12" d="M163,232.6l0.3,0.1l-0.4,0.3c0-0.1-0.2-0.2-0.1-0.2S162.9,232.7,163,232.6z"/>
<path class="st20" d="M864.8,218.4c-0.3,0.5-0.9,0.7-1.1,0.3c-0.3-0.6,0.5-0.5,0.8-0.7C864.6,218.1,864.7,218.3,864.8,218.4
	L864.8,218.4z"/>
<path class="st5" d="M617.1,216.6c-0.2-0.7,0.1-1.3,0.7-1.7C617.9,215.6,617.6,216.3,617.1,216.6z"/>
<path class="st7" d="M607.6,408c0.8,0.3,1.3,0.7,0.8,1.6C607.6,409.3,607.4,408.8,607.6,408z"/>
<path class="st16" d="M449.5,359.9c-0.1,0.4-0.3,0.7-0.4,1.1l-0.5-1l0.8-0.2L449.5,359.9z"/>
<path class="st3" d="M449.3,359.8l-0.8,0.2c0-0.7-0.1-1.5,0.8-1.8C449.3,358.7,449.3,359.2,449.3,359.8z"/>
<path class="st8" d="M383.7,515.7c0.4-1,1.3-0.7,2-0.8C385.2,515.5,384.5,515.8,383.7,515.7z"/>
<path class="st19" d="M428.8,260.9c-0.9,0.2-1.4-0.3-1.9-0.9C427.6,260.1,428.4,260,428.8,260.9z"/>
<path class="st19" d="M497.1,260.1c-0.4,0.6-1.1,1-1.9,0.9C495.6,260,496.3,260.1,497.1,260.1z"/>
<path class="st19" d="M382.1,196.8l-0.6-0.8l0.3-0.2C381.9,196.2,382,196.5,382.1,196.8L382.1,196.8z"/>
<path class="st1" d="M815.6,93.3c-0.2,0.6-0.6,0.9-1.2,0.7s-0.3-0.6,0.1-0.8L815.6,93.3z"/>
<path class="st20" d="M538,515.7c0.6,0,1.2,0.1,1.5,0.8C538.9,516.5,538.3,516.5,538,515.7z"/>
<path class="st4" d="M23.6,138.4c-0.5-0.2-0.7-0.8-0.4-1.1s0.5,0.4,0.7,0.8L23.6,138.4z"/>
<path class="st19" d="M461.7,287.2c-0.1,0-0.2,0.1-0.2,0.1c-0.1-0.1-0.1-0.2-0.1-0.3l0.4-0.1L461.7,287.2z"/>
<path class="st19" d="M463.3,287.2l-0.2,0.1l-0.1-0.3l0.4-0.1L463.3,287.2z"/>
<path class="st12" d="M143.4,189.2v0.3c-0.1,0.1-0.2,0.1-0.3,0.1c-0.3-0.2-0.3-0.3,0-0.4C143.2,189.1,143.3,189.2,143.4,189.2z"/>
<path class="st2" d="M784.7,296.8c0.1-0.8,0.9-1.3,1.6-1.1c0,0,0,0,0,0L784.7,296.8z"/>
<path class="st4" d="M139.2,294.9c0.7-0.2,1.4,0.3,1.6,1c0,0.1,0,0.1,0,0.2C140.2,295.8,139.4,295.8,139.2,294.9z"/>
<path class="st11" d="M311.1,296.1l-0.5-0.9l0.3-0.3l0.9,0.6L311.1,296.1z"/>
<path class="st11" d="M310.6,295.2c-0.4-0.2-0.6-0.7-0.4-1.2c0,0,0,0,0,0l0,0.1l0.8,0.8L310.6,295.2z"/>
<path class="st11" d="M310.2,294l-0.5-0.2h0.2C310,293.9,310.1,294,310.2,294L310.2,294z"/>
<path class="st6" d="M146.3,298.1l1.1,0.8C146.9,298.8,146.4,298.7,146.3,298.1z"/>
<path class="st5" d="M777.5,299.6l0.9-0.8L777.5,299.6z"/>
<path class="st14" d="M521.3,324.2l-0.2,0.3L521.3,324.2L521.3,324.2z"/>
<path class="st3" d="M432.7,369.2c0,0.1-0.1,0.2-0.1,0.3c0,0-0.1,0-0.2,0L432.7,369.2L432.7,369.2z"/>
<path class="st12" d="M691.4,242.7l-0.3-0.2L691.4,242.7L691.4,242.7z"/>
<path class="st20" d="M318.8,403.3l0.2-0.6l0.4,0.3L318.8,403.3L318.8,403.3z"/>
<path class="st1" d="M603.6,403.3l-0.3-0.2L603.6,403.3L603.6,403.3z"/>
<path class="st20" d="M317.7,403.8l1.1-0.4c0.1,0.4-0.1,0.8-0.5,1c0,0-0.1,0-0.1,0L317.7,403.8z"/>
<path class="st20" d="M71.2,226.1l0.6,0.4C71.4,226.7,71.1,226.8,71.2,226.1L71.2,226.1z"/>
<path class="st20" d="M70.5,225.4c0.5,0,0.7,0.2,0.7,0.7h-0.7C70.5,225.9,70.5,225.6,70.5,225.4z"/>
<path class="st20" d="M607.6,406.5c-0.5-0.2-0.9-0.7-0.8-1.2C607.2,405.5,607.8,405.7,607.6,406.5z"/>
<path class="st2" d="M870.2,225.3l0.4-0.6C870.9,225.3,870.7,225.5,870.2,225.3L870.2,225.3z"/>
<path class="st4" d="M55.8,225.7l-0.3-0.8l0.7,0.4C56.1,225.4,56,225.5,55.8,225.7z"/>
<path class="st7" d="M606.4,407.2l1.2,0.1c0.1,0.2,0.2,0.4,0.1,0.6L606.4,407.2z"/>
<path class="st21" d="M550.6,193.6l-0.9,0.8L550.6,193.6z"/>
<path class="st21" d="M375,194.4l-0.8-0.8L375,194.4z"/>
<path class="st12" d="M128.2,168.3l-0.3-0.2L128.2,168.3L128.2,168.3z"/>
<path class="st16" d="M327.4,416.8l-0.7,0.8C327,417.3,327.2,417,327.4,416.8z"/>
<path class="st3" d="M664.5,154.1c0,0.1-0.1,0.2-0.1,0.3c0,0-0.1,0-0.2,0L664.5,154.1L664.5,154.1z"/>
<path class="st20" d="M877.3,148.6l-0.4,0.6c-0.5-0.4-0.2-0.6,0.2-0.8L877.3,148.6z"/>
<path class="st20" d="M877.1,148.4c0-0.5,0.1-0.9,0.7-1c0.1,0.2,0.3,0.3,0.5,0.5l-0.9,0.6L877.1,148.4z"/>
<path class="st8" d="M600.5,423.9c-0.6-0.2-0.7-0.7-0.8-1.3L600.5,423.9z"/>
<path class="st20" d="M879,147.2l-0.7,0.7c-0.2-0.2-0.3-0.3-0.5-0.5l0.2-0.1L879,147.2z"/>
<path class="st20" d="M539.5,516.4h0.8v0.7C539.8,517.1,539.5,517,539.5,516.4z"/>
<path class="st8" d="M676.6,532.8c0.3,0.2,0.7,0.4,0.2,0.8c0,0-0.3-0.3-0.5-0.4C676.3,533.1,676.4,532.9,676.6,532.8z"/>
<path class="st8" d="M617.9,556.7l0.5,0.4c-0.1,0.1-0.2,0.2-0.3,0.2c-0.2-0.1-0.3-0.3-0.5-0.5L617.9,556.7z"/>
<path class="st0" d="M188.2,278.4l-0.3-0.4l0.4,0.3L188.2,278.4z"/>
<path class="st0" d="M110,175.5c-0.1,0-0.2-0.1-0.3-0.1c0,0,0-0.2,0-0.3L110,175.5L110,175.5z"/>
<path class="st6" d="M86.2,249.9l-0.3-0.5l0.5,0.3L86.2,249.9z"/>
<path class="st0" d="M65.9,166.6l0.4,0.9l-1-0.2L65.9,166.6z"/>
<path class="st1" d="M820.8,242.9l0.3,0.2c-0.1,0.1-0.2,0.2-0.3,0.2s-0.2-0.1-0.3-0.2L820.8,242.9z"/>
<path class="st5" d="M863.7,181.6l0.5-0.3l-0.3,0.5L863.7,181.6z"/>
<path class="st0" d="M484.1,186.6l-0.5-0.4c0.4-0.4,0.5-0.1,0.7,0.2L484.1,186.6z"/>
<path class="st5" d="M542.8,130.4l-0.8,0.8L542.8,130.4z"/>
<path class="st16" d="M572.7,485.6l-0.3-0.4L572.7,485.6L572.7,485.6z"/>
<path class="st0" d="M561.7,494.3l0.4,0.3c-0.1,0-0.2,0-0.2,0C561.8,494.5,561.7,494.4,561.7,494.3L561.7,494.3z"/>
<path class="st16" d="M593.4,530.5l0.3,0.5l-0.5-0.2L593.4,530.5z"/>
<path class="st16" d="M290.4,504.6l-0.4,0.3L290.4,504.6L290.4,504.6z"/>
<path class="st0" d="M564.4,295.5l-1,0.1c0.1-0.3,0.3-0.6,0.4-0.9L564.4,295.5z"/>
<path class="st0" d="M561.8,272.1l-0.9,0.4c0.1-0.3,0.1-0.6,0.2-1L561.8,272.1z"/>
<path class="st0" d="M364.3,271.6c0.1,0.3,0.2,0.6,0.2,0.9l-0.9-0.3L364.3,271.6z"/>
<path class="st0" d="M481.2,106.1c-0.7,0.5-1.4,1.1-2.2,0.3l1.4-1L481.2,106.1z"/>
<path class="st0" d="M429,114.3c0.5,0.2,0.4,0.4,0.2,0.8l-0.4-0.5L429,114.3z"/>
<path class="st3" d="M442.2,120.1l-0.4-0.3h0.2C442.1,119.9,442.2,120,442.2,120.1L442.2,120.1z"/>
<path class="st3" d="M375,116.1c-0.1,0-0.2-0.1-0.3-0.1c0,0,0-0.1,0-0.2L375,116.1L375,116.1z"/>
<path class="st14" d="M586.1,301.1l0.6-0.2c-0.1,0.2-0.2,0.4-0.2,0.6C586.3,301.3,586.2,301.2,586.1,301.1z"/>
<g>
	<path class="st16" d="M310.9,411.2c-0.1,1.8-1.6,2.7-2.7,3.7c-7.4,5.9-13.1,13.6-20,20c-6,5.4-11.7,11.2-17,17.4H259
		c7.2-4.9,12.8-10.1,18.7-15c8.4-6.9,17-13.5,25.2-20.7C305.3,414.4,308,412.6,310.9,411.2z"/>
	<path class="st16" d="M314.4,408l-1.1,0.9L314.4,408z"/>
	<path class="st16" d="M313.3,408.9c0,0.4-0.3,0.8-0.7,0.8c0,0-0.1,0-0.1,0L313.3,408.9z"/>
	<path class="st16" d="M312.5,409.6c0,0.4-0.3,0.8-0.7,0.8c0,0-0.1,0-0.1,0L312.5,409.6z"/>
	<path class="st16" d="M311.7,410.4c0,0.4-0.2,0.8-0.6,0.8c-0.1,0-0.1,0-0.2,0L311.7,410.4z"/>
	<path class="st16" d="M653.7,453.3c-6.1-4.8-10.9-10.9-16.4-16.4c-7.4-7.4-15.4-14.2-21.9-22.5c3.8,0,5.4,3.5,7.8,5.4
		c12.9,10.1,25.5,20.5,38.2,30.9c1,0.8,2.2,1.4,2.5,3.2C660.6,453.3,657.1,453.1,653.7,453.3L653.7,453.3z"/>
	<path class="st16" d="M615.5,414.4c-0.8-0.2-1.4-0.8-1.6-1.6C615,412.7,615.6,413.1,615.5,414.4z"/>
	<path class="st16" d="M611.5,410.4l-1-0.9L611.5,410.4z"/>
	<path class="st16" d="M612.3,411.2l-0.8-0.8L612.3,411.2z"/>
	<path class="st16" d="M613.1,412l-0.8-0.8C612.7,411.2,613.1,411.5,613.1,412C613.1,412,613.1,412,613.1,412z"/>
	<path class="st16" d="M613.9,412.8l-0.8-0.8c0.4,0,0.8,0.3,0.8,0.7C613.9,412.7,613.9,412.7,613.9,412.8z"/>
</g>
<text transform="matrix(1 0 0 1 996.4563 486.7)" class="st3" style="font-family:'Gotham-Ultra'; font-size:522.488px;">ROWKET</text>
</svg>
