<svg xmlns="http://www.w3.org/2000/svg" viewBox="0 0 923.85 581.7"><title>Asset 4</title><path d="M879.29,146.87c10.77-9.11,22-17.79,30.17-29.64a241.42,241.42,0,0,1-9.58,44.12c-2,6.37-4,12.86-7,18.77C887.72,190.2,882.5,200.32,875,209c-2.6,3-5.83,5.18-8.84,7.67a2.24,2.24,0,0,0-1.63,1.37c-.34.17-1.14.06-.82.67.21.42.85.19,1.12-.32l1.33-.42c9.22-3.05,17.82-7.49,27.3-12.23-4.08,10-8.22,19.07-13.55,27.57-7.91,12.6-18.22,23.15-29.33,32.78a226.09,226.09,0,0,1-44.42,29.76c-26,13.48-53.41,23.3-81.72,30.61a630.27,630.27,0,0,1-96.34,16.78c-3.28.32-6.56.63-9.83,1-2,.21-4.09.31-4.93,2.57-.93,2.5.46,4.42,2.06,6,5.17,5.11,9.39,11.07,14.4,16.27,6,6.17,10.78,13.18,16.17,19.76,2.39,2.91,4.66,5.92,7,8.85-1.54.51-2.82-.68-4.22-1.26-7.15-2.95-14.34-5.84-21.41-9a6.82,6.82,0,0,0-6.36.44c-2.35,1.19-2.64,2.82-.67,4.63,3.1,2.85,6,6,9.44,8.4,5.17,3.68,9.59,8.18,14.34,12.3,9.83,8.53,19.35,17.43,29.48,25.58,10.85,8.73,20.37,18.95,31.78,26.8-.73,1.72-1.8,1.1-2.58,1.06-18-.95-36.1-.93-54.06-2.94-1.82-.21-3.91-.41-5,1.4s.33,3.64,1.44,4.95c10.18,12.06,18.89,25.22,28.56,37.65,7,9,13.18,18.61,20.19,27.6,3.18,4.08,6.62,7.94,9.5,12.84-3.45-1-6.49-1.73-9.47-2.69q-29.79-9.66-59.55-19.38c-4.49-1.46-9-2.85-13.57-4.09-1.6-.44-3.59-.88-4.84.62s-.31,3.29.45,4.81c4.59,9.32,8.76,18.89,14,27.84,4,6.79,6.85,14,11.13,21.77-5-2.23-9.12-4-13.16-5.9-19.9-9.51-39.72-19.21-59.7-28.55-8.55-4-17.09-7.91-25.15-12.84-1.22-.75-2.65-2.43-4.16-.89-1.3,1.33-.18,3.09.36,4.47,4.29,10.94,9,21.72,12.23,33,1.39,4.89,3,9.73,4.72,15.33-5.39-2.87-10.11-5.26-14.71-7.86-11.77-6.67-23.45-13.49-35.23-20.16-11.42-6.46-23.41-12.07-34.21-19.45-7.76-5.3-13.63-3.86-20.86.23-18.76,10.6-37.67,20.95-56.82,30.83-8.83,4.56-17.2,10.06-27.26,13.93,1.27-3.37,2.07-6.38,3.48-9.08,5.69-10.95,9-22.85,13.59-34.22.84-2.06,1.1-4.32-.61-5.92s-3.76-.12-5.43.74c-8.62,4.46-16.69,9.87-25.62,13.82-22,9.72-43.77,19.79-65.65,29.69-2,.9-4.05,1.59-6.4,2.49,1.13-4.4,4.15-7.22,6-10.7q8.55-16.23,17-32.49a9.15,9.15,0,0,1,1.54-2.73c1.86-1.6,2.56-3.72,1.2-5.46s-3.77-1.32-5.89-.73q-27.56,7.62-55.12,15.16c-7.44,2-14.93,3.93-23.44,6.16,7.24-9.18,12.63-18.44,19.73-26.54,3.72-4.24,6.62-9.18,10-13.75q11.88-16.17,23.85-32.28c.47-.64,1-1.27,1.37-1.93,1.25-2,3.38-4.09,1.85-6.39s-4.41-1.09-6.63-.66c-17.67,3.41-35.59,3-54,3.87,10.33-9.12,20.11-17.89,30.15-26.39,11.55-9.76,22.59-20.12,34.22-29.78,6.47-5.38,12.56-11.16,19-16.5,2.44-2,2.26-4,.87-6.15s-3.44-1.34-5.2-.32c-7.77,4.5-16.37,7.13-24.51,10.81l-.12-1.55c10.66-12.65,21.2-25.41,32.06-37.9,2.81-3.24,6.28-5.94,8.05-10,1.85-4.21.82-5.67-3.79-6A565.81,565.81,0,0,1,201,326.86a421.17,421.17,0,0,1-65-22.65,287.12,287.12,0,0,1-42.1-23.08c-17.49-11.74-32.94-25.48-46-42.17a144.18,144.18,0,0,1-17.35-29.31,17.62,17.62,0,0,1-.58-1.85c1.57-.39,2.43.58,3.36,1.1,10.08,5.68,20.58,10.52,31.1,15.28a42.2,42.2,0,0,0,4.86,1.53l1.27.36.69,0c-.14.67.18.63.62.4l-.61-.41c0-.48-.24-.71-.72-.72a.77.77,0,0,0-.66-.3C35,196.43,15.47,160.06,14.4,114.4a233,233,0,0,0,15.51,19c5.32,6,10.47,12.19,17.79,15.89-3.56-3.3-5.65-7.58-8.09-11.56-5-8.08-8.64-16.82-12.61-25.42C14.32,84.82,9.19,55.38,3.85,25.92,2.36,17.71,1.25,9.51,0,.56,8.33,7.45,14.56,15.46,21.85,22.4,36.39,36.27,50.8,50.31,66.29,63.1,77,71.93,87.62,81,99.92,87.72c3.57,2,7,4.19,10.87,5.53a.79.79,0,0,0,1.13.51.73.73,0,0,0,.3-.59c0-.87-.76-.75-1.33-.81a101.26,101.26,0,0,1-15.31-35c.84-.62,1.13-.06,1.44.27,9,9.62,20,16.68,31.54,22.72,16.71,8.75,34.73,13.39,53.47,15.27,21.22,2.12,42.47,4,63.66,6.36a136.72,136.72,0,0,1,40.71,10.48,52.66,52.66,0,0,1,18.09,13.12c2,2.2,6.82,2.38,8.89.29,2.38-2.39.25-4.24-.92-6.23-2.9-5-7.87-8.37-10.31-13.69a2.85,2.85,0,0,0,.46-.62C314,112.51,321,123.19,327,135.05c4.26,8.49,5.71,17.28,6,26.48a4.79,4.79,0,0,0,4.12,5c2.74.52,3.47-2.08,3.85-4.09,1.15-5.93,3.19-10.84,9.35-13.56,3.79-1.67,3.3-6.12-.56-8a4.67,4.67,0,0,1-2.81-3.08,74.42,74.42,0,0,0-3.52-12.8c3.39,2.7,7,4.73,10.49,7,2.89,1.93,4.19,1.26,4.56-2.2a7.67,7.67,0,0,0-1.8-5.88c-2.49-3-5.24-5.84-7.42-9.06a20.11,20.11,0,0,1-3.2-12.42c.36-8.11,4.11-14.7,9.52-20.48,1-1.08,2.3-2,3.86-1.49s1.37,2.09,1.58,3.33a27.08,27.08,0,0,0,2.14,8A15.72,15.72,0,0,0,377.24,101c10.13.38,20.3.06,30.3,2.14a2.68,2.68,0,0,0,2.95-1.48c2-3,5-3.5,8.22-3.74a56.67,56.67,0,0,1,12.62.37,5.65,5.65,0,0,0,2.32.18c9.27-2.81,17.88-1.92,25.63,4.3,2.91,2.33,5.5,1.53,8.14-.68,3.83-3.2,8.2-5.61,13.33-5,7.08.89,14.19-.22,21.22.72a18.39,18.39,0,0,1,9.08,3.57,6.63,6.63,0,0,0,6,1.07A75,75,0,0,1,541.35,101c6.43.58,12-1.57,16-6.83,2.73-3.62,6.15-6.85,6.81-11.8.29-2.15,2.28-1.81,3.81-1.16a8.42,8.42,0,0,1,4.57,5.7c4.11,13.65,4.54,27-4.33,39.22a3.84,3.84,0,0,0-1.11,2.46c.09,1.64-.77,3.83,1.07,4.66,1.67.75,2.71-1.19,3.75-2.29,1.9-2,3.67-4.12,5.5-6.2l1.39.09c-1.29,6.69-2,13.53-6.46,19.22-1.53,2-.28,3.71,1.74,4.8,5.41,2.9,8.53,7.25,8.78,13.53.09,2.42,2,3.38,4,3.5,2.48.14,2.34-1.93,2.56-3.62a96.75,96.75,0,0,1,13.82-39.13,48.83,48.83,0,0,1,16.14-15.73,2.56,2.56,0,0,0,.59.45c-2.36,4.11-5.06,8-6.63,12.54-.49,1.39-1.42,3.41.38,4.27,1.55.76,3.85,1,5.21-.5,11.06-12.28,26.45-14.36,41.29-17.46,17.45-3.64,35.22-4.7,53-5.53,22.89-1.07,45.22-5,66.77-12.89,14.79-5.42,28.8-12.19,39.68-24.07,1.87-2,3.56-4.23,5.33-6.35l.09,2.87a218.05,218.05,0,0,1-9.73,31.43l-.77,1c-.44.22-.57.59-.1.78s1-.12,1.16-.68a1.87,1.87,0,0,0,.38-.46Q829.67,83.18,843,73c15.67-11.93,31.18-24,46.16-36.82,7.51-6.42,14.39-13.41,21.61-20.08A76.7,76.7,0,0,0,923.85,0c-1.11,12.55-2.83,24.13-4.92,35.66-1.34,7.37-2.46,14.83-4.58,22-6.44,21.7-11.9,43.77-22,64.17-4.11,8.28-9.06,16.14-13.63,24.19a1.24,1.24,0,0,0-.68,1.35l-.24.1c-.55.09-.69.47-.68,1-.37.18-.73.36-.18.76.13-.2.26-.4.4-.59l.94-.64.71-.73A.53.53,0,0,0,879.29,146.87ZM318.8,403.27l.58-.22-.35-.32c-.07.2-.13.39-.2.58l-1.15.44L233,460.81c2,0,2.89,0,3.74,0,12.48-.67,25-1.7,37.44-1.88,5.19-.07,8.06-2,9.81-6.45,1.75-.13,2.22-1.68,3-2.81,7-9.62,13.13-19.83,20.62-29.13,3.31-4.1,6.83-8.27,8.71-13.39v.07c1.23-.32,1.59-1.28,1.72-2.4a.81.81,0,0,0,.07-.59A.78.78,0,0,0,318.8,403.27Zm-8.66-109.16a1.58,1.58,0,0,0-.22-.29s-.14,0-.21,0l.48.24a.88.88,0,0,0,.44,1.17l.45.89c7.82,12.35,19.44,19.51,32.92,24.14a24.1,24.1,0,0,0,8.06,1.61c2.61,1.37,5.43.58,8.15.74a23.79,23.79,0,0,0,5.07.23c13-.58,26-4.06,39.14,1-1.66-5.6-3.28-10.56-6.38-14.94-1.81-2.55-.75-4.87,2.36-5.35a8.81,8.81,0,0,1,6.39,1.47,53.72,53.72,0,0,0,7.4,4.53A28.92,28.92,0,0,1,429.79,326c2.43,6.08,3.28,12.41,3.71,18.86.54,8.18-.86,16.29-.75,24.44l-.37.32c.08,0,.18,0,.22-.05a1.42,1.42,0,0,0,.11-.31c1.82-2.33,4.11-4.43,5.36-7,4.12-8.55,6.2-17.53,4.31-27.1a41.06,41.06,0,0,1-.8-5.83c-.07-1.21-.68-2.92,1-3.43,1.33-.4,2,1,2.66,2a26.77,26.77,0,0,1,4.13,9.28c1.69,7.07.53,14.09-.05,21.13l0-.07c-.82.38-.72,1.13-.76,1.84l.45,1,.41-1.08c5.52-6.52,7.24-14.75,9.2-22.6s1.75-16.14,1.66-24.29c.05-.52.13-1.05.13-1.57,0-4.21.77-9.16-2.13-12.18-5.55-5.75-11.91-10.8-20.61-11.21a36.5,36.5,0,0,1-7.8-1.11c-9.43-2.58-20.09-2.68-25.95-12.73-1.13-1.93-3.28-2.09-5.15-.51-2,1.72-1.85,3.67-.32,5.54s3.82,3.24,5,5.5c.76,1.39,1,2.66-.24,3.94s-2.44.48-3.52-.25c-6.63-4.48-13.5-8.6-19.5-14-8.93-8-17.92-15.9-22-27.74-.31-1.14-.62-2.28-1.08-3.93-.62,1.72-.77,2.81.07,3.82,1,8.7,3,17.16,7,25l-.62.61c-2.83-1.35-4.82-3.68-6.64-6.07-6.7-8.84-11.83-18.5-14.47-29.36-1.12-4.58-2.3-9.15-3.45-13.72a108.66,108.66,0,0,0,3.73,38.76c3.56,12.86,11.2,23.33,19.38,33.61-1.32.51-2.08-.22-2.9-.53-13.58-5.09-24.7-13.93-34.65-24.07s-17.36-22.3-23.64-35.06c-1.27-2.59-2.29-5.3-3.43-7.95,0-.71.14-1.47-.75-2.12a3.21,3.21,0,0,0-.05,2.54c1,6.88,1.89,13.78,3.05,20.63,1.3,7.63,2.65,15.39,5.82,22.41,4.16,9.19,7.43,19,15.64,26.43-4,.37-6.68-1-9.45-2.19l-.93-.64ZM539.46,516.43c0,.55.37.72.85.72,9.67,5,19.36,10,29,15,12.69,6.64,25.33,13.39,38,20,3.35,1.75,6.87,3.16,10.32,4.72.15.16.3.32.46.46a2.61,2.61,0,0,0,.26-.23l-.52-.41c-2.57-6.18-6.55-11.54-10-17.23-6.37-10.6-12.31-21.46-18.21-32.33-1-1.9-3.58-3-3.49-5.61a5.53,5.53,0,0,1,3.71.5c7.64,2.81,15.31,5.56,23,8.37q29.6,10.87,59.17,21.8a10.14,10.14,0,0,0,4.19.95c.18.16.46.47.51.43.52-.35.17-.57-.17-.77-.24-2.21-2.4-3-3.5-4.53-7.54-10.87-14.71-22-22.46-32.71-13.35-18.49-25.69-37.71-38.89-56.32-3.68-5.19-7.21-10.54-11.28-15.47l0,.08-.85-1.26c-.16-1.69-1.35-2.74-2.43-3.86-1-.68-1-2.34-2.68-2.66.43,8.65.8,17,1.26,25.38.51,9.31,1,18.61,1.69,27.9.36,4.88.56,4.81-3.89,3.18q-19.2-7-38.44-14c-.81-.3-1.68-1.15-2.51-.3-.66.67,0,1.49.25,2.2,1.69,6.2,3.54,12.36,5.1,18.59,1.26,5.06,3.61,9.87,3.67,15.22l0,0c-11.93-11.26-24.36-22-35.87-33.69-2.38-2.42-5.19-4.41-8.71-7.36.75,2.46,1.16,3.68,1.49,4.92,2.66,10,7.28,19.3,10.2,29.24,2.46,8.41,4.82,16.91,8.3,25a5.26,5.26,0,0,0,.95,3.33c.23.76.83.81,1.48.76ZM607.61,408l0,0a1.16,1.16,0,0,0,.83,1.62l0-.05c.17,2.53,2.64,3.4,3.84,5.22,8.78,13.39,18.19,26.34,27.83,39.12,1.74,3.05,3.12,6.08,7.63,6.21,13,.36,26,1.16,39,1.73.9,0,2.07.69,2.84-.68-1.09-.79-2.13-1.59-3.21-2.32-13.37-9.05-26.76-18.05-40.1-27.14-11.4-7.76-22.73-15.62-34.08-23.45a8.71,8.71,0,0,0-4.59-1.87l0,.08c.22-.76-.35-1-.84-1.23-.79-1.09-1.63-2.11-3.19-1.91l-.29-.23.33.19a11.13,11.13,0,0,0,2.77,4Zm-280.88,9.57,0-.07a8.05,8.05,0,0,0-2.44,3.63L247.65,531.72l.5.64,89.78-32.68c-10.63,19.09-21.5,37.74-32,56.88,8.25-4.23,16.31-8.3,24.33-12.47q25-13,50-26.09c1.23-.65,2.75-1,3.5-2.35l-.07,0a2.08,2.08,0,0,0,2-.84,5.42,5.42,0,0,0,1.16-3.59c4-11.2,8.46-22.24,12-33.62,2.55-8.25,5.25-16.45,7.88-24.67l-.57-.34-44.81,41.8c1.32-4.75,2.34-8.52,3.42-12.28,2.2-7.7,4.4-15.4,6.69-23.07.23-.76,1.61-1.28.77-2.28s-1.7-.06-2.51.23q-16.65,6.14-33.28,12.27c-2.71,1-5.45,1.92-8.16,2.94-1.83.69-2.38.07-2.1-1.77,1.47-9.81.8-19.76,2.6-29.63,1.57-8.66,1.14-17.69,1.58-26.32l-2.9,2.27ZM550.6,193.64l-.87.75c-4,6.2-8.55,11.62-16.23,13.3-3.84.83-7.65,1.86-11.52,2.54-3.5.61-5.65,2.23-6.47,5.84a90.66,90.66,0,0,0-2.14,11.2c-.5,5.35-.91,10.72-1.64,16-1.19,8.74-6.47,14.05-14.66,16.75-.73,0-1.51,0-1.86.86l0,0c-1.67,0-3.3-.2-1.23-2.21s3.85-4.19,6.23-5.4c7.51-3.83,8.79-10.73,9.12-17.91A124.89,124.89,0,0,1,512,215.52c1.16-5.54,4.85-9,10.09-10.61a41.8,41.8,0,0,1,9.63-1.88A11.75,11.75,0,0,0,542,196.67c-2.89.46-4.81,1.64-7,1.88-7.56.8-15.11,1.62-22.26,4.64-4.76,2-7.85,5.11-8.63,10.3a56.22,56.22,0,0,0,.22,19.19c.41,2.14,1.91,5-1.06,6.26s-4.74-1.16-6.17-3.48a4,4,0,0,0-.82-.75c-.59,2,.06,3.87.62,5.53,2.15,6.36-.47,10.84-5,15-4.88,4.55-10.51,7.79-16.41,10.78-6.85,3.47-12.16,12.5-11.44,19.63,2.53-4.24,5.95-6.82,9.64-9.11,4.76-2.95,10.27-4,15.31-6.19,4-.83,7.91-1.78,11.91-2.45,6.44-1.1,13.08-1.42,19.35-3.13,11.42-3.11,20.35-10.72,29-18.32,7.08-6.22,12.53-14,17.64-21.87,1.57-.81,1.86-2.48,2.44-3.88A68,68,0,0,0,574.18,185c-.86-6.56-2-13.17-5.31-19.1-.36-1.06-.71-2.13-1.07-3.19a2.29,2.29,0,0,0-.52,1.89c2,10.31-1.15,19.86-4.35,29.39a18,18,0,0,1-4.6,7.25c-1.19,1.14-2.5,2.12-4,.27.2-1.42.32-2.86.63-4.26a67,67,0,0,0,1.5-21.74c-1.17,6.32-4.42,11.93-6,18.12Zm-176.43,0,0,0c.05-3.94-3.65-6.23-4.34-9.9-.52-2.75-1.54-5.41-2.49-8.63-1.26,9.39.82,17.87,2.17,26.41-1.23,2.28-2.47,1.18-3.7,0-3.56-3.38-5.42-7.75-6.58-12.36-2.18-8.67-3.31-17.47-2.19-26.56l-1.19,2.75c-4.35,9.45-5.59,19.61-7,29.76-.38,2.88,1.36,5.16,1.67,7.9.88,7.68,2.78,15.16,7,21.82,1,1.72,1.81,3.5,2.9,5.13,6.18,9.28,14.4,16.63,22.95,23.6,6.57,5.37,13.89,10.23,22.1,11.63,9.8,1.67,19.69,2.87,29.4,5.14,9.91,2.67,18.84,7.09,26.54,15.69-1.21-8.7-5.07-14.57-11.11-18.86-4.58-3.26-9.59-5.92-14.49-8.72-7.24-4.15-10.07-10.08-8.74-18.33.27-1.74,1.21-3.45.36-5.8-.33.56-.51.9-.71,1.22-1.27,2-2.6,4.49-5.45,3.34-3.24-1.32-1.3-4.08-.94-6.2a54.69,54.69,0,0,0-.4-21.48c-.74-3.17-2.71-5-5.6-6.63-10.11-5.55-21.68-4.63-32.32-7.75l-.23-1-.32.17.58.84c2.31,5.06,6.82,6.08,11.72,6.31,9,.44,16,4.56,17.63,11.27,1.72,7.17,3.47,14.37,3.89,21.81.38,6.74,2.1,12.9,8.29,17a37.71,37.71,0,0,1,6.41,5.78c1.74,1.84.1,1.94-1.31,2l0,0c-.36-.88-1.15-.83-1.89-.85a46.15,46.15,0,0,1-5.21-2.77c-5.22-3.68-8.84-8.41-9.54-15-.75-7-1.43-14.09-2.47-21.08-1.36-9.16-1.91-10-11.36-11.69-10.06-1.78-18.63-5.29-23.3-15.12Zm-246-25.29-.33-.19.34.18c2.08,5.75,7.18,8,12.16,10.23,7,3.12,14.52,1,21.88,1.34C150.41,177.31,139.49,172.23,128.17,168.35ZM475.43,356.59l0,0a50.46,50.46,0,0,0-.46-7.47,31.41,31.41,0,0,1,3.13-17.62c1.13-2.22,3.27-5.89,5.1-5.21,2.35.87.61,4.63.77,7.14a1.76,1.76,0,0,1-.06.39c-2.22,12.25.37,23.52,7,34,.41.64.5,1.89,1.78,1.53a39.69,39.69,0,0,0,0-4.37,111,111,0,0,1,.21-29.13c1-6.72,2.95-13.27,7.83-18.22,5.29-5.37,12.11-8.76,18.44-12.76a9.69,9.69,0,0,1,5.69-1.3,4.8,4.8,0,0,1,4.09,2.69c.93,1.57-.73,2.28-1.25,3.39-2.25,4.79-6.07,8.9-6.32,14.56l-.22.25.18-.3c9.54-3.88,19.44-2.37,29.26-2,4.59.18,9.09,1.61,13.73.95a45.7,45.7,0,0,0,9.9-1c19-2.31,38.58-19.63,40.85-27.29a16.4,16.4,0,0,1-10.86,3c4.43-5.14,8.78-9.65,11.26-15.55a145,145,0,0,0,6.32-17.81,174.42,174.42,0,0,0,4.09-18.47c1-6.08,2.17-12.13,2-18.35-5.62,13.11-12,25.53-21.27,36.57a116.15,116.15,0,0,1-34.88,28.44,25.92,25.92,0,0,1-7.33,2.76l-.6-.78c1-2.55,3.72-3.53,5.27-5.67,13.82-19.09,18.15-40.74,17.61-63.76,0-.53-.14-1-1-1.09-2.48,11.68-5.68,23.16-11.33,33.81-3,5.75-6.75,10.88-12.56,14.16l-.75-.55c5.49-12.17,7.88-20.62,7.22-26.68-.52,2.72-2.08,4-2.91,5.71-8.55,17.36-24.2,27.35-39.22,38-1.55,1.09-3.34,1.46-4.54-.28s-.43-3.26,1-4.53a55,55,0,0,0,4.69-4.18c1.57-1.73,2-3.8.12-5.64s-3.83-1.51-5.74-.17a5.9,5.9,0,0,0-1.83,2.05c-2.36,4.64-6.65,6.57-11.24,8a120.42,120.42,0,0,1-22.38,4.64c-12.57,1.43-20.32,9.76-20.57,22.31,0,.53,0,1.06,0,1.58-1.55,18.41,3.56,41.26,11.17,49.3-.24-.95-.43-1.68-.61-2.41C476.16,358.34,476.57,357.23,475.43,356.59Zm-46.68-242c-1.9-.87-3.85-1.64-5.69-2.61a50.48,50.48,0,0,0-33.22-5.15c-13.64,2.37-25.26-3.58-31.81-15.71-.4-.75-.42-1.87-1.67-2.12-1.13,2.66-1.27,5.53-1.65,8.32-2.7,20.07,7.94,33.12,28.18,34.63,1.8.16,3.54,1,5.42.5,12.34-2.37,22.44,1.44,30.7,10.83a41.76,41.76,0,0,0,13.58,10c2.54,1.21,5.28,2.32,8,1.43,5.22-1.71,7.68-.82,6,6.53-2.23,9.67-4.88,19.13-14.58,24.71,2.59,1.24,4.72-1.15,7.1.49-4.42,5.25-9.26,9.61-15.88,11.67,13.15-.75,24.72-4.56,32.55-16.09,3.06-4.5,7.72-4.64,11.05-.33,6.25,8.09,14.76,12.44,24.31,15.12a31.47,31.47,0,0,0,9.8,1.29c-6.15-4.1-12.43-6.46-16.84-11.51l.19-.18c2.62-.4,5.12,1.76,7.64.63-1.2-1.32-2.42-2.53-3.47-3.86-5.52-7-11.68-13.63-11.53-23.42.07-5.35,1.89-6.63,6.81-4.73,3.9,1.5,7.44,1.34,10.26-2.29,3.56-4.59,8.1-8.18,12.53-11.85,6.67-5.52,14.08-9.36,23-8.58,4,.34,7.86.55,11.73-.52,14.63,1.33,34.86-17.19,28.12-36.77-.66-1.91-.57-4.86-2.79-5.24-1.64-.29-2.24,2.52-3.41,3.87-1,1.18-2,2.46-3,3.71-4.85,6.27-10.88,9.49-19.15,8.57a109.94,109.94,0,0,0-20.92,0,51.76,51.76,0,0,0-24.35,8.69c.52-6.16,5-8.36,9.86-11.25-9.25-2-16.94-.33-24.47,2.73l-.78-.74c1.58-4.25-1.36-3.51-3.46-2.86-6.51,2-11.32,6.23-14.94,12.62-1.89-3.56-5.14-5.22-7.39-7.95a15.54,15.54,0,0,0-6.13-4.83c-2.87-1.12-4.27.06-3.91,3,.08.63,1.18,1.33,0,2a71.4,71.4,0,0,0-22.86-3.94c2.88,3.93,6.72,6.3,7.25,10.85ZM691.39,242.72l-.31-.2.33.17c11.23,8.48,24,12.5,38.05,13.14-28.53,10.58-57.07,20.88-87.85,23,18.72,5.37,37.37,10.79,57.12,11.06-26.17,15.28-53.28,27.65-84,30.16,27.49,3.11,55,4.8,82.14-2.39-7.65-1.72-15.36-2.81-23.55-6.14,9-3.4,16.5-7.78,24.34-11.38,7.56-3.47,14.14-8.55,21.28-12.7,1.17-.68,2.92-1.84,2.69-3.16-.29-1.73-2.51-1.47-3.92-2a55,55,0,0,1-12.51-5.68,3.4,3.4,0,0,1-1.58-2.1c0-1.24,1.38-.83,2.17-1.13,3.33-1.22,6.65-2.47,10-3.63,12-4.13,23-10.24,33.79-16.77,2.42-1.47,1.69-2.29-.21-3.53-3-1.94-5.82-4.14-9.17-6.56,8.46-3.53,16-7.31,24-10.09C752,234.73,740,237.31,727.87,239S703.94,245.4,691.39,242.72ZM438.53,419.88c.12-1.29.83-2.59.05-4.05-1.82,3.18-3.72,6.12-4.13,9.69-12.06,41.31-26.78,81.78-38.94,123.74,8.75-5.25,16.95-10.13,25.12-15.06q19.74-11.91,39.43-23.91a3.67,3.67,0,0,1,4.6,0q8.35,5.58,16.92,10.84c12.85,8,25.43,16.37,38.16,24.53,2.42,1.55,5,2.8,8.31,4.62-2-7.23-4.27-13.31-6.31-19.47-7.62-23-13.26-46.68-21.38-69.58-4.52-12.75-7.76-25.94-11.58-38.94-.57-2.51-.91-5.11-3-7.63.11,4-.3,7.38.43,10.73-.7,1.65-.41,3.38-.41,5.08q0,24.3,0,48.6v5.08c-9.4-26.77-16.45-53-24.52-79-9.1,25.57-14.34,52.08-22.09,77.91-.23-19.26-.22-38.48-.25-57.71C439,423.53,439.28,421.66,438.53,419.88ZM139.2,294.94c.19.89,1,.87,1.63,1.21a7,7,0,0,0,5.55,2l0,0c.1.63.58.76,1.1.84,3.18,2.25,7,3,10.53,4.31a147.94,147.94,0,0,0,66.68,8.13c3.18-.33,6.59-.25,10-2a321,321,0,0,1-37-21.72c-3.63-2.5-7.42-5-9.4-9.27l.13-.13,5.87.6c7.33.75,14.16-.44,20.85-5-23.85-4.4-44.5-13.53-61.43-31.23,8.82,1.2,17.22,3,25.83-.95C155,235.56,132.56,226.79,114.22,208c18.33,2.45,35.62,5.57,53.22,2.43a99.73,99.73,0,0,0-11.12-4.67c-17.74-6.59-33.4-16.37-46.35-30.29l0,0c1.91-.37,3.62.43,5.39.89,3.75,1,7.5,2,11.55,1.26-.51-1.65-1.92-2-2.92-2.74C115,168,105.62,161.62,98.19,153c-4-4.67-8.09-9.3-11.13-14.7-1-1.88-1.89-4.28-.12-5.84,1.59-1.41,3.75-.31,5.47.77,11.94,7.49,25.14,12,38.45,16.16a247.76,247.76,0,0,0,55.24,10.55c14.23,1.07,38.24.42,50-2.48-2.31-.36-4.11-.67-5.92-.91-10.41-1.42-20.86-2.64-30.81-6.35-1.14-.43-2.41-.6-2.49-2.09-.1-1.84,1.48-2,2.71-2.25a19.39,19.39,0,0,1,4.3-.38c8,.14,16,0,24.09.6,11.37.83,22.76,1.18,33.09,8a12.8,12.8,0,0,0-.27-2c-3.16-9.4-10.83-13-19.59-15.24-2.4-.6-5-.57-6.87-2.55-.94-1-2.84-1.73-2.23-3.38s2.47-1.21,3.88-1.15c11.24.47,22.36,2.05,32.63,6.73,9.74,4.43,18.25,10.59,21.32,21.78,1,3.66,1.12,7.53,2.55,11.1,1.46,10.7,4.69,20.94,8.27,31.07,1.87,5.26,3.48,10.72,7.63,14.83a29.83,29.83,0,0,0,10.42,13c-1.2-4.66-2.13-8.47-3.18-12.24-5.92-21.34-7.13-43.48-11-65.16-2.18-12.09-5.85-23.44-17.11-30.26a57.81,57.81,0,0,0-22.7-7.48c-29.22-3.79-58.65-6.06-87.59-11.95-21.81-4.44-43.54-9.12-62.39-22-.11-.08-.42.11-.81.23,1.79,10.8,6,20.1,15.52,26.35,1.27.83,3.53,1.5,2.48,3.33-1.15,2-3.06.31-4.41-.38-4.91-2.54-9.63-5.46-14.61-7.84A384.11,384.11,0,0,1,56.5,68C40.16,56.38,24.87,43.6,12.91,27.28L9.5,22.61c.15,1.45.17,2.1.29,2.72a418.36,418.36,0,0,0,21.32,75.25c4.49,11.39,8.51,23,14.61,33.63,6.34,11,12.51,22.16,20.15,32.37l-.58.62c-12.93-8.66-26.41-16.58-38-27.14a7.29,7.29,0,0,0-3.31-2c-.19-.32-.2-1.06-.72-.76s-.16.83.36,1.06c-.15,2.87,2.22,4.6,3.15,7a239.86,239.86,0,0,0,27,50.13,174.36,174.36,0,0,0,33.46,35.93c5.14,4.14,11,7.34,16.61,11a199.67,199.67,0,0,1-47.58-17.2l-.74-.36.26.83A24.11,24.11,0,0,0,57.28,228a271.75,271.75,0,0,0,34.21,35.64,253.66,253.66,0,0,0,38.14,27c3,1.76,6.38,2.91,9.59,4.35ZM617.8,215h0c1.25-.73,1.52-2.1,2.06-3.25a127.64,127.64,0,0,0,9.06-25.56c1.38-5.94,4.88-11.31,4.74-17.64a3.58,3.58,0,0,0,.84-2.56c1.7-16.42,11.42-25.85,26.47-31a94.1,94.1,0,0,1,25.86-4.94c2.19-.11,5.23-1.28,5.92,1.17s-2.48,3.56-4.49,4.69a5.21,5.21,0,0,1-1.87.61c-4.55.46-8.72,2.32-12.59,4.42-5,2.75-9.27,6.6-9.26,13.16l-.37.25c.06,0,.16,0,.19,0a1.13,1.13,0,0,0,.13-.27c5.11-3.84,11.13-5.24,17.25-6.26,12.63-2.11,25.42-1.89,38.17-2.3,2-.06,4-.29,5.88.39,1.24.44,2.72.63,2.72,2.36,0,1.49-1.38,1.89-2.44,2.23-3.13,1-6.27,2-9.47,2.71-8.83,1.92-17.78,3.13-27.42,4.31a10.83,10.83,0,0,0,1.43.57,205.21,205.21,0,0,0,63.69.51c28.14-4.06,55.26-11.7,80.25-25.79,1.26-.71,2.69-1.5,4-.19,1.15,1.16,1,2.67.4,4.07a40.48,40.48,0,0,1-5.06,8.92,133.88,133.88,0,0,1-30.63,28.12c-1.64,1.11-3.69,1.85-4.77,4,5.95.9,11.26-.87,16.74-1.92-16,17.44-36.12,27.84-58.29,34.93,18,3.31,35.72-.08,53.55-1.68-17.78,17.5-39.55,27.12-63.33,33.06,7.78,3.75,15.74,1.81,24.67,1.38-17.57,17.29-38,26.59-61.64,30.88,8.81,5.85,17.77,5.24,27,4.45-12.57,14.28-29.79,21.66-45.59,31.37a100.29,100.29,0,0,0,14.86,2.06c11.58.55,23.19.53,34.64-1.58,12.55-2.32,25-5.2,36.48-11l.92-.8-.05,0a13.37,13.37,0,0,0,6.34-2.06l1.64-1.12,0,.06c7.56-2.8,14.29-7.24,21-11.53A205.83,205.83,0,0,0,839,259.7c2.84-2.74,5.53-5.65,8.49-8.25,8.75-7.7,15.68-16.94,22.62-26.18.55.19.72,0,.45-.5l-.4.55a2.84,2.84,0,0,0-2.24.44c-12.21,7.27-25.69,11.38-39.13,15.55a18.83,18.83,0,0,1-6.8,1.29c40.92-24.25,62.73-62.53,79.85-104.36A324.55,324.55,0,0,1,859,167.32c16.73-20.53,26.92-44.46,36.31-68.64C906,71.3,916.48,30.49,915.65,23.77c-2.12,2.5-4.13,4.86-6.12,7.23a186.43,186.43,0,0,1-20.42,21.28C874.42,65,858.39,75.66,841.72,85.5c-11.69,6.9-23.9,12.77-35.91,19-3.36,1.75-6.56,3.88-10.15,5.18-.92.33-2.18.79-2.73-.54a1.89,1.89,0,0,1,1.07-2.33c4-2.15,7-5.45,10.11-8.71,5.06-5.32,6.54-11.87,7.9-19.34a122.59,122.59,0,0,1-28,13.49c-26.28,8.51-53.47,12.55-80.78,16-16.7,2.11-33.6,2.89-50.08,6.56-14.65,3.26-25.69,11-30.26,26.16a88,88,0,0,0-3.51,18.58,354.18,354.18,0,0,1-7.67,50.7c-1.32,5.82-4.48,11.11-4.87,17.46,5.25-2.21,7.91-6.45,10.19-11.06A1.56,1.56,0,0,0,617.8,215ZM581.34,393.45c2.67-3.34,5.82-6.41,7.92-10.07a38.66,38.66,0,0,0,4.23-29.69c-3.37-13.24-15.1-17.76-25.73-9.34-4.44,3.52-8.11,3.45-12.63.75-6.25-3.72-11.83-2.15-15.63,4-1.76,2.86-5.24,3.95-6.82,1.83-4.24-5.66-9.87-4.68-15.39-3.33-4.22,1-5.55,3.72-5,8.09,1.07,8.87,5.07,16.63,9.93,23.82,3.83,5.67,6.53,11.53,7.45,18.28.2,1.43-.26,3.69,1.71,4s2.33-1.89,3-3.26c4-8.71,5.85-18,6.85-27.43.14-1.37-.17-3.08,1.81-3.48,1.72-.34,3.59-.56,4.74,1,5.45,7.61,11,15.21,11.48,25.09.06,1.16-.3,2.57,1.25,2.94,1.36.32,2.17-.77,2.86-1.73,4.08-5.73,7.15-11.84,7.11-19.13,0-4.08.16-8.17.07-12.25-.06-2.68,1-2.61,2.75-1.4,4.56,3.14,6.36,7.83,7.44,13C581.94,381.18,581,387.18,581.34,393.45ZM251.65,310.91a37.18,37.18,0,0,1-11.27,3.73c-3.76.77-7.55,1.36-11.33,2l.06,1c26.52,6.3,53.31,4.45,80.22,2-30.3-3.35-57.36-15.21-83-30.77,20.71.8,39.9-5.67,60.08-11.08-32.85-.89-62.2-12.2-91.73-22.94a60.62,60.62,0,0,0,37.78-11.38c-23-1.26-44.81-7.42-67.19-10a14.35,14.35,0,0,0,3.67,2.06c4.38,1.78,8.8,3.47,13.16,5.3,1,.42,2.58.55,2.7,1.94.11,1.23-1.33,1.49-2.16,2.05-2.39,1.62-4.79,3.24-7.29,4.68-1.76,1-2.24,1.68-.11,2.84,10.37,5.67,20.43,12,31.68,15.89,5.26,1.84,10.5,3.76,16.2,5.8a16,16,0,0,1-3,2.42c-4.29,2-8.57,4.07-13,5.61-3.55,1.22-3,2.47-.73,4.35.51.41,1,.87,1.53,1.24a205,205,0,0,0,33.79,18.54C244.87,307.66,248,309.2,251.65,310.91Zm103.61,50.73c0,4.67-.08,9,0,13.35a39.55,39.55,0,0,0,6.3,20.09c.68,1.11,1.57,2.26,3.15,1.89s1.34-1.72,1.33-2.89c-.13-10.49,7-17.43,12.41-25.19a3.31,3.31,0,0,1,3.62-1c1.74.41,1.62,1.8,1.8,3.09.44,3.12.85,6.26,1.4,9.36A75.52,75.52,0,0,0,391,399.18c.75,1.59,1.74,3.39,3.6,3.1s1.73-2.39,1.76-3.91a24.76,24.76,0,0,1,1.95-8c2.05-5.59,5.2-10.61,8.06-15.79,3.38-6.12,6.39-12.39,6.75-19.58a6,6,0,0,0-3.3-6.19,13.84,13.84,0,0,0-16,2c-2.6,2.4-5.72,2.18-7.79-.54-5.79-7.62-8.74-8.25-17.48-3.93-3.71,1.83-6.84,2.29-10.46-1.36-8.44-8.51-21.94-4.57-25.32,7-4.6,15.75-.24,29.28,10.39,41.2.35.4.72,1.06,1.48.62C342.26,377.72,344.2,365.27,355.26,361.64ZM662,202.66a55.64,55.64,0,0,0,13.5,9.28c14.31,7.06,29.55,10.19,45.33,12,15.25,1.76,30.41,1.28,45.59.33,3.86-.25,8.12.27,12.16-2-11.75-.32-29.46-7.26-34.83-12.82,14.47-4.49,27.4-11.7,40.58-20.76C744.09,201.62,703.33,200.72,662,202.66ZM147.26,222.4c12.92,2.27,25.93,2.12,38.94,2.19a160,160,0,0,0,21.24-1.13c11.32-1.45,22.53-3.52,33.26-7.66,8.46-3.27,16.3-7.46,23.11-14.11-40.24-.17-79.91-1.25-118.9-11.12,11.69,7.72,23.52,15.09,38.33,18.7C171.57,216.45,160,220.93,147.26,222.4Zm314.26-31.92a10,10,0,0,0-5.72,2.6c-3.61,3.47-7.18,7-11.05,10.15-2.94,2.39-3.85,4.84-2.71,8.51,1.35,4.38,2.13,8.94,3.26,13.39,2.51,10,8.63,18.12,13.87,26.67,1.76,2.88,5.08,2.38,6.08-.67,1.22-3.75,3.92-6.48,5.78-9.76,5.73-10.13,11.31-20.34,13.44-32,.36-2,0-3.27-1.56-4.38-5.41-3.74-10.28-8.14-15.3-12.36A9.38,9.38,0,0,0,461.52,190.48Zm-85.64-31.69c0,11.19,4.43,20.33,11.46,25.21,10.77,7.49,38.18.62,43.77-10.5,1.25-2.49,2.58-4.94,2.05-7.85-.4-2.12-1-4.29-3.64-4.5s-5,.42-5.92,3.41c-3,9.81-9.9,14.09-19.8,14.23-1.79,0-4.48,1-5.11-.68-.85-2.22,2.33-2.18,3.54-3.37s3.09-2.13,2.66-4.43c-.38-2.12-1.79-2.87-3.72-3.52-6-2-7.46-8.14-3.31-13,.68-.8,1.57-1.41,2.24-2.22,2.47-2.93,1.95-5.28-1.46-6.89C387.11,139.22,375.9,146.19,375.88,158.79Zm173.37,1.54c-.14-5.79.36-10.85-4.13-13.74a19.45,19.45,0,0,0-15.46-2.93c-2.34.57-4.89,1-5.73,3.57s1.3,4.05,2.84,5.64c5.34,5.52,3.53,12-3.94,13.89a3.63,3.63,0,0,0-3,2.75,3.46,3.46,0,0,0,1.58,4.11c1.2.77,2.55,1.3,3.8,2,.77.44,1.86.78,1.63,1.95s-1.39,1.07-2.26,1.05c-12.19-.29-17.07-1.78-22-12.32a23.45,23.45,0,0,0-1.39-2.28c-1.67-2.77-4.05-4.06-6.93-2.82-3,1.29-3.07,4.33-2.58,7.16a15.7,15.7,0,0,0,3.22,6.7c2.37,3.14,5.58,5.06,9.08,6.71,7.14,3.35,14.61,5.41,22.49,5.09C539,186.34,549.76,175,549.25,160.33ZM387.12,434.89a51.54,51.54,0,0,0,7.21-.95c3.5-.87,6.95-2.27,7.5-6.56.75-5.84-3.3-10.7-9.19-11.63a25.58,25.58,0,0,0-12.84,1.32c-4.84,1.76-9,.71-13.1-1.8a56.64,56.64,0,0,1-9.53-7.66c-.54-.53-1.12-1.33-2-.9s-.5,1.33-.38,2.09C357.3,424.42,369.64,434.83,387.12,434.89Zm150.82-19.71c-8.89-.14-12.66,2.85-13.53,9.57-.63,4.87,1.92,8,8.12,9.14,19.72,3.71,34.21-7.47,38.41-25,.19-.81.72-1.9-.37-2.44-.81-.4-1.4.38-2,.86-3.55,2.67-7,5.42-10.72,7.92a12.07,12.07,0,0,1-11.62,1.52A27.91,27.91,0,0,0,537.94,415.18ZM797.36,167.94c-10.79,5.72-21.73,8.31-32.29,11.95C784.58,181,792.27,178.27,797.36,167.94ZM163,232.62c-.08.06-.2.09-.24.17s.09.15.14.23l.38-.28Zm298.76,54.54.05-.34-.4.09a1.75,1.75,0,0,0,.12.32A2.19,2.19,0,0,0,461.74,287.16Zm1.6,0,.06-.35-.4.1.1.32Zm-319.9-98c-.1,0-.22-.13-.3-.1-.35.09-.37.26,0,.42a.44.44,0,0,0,.31-.06C143.46,189.43,143.43,189.3,143.44,189.21Zm435.41-65.7c-1-.24-1.18.57-1.47,1.23l1.39.09A7.47,7.47,0,0,0,578.85,123.51ZM110.79,93.25a.79.79,0,0,0,1.13.51.73.73,0,0,0,.3-.59c0-.87-.76-.75-1.33-.81C110.85,92.66,110.82,93,110.79,93.25ZM620,107.85l.18-.9-.76.45A2.74,2.74,0,0,0,620,107.85Zm-317.35-2.57c-.32-.06-.85-.25-.9-.15-.25.4,0,.65.44.77A2.85,2.85,0,0,0,302.61,105.28ZM826.67,56.83l.15-.25c-.07.07-.13.14-.2.2Zm-5.9,186-.29.22c.08.09.17.23.26.24s.2-.13.3-.21Zm-342.19-113c.05,3.81,3,5.78,6.68,4.72,3.25-.93,5.78-3.09,8.55-4.83,8.75-5.5,18-9.7,28.34-11.26,9.35-1.42,18.77-.28,28.32-1.1a23.74,23.74,0,0,1-7.74,13c6.7-1.49,10.55-6.63,14.37-11.59a26,26,0,0,0,5.42-15c-8.47,10-19.06,11.32-30.07,10.51a83.11,83.11,0,0,0-15.7.23c-6.95.79-13.7,2.11-19.12,7.19a17.22,17.22,0,0,1-6.93,4.43c-1.76.48-3.85,1-5.21-.59s-.34-3.51.57-5.11c1.1-1.94,2.55-3.71,2.86-6,.49-3.62-.88-4.73-4.23-3.34a24.85,24.85,0,0,0-7.7,5.37c-1.17,1.13-2.3,1.66-3.83.66-4.28-2.76-5.55-2.31-7.12,2.43-1.07,3.2-2.61,3.63-5,1.28a18.17,18.17,0,0,1-1.9-2.51c-2.1-3.06-4.61-3.92-7.45-1.1-1.86,1.83-3.58,1.4-5.26.09-2.28-1.77-4.45-3.68-6.6-5.62-1.06-1-2.21-1.57-3.57-1.12-1.7.56-1.14,2.14-1.2,3.39-.16,3.25,2.11,5.51,3.4,8.17.82,1.68,2.68,3.64.42,5.23-2,1.4-4,.39-5.53-1.42-3.54-4.15-8.21-6.54-13.29-8.15-11.38-3.59-23.21-4.21-35-4.75a45.07,45.07,0,0,1-21.94-6.71c-1.13-.69-2.1-1.85-4.13-1.87a41.64,41.64,0,0,0,12.82,18c3.73,3.07,7.35,6.28,11,9.43,1.8.16,3.54,1,5.42.5-1.19-1.23-2.4-2.43-3.56-3.69-3.63-3.91-7.73-7.47-9.76-12.62a1,1,0,0,1-.28-.12s0-.14,0-.22l.29.36c5.21.53,10.42,1.37,15.64,1.52a115,115,0,0,1,25.66,4c6.16,1.61,11.92,4.11,16.06,9.42,1.45,1.86,3.73,2.84,6,3.56,4.58,1.43,6.37-.23,5.88-5-.33-3.29-2.29-6.19-2-9.57l-.39-.27c.07,0,.18,0,.21,0a1,1,0,0,1,.14.29c3,1.07,5.75,4.08,9.12,2.73,2-.8,2.85-.24,4.4.61,7.57,4.11,9.66,4.21,13.88-1.33,4,2.71,4.6,2.71,8.28-.05.6-.44,1.13-1.41,1.95-.72M438.58,415.83c-1.82,3.18-3.72,6.12-4.13,9.7,1.28,1.4.56,3,.32,4.48-.64,4.14-1.36,8.28-2,12.43q-4.68,30.54-9.33,61.1c-.7,4.59-1.29,9.2-2.05,14.7l5.07-3.21q16.63-10.59,33.25-21.18c1.83-1.18,3.33-1.45,5.39-.17q15.24,9.46,30.7,18.59c2.73,1.63,5.29,3.73,8.76,4.37-1-6.25-2.54-12.16-3.67-18.12-4.28-22.43-8-45-11.73-67.49-.46-2.79-2.26-5.73-.39-8.71-.57-2.51-.91-5.11-3-7.63.11,4-.3,7.38.43,10.73l8,80.29c-1.4.24-2.11-.71-3-1.24-8.79-5.53-17.54-11.11-26.31-16.66-1.15-.73-2-1.87-3.76-.55-6.93,5.25-14.77,9.06-22.26,13.42-3.2,1.85-6.55,3.44-10.44,5.46,1.59-14.77,3.29-28.71,4.55-42.69,1.31-14.59,3.95-29,5.49-43.57C438.65,418.59,439.36,417.29,438.58,415.83ZM593.42,530.55a32,32,0,0,0-1-3.37c-4.65-11.26-10.15-22.16-14.18-33.67-.32-.91-1.33-1.94-.24-2.87.82-.7,1.74.05,2.6.29q17.8,5,35.63,10c6.13,1.72,12.11,4,18.64,5.06-.87-4.23-3.43-7.34-4.88-10.89q-12.76-31.35-26.6-62.25c-.89-2-1.14-4.34-3-5.86-.37,1.52.29,2.86.83,4.19,3.29,8.12,6,16.45,9.44,24.54,5.41,12.69,9.56,25.91,14.35,38.86,1,2.86,0,3.21-2.41,2.63l-17.24-4.16c-10.84-2.62-21.59-5.61-32.58-7.56l-.07.07a7.9,7.9,0,0,0,.64,3.83c3.08,9.9,6,19.83,9.22,29.7,1,3.23.48,4-3,3.15-14.14-3.42-28.33-6.62-42.51-9.91a5.26,5.26,0,0,0,.95,3.33c.62,0,1.21.07,1.48.76l-.06,0h.85c10.27,2,20,5.86,30.17,8.36,7.59,1.87,14.83,5.1,22.68,6Zm-303.06-26c10.24-2.31,20.25-5.48,30.33-8.41,8.63-2.51,17.29-4.91,26.45-7.49-.65,1.79-1.07,3-1.55,4.21-4.47,11.24-9,22.46-13.42,33.71-.35.9-1.28,1.93-.28,2.88.8.77,1.72,0,2.57-.24,8.7-2.53,17.38-5.14,26.12-7.54,7.7-2.11,15.19-5,23.17-6l-.07,0c.39-.95,1.26-.74,2-.84a5.42,5.42,0,0,0,1.16-3.59L340.22,522c3.9-13,7.68-25.46,12.79-38-1.37.16-1.88.17-2.37.29Q326.31,490,302,495.8c-1.08.26-2.35,1.38-3.32.37s.22-2.2.59-3.24c2.73-7.63,5.73-15.16,8.84-22.65,4.42-10.68,8.15-21.66,11.93-32.6,1.57-4.56,4-8.87,4.38-13.82a7,7,0,0,0-1.15,1.51c-8.1,20.65-17.59,40.71-26.11,61.17-2.46,5.91-5.59,11.6-6.82,18Zm310.12-80.7c-.64-.18-.74-.72-.85-1.26-.16-1.69-1.35-2.74-2.43-3.85.54,3,.89,6,3.2,8.29,0-1.09,0-2.17,0-3.26Zm-273.7-6.35a8.05,8.05,0,0,0-2.44,3.63c0,.92,0,1.83,0,2.74A9,9,0,0,0,326.78,417.52ZM607.6,406.45a1.21,1.21,0,0,1-.84-1.23c-.79-1.09-1.63-2.11-3.19-1.91l0,0a11.13,11.13,0,0,0,2.77,4l1.17.13,0-1ZM357.22,242.77c-.62,1.72-.77,2.81.07,3.82l1,.11C358,245.56,357.68,244.42,357.22,242.77Zm-59.62-15c0-.7.14-1.46-.75-2.11a3.21,3.21,0,0,0-.05,2.54C297.07,228.11,297.34,228,297.6,227.82Zm20.49,177c-.9.56-1.94,1-1.72,2.39A2.39,2.39,0,0,0,318.09,404.82Zm-155.35-172s.09.15.14.23l.38-.28-.28-.12C162.9,232.68,162.78,232.71,162.74,232.79ZM617.8,215a1.44,1.44,0,0,0-.72,1.66A1.56,1.56,0,0,0,617.8,215Zm-9.39,194.6c.5-.94,0-1.33-.83-1.61C607.38,408.76,607.56,409.35,608.41,409.59ZM385.69,514.83c-.75.1-1.62-.11-2,.84A2.08,2.08,0,0,0,385.69,514.83Zm41.2-254.75c.49.59,1,1.09,1.89.85C428.42,260.05,427.63,260.1,426.89,260.08Zm68.32.85a1.79,1.79,0,0,0,1.86-.86C496.34,260.11,495.56,260.05,495.21,260.93ZM382.08,196.84c-.08-.34-.16-.69-.23-1l-.32.17.58.84ZM539.52,516.46c-.27-.69-.86-.74-1.48-.76C538.27,516.46,538.87,516.51,539.52,516.46ZM24,138.08c-.19-.32-.2-1.06-.72-.76s-.16.83.36,1.06ZM461.79,286.82l-.4.09a1.75,1.75,0,0,0,.12.32,2.19,2.19,0,0,0,.23-.07Zm1.61,0-.4.1.1.32.24-.07ZM143.14,189.11c-.35.09-.37.26,0,.42a.44.44,0,0,0,.31-.06c.05,0,0-.17,0-.26S143.22,189.08,143.14,189.11ZM786.37,295.72a1.4,1.4,0,0,0-1.64,1.12Zm-645.54.43a1.34,1.34,0,0,0-1.63-1.21C139.39,295.83,140.24,295.81,140.83,296.15Zm171-.62-.93-.64-.3.33.45.89Zm-.93-.64-.79-.78.05-.06a.88.88,0,0,0,.44,1.17Zm-.79-.78a1.58,1.58,0,0,0-.22-.29s-.14,0-.21,0l.48.24Zm-162.7,4.8-1.1-.84C146.44,298.7,146.92,298.83,147.44,298.91Zm630.08.74.92-.8ZM521.31,324.16l-.18.3.22-.25Zm-88.56,45.13-.37.32c.08,0,.18,0,.22-.05a1.42,1.42,0,0,0,.11-.31Zm258.66-126.6-.33-.17.31.2ZM318.8,403.27l.58-.22-.35-.32-.2.58Zm284.81,0-.33-.19.29.23Zm-285.45,1a.78.78,0,0,0,.64-1l0,0-1.15.44ZM71.21,226.1c-.14.67.18.63.62.4l-.61-.41Zm-.69,0,.69,0h0c0-.48-.24-.71-.72-.72A2.75,2.75,0,0,0,70.52,226.07ZM606.76,405.22a1.21,1.21,0,0,0,.84,1.23C607.82,405.69,607.25,405.49,606.76,405.22Zm-550.47-180-.74-.36.26.83C56,225.51,56.14,225.35,56.29,225.19ZM607.61,408a.59.59,0,0,0-.06-.65l-1.17-.13ZM375,194.41l-.84-.77ZM128.18,168.34l-.34-.18.33.19ZM326.73,417.59l.7-.82C327.2,417,327,417.31,326.73,417.59Zm337.8-263.45-.37.25c.06,0,.16,0,.19,0a1.13,1.13,0,0,0,.13-.27Zm-64.9,268.47c.11.54.21,1.08.85,1.26Zm-59.32,94.55v-.73h-.85C539.48,517,539.83,517.15,540.31,517.16Zm135.92,16c.18.16.46.47.51.43.52-.35.17-.57-.17-.77C676.45,532.93,676.34,533.05,676.23,533.16Zm-58.55,23.73c.15.16.3.32.46.46a2.61,2.61,0,0,0,.26-.23l-.52-.41ZM188.36,278.23l-.45-.32.32.44ZM110,175.45l-.39-.38c0,.09,0,.22,0,.26a1,1,0,0,0,.33.14ZM86.33,249.74l-.47-.33.33.46Zm-21-82.54,1,.23-.38-.85Zm755.19,75.88c.08.09.17.23.26.24s.2-.13.3-.21l-.27-.25ZM864,181.89l.29-.52-.55.27Zm-379.69,4.52c-.14-.33-.29-.61-.67-.21l.48.39Zm58.48-56-.79.78Zm30,355.1-.38-.29.31.36Zm20.4,45.27.52.25-.27-.5ZM290.31,504.52l-.32.34.37-.29Zm273.5-209.83c-.14.29-.29.57-.43.85l1-.07Zm-2.73-23.1c-.05.32-.1.63-.16,1l.91-.4Zm-197.41.63.87.31c-.08-.31-.17-.61-.25-.92ZM480.43,105.37l-1.44,1c.87.78,1.54.21,2.22-.31Zm-51.68,9.21.41.48c.24-.33.28-.6-.19-.76Zm13.45,5.53a1,1,0,0,0-.14-.29s-.14,0-.21,0l.39.27Zm-67.23-4-.29-.36c0,.08,0,.19,0,.22a1,1,0,0,0,.28.12ZM586.4,301.44c.07-.19.15-.38.23-.58l-.56.25Q586.23,301.29,586.4,301.44ZM313.29,408.88l1.12-.85Zm-.79.78a.78.78,0,0,0,.83-.81Zm-.79.79a.77.77,0,0,0,.82-.82Zm-.79.78a.73.73,0,0,0,.81-.81Zm303,1.53a2,2,0,0,0,1.6,1.6C615.62,413.15,615,412.67,613.88,412.76Zm-2.35-2.35-1-.88Zm.79.79-.82-.82Zm0,0,.82.82A.8.8,0,0,0,612.29,411.17Zm.8.8.81.81A.76.76,0,0,0,613.09,412Z" fill="#fff"/></svg>